<mxfile modified="2023-09-21T09:51:55.456Z" host="Electron" agent="Mozilla/5.0 (X11; Linux x86_64) AppleWebKit/537.36 (KHTML, like Gecko) draw.io/21.7.5 Chrome/114.0.5735.289 Electron/25.8.1 Safari/537.36" etag="9iZyGKojX9zPAeqNlRNU" version="21.7.5" type="device">
  <diagram id="Ht1M8jgEwFfnCIfOTk4-" name="Page-1">
    <mxGraphModel dx="5242" dy="1933" grid="1" gridSize="10" guides="1" tooltips="1" connect="1" arrows="0" fold="1" page="1" pageScale="1" pageWidth="1169" pageHeight="827" math="0" shadow="0">
      <root>
        <mxCell id="0" />
        <mxCell id="1" parent="0" />
        <mxCell id="f34nnR5g4uo3Y9udLXgA-264" style="edgeStyle=orthogonalEdgeStyle;rounded=0;orthogonalLoop=1;jettySize=auto;html=1;exitX=0.75;exitY=1;exitDx=0;exitDy=0;entryX=0.25;entryY=1;entryDx=0;entryDy=0;shape=link;width=25.200000000000003;" edge="1" parent="1" source="f34nnR5g4uo3Y9udLXgA-117" target="f34nnR5g4uo3Y9udLXgA-118">
          <mxGeometry relative="1" as="geometry">
            <Array as="points">
              <mxPoint x="1447" y="1480" />
              <mxPoint x="1745" y="1480" />
            </Array>
          </mxGeometry>
        </mxCell>
        <mxCell id="f34nnR5g4uo3Y9udLXgA-266" style="edgeStyle=orthogonalEdgeStyle;shape=link;rounded=0;orthogonalLoop=1;jettySize=auto;html=1;exitX=0.25;exitY=1;exitDx=0;exitDy=0;entryX=0.75;entryY=1;entryDx=0;entryDy=0;width=47.64705882352941;" edge="1" parent="1" source="f34nnR5g4uo3Y9udLXgA-117" target="f34nnR5g4uo3Y9udLXgA-128">
          <mxGeometry relative="1" as="geometry">
            <Array as="points">
              <mxPoint x="1183" y="1540" />
              <mxPoint x="2459" y="1540" />
            </Array>
          </mxGeometry>
        </mxCell>
        <mxCell id="f34nnR5g4uo3Y9udLXgA-117" value="" style="rounded=1;whiteSpace=wrap;html=1;" vertex="1" parent="1">
          <mxGeometry x="1050" y="180" width="530" height="1220" as="geometry" />
        </mxCell>
        <mxCell id="f34nnR5g4uo3Y9udLXgA-280" value="" style="ellipse;shape=cloud;whiteSpace=wrap;html=1;" vertex="1" parent="1">
          <mxGeometry x="1290" y="1070" width="282.5" height="135.5" as="geometry" />
        </mxCell>
        <mxCell id="f34nnR5g4uo3Y9udLXgA-69" value="" style="group;movable=1;resizable=1;rotatable=1;deletable=1;editable=1;locked=0;connectable=1;" vertex="1" connectable="0" parent="1">
          <mxGeometry x="-910" y="260" width="1920" height="1188" as="geometry" />
        </mxCell>
        <mxCell id="f34nnR5g4uo3Y9udLXgA-56" value="" style="shape=image;verticalLabelPosition=bottom;labelBackgroundColor=default;verticalAlign=top;aspect=fixed;imageAspect=0;image=data:image/webp,UklGRmheAQBXRUJQVlA4IFxeAQDQHgadASqAB6QEPmEwlEgkIqIhohL5OIAMCWlu/+lmT/POlMgffoX8WD0b2Y6pv983/9Xjhg7Mdtv/neP/fI0Hu/Vb+z/2j9lP7T8ZPj36F/df7R/i/+b/evTf8a+afuH9n/xX+4/vH/y/03xm/6v+Q8XXon8r/2P8z/tfYv+OfZv8//bv8p/2f8r+8X3e/eP97/hf9N/2/8n6E/ln75/xP8R/mf2q+QX8a/mH+U/t3+b/4X+F/e36p/rP+h/qv+F3vG3f7T/t/6r2BfbP6//wP7z/mP22+AL4P/m/4n/T+xX67/iv+f/jf9B+2f2A/0T+3/9L/E+6X/J8DD9F/xv/f/qfgB/pv+F/9X+V/3Pw1/1//3/1f/C/eb23fpX+Y/+f+o/3fyG/z7+6/9v/I/6r9rfne////s+DX7vf///6fEJ+7////9wmpJYn+gp7ZgDun7f6CntS1IODJfHnoKe2YA7p+3+gp7ZgDun7f6CntmAO6ft/oKe2YA7p+3+gp7ZgDun7f6CntmAO6ft/oKe2YA7p+3+gp7ZgDun7f6CntmAO6ft/oKe2YA7p+3+gp7ZgDun7f6CntmAO6ft/oKe2YA7p+3+gp7ZgDuZ6HOu486v6XWUdUCXw96f0iLhfCdFgqN2iVRqI7E3g3weY1Ojx6F7rQzHkxEkP24ft/oKe2YA7p+3+gp7ZgDun7f6CntmAO6ft/oKe2YA7p+3+gp7ZgDun7f6CntREb7ow1uNA2x17Ik39/F44IXNFqR3UNwMIIgRdqOaBlHfqf//gpg8Y2LtdJk2GZYYe8Hb/hKa5l048oRXoCn9iD5Q9DBke50ozY3iBZOtDvgX0erehZHW7b//D/000xlT2zAHdP2/0FPbMAd0/b/QU9swB3T9v9BT2zAHdP2/0FPbMAd0/b/QU9swBnJFbum3meoGIIQW0ctqbzTkbyXep/iE1zpCPzdiu/Y5wY6wzXhKl5r5JBmSX4zN3VX+SPYOqNG6IMdH/1GbXDOW7cnQFWvGungoVEWmqUThQkxsGGZql7Q/HsDOwu8RXv5/YhZL3x0xLWeGfV31Sn+B3T9v9BT2y/28iSTy9pQxQCqHBw3VTykNB/FzrGw9sjQ7CoKL/A7p+3+gp7ZgDun7f6CntmAO6ft/oKe1ExzEtv8DtrmhFQdJH/K4bv9RlPbkgW6dGFAzbSE+UYZ0DuylVrZfnVcH4wnMvOMOGdl5wYx94Zx7f39sYEksT/P/agVpYTHM1scDyhbTzAXxxSZyGSo+Pif6CmwONbq0+JDAmPBOGx7cG+SgJsj44q7qgtmM25P4BTFsBi6t8AMaAwGVlal2wvgoZYRW5xcbw/x57KwhdsSj8vk1RpOuE7Y/sGZWcl2Y3uOAd0/ZLHvC///94NW7XmrhwswH5ZS+CP7BwO6ft/oKe2YA7p+3+gp7ZgDun7f6CmwSybttRWfEBVkZEUJP6rGLIQbl12hV1cC5nt2JoHdk27olOiOi2PAETrO2h69j+UFtMT+BsVNnBl2QQr0tgjSR9JfAImz6qJ68y3YbqNtbMAd0/byLxDMTSNAfeb0hPbLw5a8Pq1cYuusOOo//U0EniMMKYSZIQ8Il1JO3RDRgadtzN7eCRvIScUANU7nPS5cQuQUqqniyM+YrAuXgpdf2lemFdBLk47oAx3T9lQlrFT89p3kyiCZO91W1a+byICnW11XlJNDZWdQ3+B3T9v9BT2zAHdP2/0FPbMAd0+0C+LAmz8S0418wesEEmQQFpL+T7gLU7wCcYYQJgA9UmM4w+LgU6VuHETJpg4JpOf8QTVZiUj0et3sm6OyejMnxqY3T+d38lXxud+3tm/EhqLKX4WKBKX2HtmAO6fZH853mW9ucvY6/H+gp7UWjCth2+ASCQdE3Nugye1a+dgHTmoRpIxitdVoDyDWa9rTmjPjNM5WU/0FPbMAd0/bykV3JJg7lkcw3lAkyCQctpwTzd1sbWquv6CntmAO6ft/oKe2YA7p+3+gp6SZ2UGOlopDxMeiF0JGbAUWPHHp245reZ084/bXefvu7yFA1950d3BThtJWl5kSmsDvaMORHZ9FWwMLoWEVkWIflBKtIwLWDASdk6YkYTQOWGiNrOiqUF3RDnfPKSVW8ar19oS32n3DMlejT2NzbL04lf98DCVn2/zswNu387yijohIGlzbmG8Vk0kW/9zU6Cntl/s2P0Sc/0MqxP9B4DytgXGetvD7biKqsLH6+KLL/QU9swB3T9v9BT2zAHdP2/0E3XOibHK1ZV8orPmVHwy0mhJ/bqsdlZ8aBadpDay1GEqqDumIoZPgfsgDWlDciTb/9o11c404jxdLSwNc4X5r/PUjYoSfHefKv8cNfdmRpIk2KnmoPHFAhK8Foc9QsyqWpa6ROOIlZo8bzJGeOMwbD2y8OXrOgX6WOhNswB3TdEfChAUUGjun7f5cvyNwgN6z9jE8X3da9pQKXPvdkcYhO74Bxf0fBqDU3dQbZAYaq8cVmhVq0C3k/lxmwrowdy1sju/rnUyhBubUEdZXwY04x7+FvgdgXOo+nwq4BzApRdkksT/QU9swB3T9v9ABA3edlpNTzBEUbd9tYwBlxeOSVnQTk+x3tUl4iYvmJZCfkD4fP4NqiAjH33hwRN/NeN7IxS++XtUZ9xCotIdNsYwoGWeaJoe1qhnBk3x3lxKSWJ/OmAAn/sGhU/0FPbMAd0/b/QTZLAglvlOrXO5oAeUAS71al6EbReEFlXNqGS66LTGi0+zk+f+D0ODD0X0NoXx17C1fJ54kliKhf9JcMWpyKhOR8PcYAQJ6UnGz5UUG2SpmwiIozT2SdOM6DjfXFmAO6ft/oKe2YA7pvU5raWUTxIOxuYAdoK0kTI3aJN5IvVT23G+7QFvBlfBEXXOeFBAQN4mZXmrBMIuBhNBnNfmExtQbe9rHPlUikqSva8rNsdh4/3pG9CeowzeaZAxcIGrhdjb7yAcOok/TyVYv+wxcdxaWjsiNBtLSy+WPgbETGMVIfz3xDohXnFvhGHh7ZgDun7f6CntkV9w8f/bpDAbeoguJg1Nwj/exSC0hFGGqpZP7fk0ywcPKHm590xd7l30oBi9v6977cQIrYYUQ5CTPZr+AcbRkdHNxo/rQCPtq0RN8WAJaCQLmkNlajY07jcqX7f6CntmAO5mEskY3WCPbmqSV268391E6ZzMK1nPPyitgG2tniL2gqAhg4bTI8Ja92aOsQmP9uYnR8PrIVuARtTU7wz8WQfH/b196M8VWXiKmEVfesyU5QtmabxBhcrm6Zh51bP4CvK5BHNaqGpdzkMdDLtiHfqy/vttM6vQ4mdtgl+3+XF5CYO0N/brqcZ5J27oPe7bd9tu+23fbbvtjo1+uDxuuIEHG2O5fZW6q9Z/5e2XKoRwAvbG1+pxm3A42gfRv3/SupbEhFCKYVUmLsoG+k/dIzaW0mwBezhNVUQdFpgm++tdy8xlA3qGAl/bswC4CeDt9jcccmStRLY7QXdqdjQCciJta2YA7p+38ic/uKMDXf59+cjpH7vrWG+AUVa1tMAcPwy3PeIIPrarcMCQ/s+8pQzRohQEEPPhEpedmibiuozJgt+mLhG/sAfucV0iOixrmxSni+wT5wFqwFTV0Rw1r6GRqkemPJfrAQz0vNCgNKCrnob/aWNr1ucPW5HJfUVfkqrZe7cJ6W/lyJwhkkL5vGJBKabQEx3MRgPDAUwR39HxLsSdryQBkymSC71OhgCZHNFDyFUydncEVfu2+Kpp00zosumRFdFUaZzWmxAYnV2RgROGR3J6ODi930B1tWMCjiCdvu/qbIOKB8UgVTh6QupB8a3a9aCU9AggVAz6ZPjvPySXyHL5DloJZO8sMBp83UvuQXTkcWutuVRPRcI9ZsbuPQzZ63M7ytigZcnQtVvY64ZuhLIYaQ2w6Lora6XheygC+jX1opEMflFmZkzi+pnIu8lA0irWEvbUT4a7vjjssnRnMECdLkpjKF6yFoC3cOLfNqXiAmyqcv9q2P0iuBTcVHgegNKkuutqf7sm/Fb3CJt49J8Pein1xT/RWQbWgfmTLTkLoVvkv0TJvl+ey+C+pG0nCWJwWuuc8lmUyJLVGbJf6iFq7cu/oNGrdAYqDH47DHK4U+T/6Pnt5ph3G27rdlae2THDa0dW1UtUsa/aIdKPhvZKGV8S1Vn05yKtu/WxoUJJ+nL3w2ih3D4dqaCRVfOFx3AhzJNwnuomxg+MLOhULiFkC9iM6fq0geErX/ilivrY+AHljWdw1ZXVxsUBEy7EZ+VjEETDsww0YfScBPKeJlfEyviZXRMr4lpIN/IZNZPytGTlF66YQHCpD+AYmbjvJD3ce/gA3zeo+7N6atAkSBYbn3JkUDJrX76i/qcHQtZGVB5Fg8RCbT9v9BTZ5QKUA5cfIF3P48Vn24bHmsCFGxU5IGn+ByhWUDmtGeWrSDJ5cbQxDqNV2yWgniArknDwAkM8Hw0N1a9vKOVuYmn9td0aJLEAaN2zVv91I4PI4OOXQJRttSljwRb6bTrC7mF66HQacR06VDFLxvtjQUmqI7i1l9LE5DxaE3wOzwh+vbbt4TwWku9rrQ64k19CLXqxFbbNjPm8z/wBN1IXrE37aH41E9m7J3ocp+bPQzsbaP5hSalLb63bfRhFwYR2h++/TLJvZjWvhIE2oAuvFiSaZGVFaWqs3ARPpQ3VuMxd6cksT/QU9swB3T9v9GzQ3HMkxye6IaSD4WZ1Y7gdiFo6yjooksV8Ipd2cj3lMiX0VJPGR12KC1oNlZg2HtmAO6bxFesIuJFeziaG6daok7HW85nAYzjm4YKFyf2/ZM0uHHYV4bdic5IOv9+b/T4Z3VjBi5gVhJsWepajK5mjD/kSjY3A4MZyIsUoonykk91tm28rOkGpFqlLiqe5AcBIctFDS4mZDkPQaOj2b9bkKYrG6xACZBBl6cSSr4a7fbPbaFniH2/NlqJoU6C8Oapq72Z2K4ad3xi2xKmIz3fTQ885dCYoJHH4p+3+gp7ZgDun7f6CntmAMYoUci4HmzcTmugBkiwL4pYmc1Mp/NmLadWRi0f5yFfWMDun7f6CntmAOuZKC1TEoswDutCVKvdxkjLZQW/oS+eCcIGTz/Gnje9m/32tdfgdIAX/a5qMNCGKlsfpN7CcsaRgvfeDARvshwrszeE6dhpnWtRreROOYLQyou0R85aSrltRmAZmImp6czgRAj37gzJEO3MgSCPZ+zDs+6YUrJBIsD/Dhc7H6TXLEGtp4eZHInd/DQ3Vl1XnvMavXu9APnlfJ0N8chYwB3T9v9BT2zAHdP2/0FPaktGcyiYber77WxRW29VtDtGMn//31qltS+Sad6DMRP2qSuqfOtmAO6ft/oKe2R3iPaY5CtwTUAHg01Rq9XYLqwQpFimXp/RCra5EHr3a234fNJjS/4p6pNsG/vKvF9hRblZfxSZ465Vh+rMn3fbTXxsXUX+3+gdCvgBlIA4zCJwMWvWvsvqVeOv3ez61+xtz8W2u7nSDsG5UFOO630Ec2207gAZuY54DbVF+6FFvxo6WpIv8Dun7f6CoG+23fbbvtt32277bd9tu+lxGpzGAFxeuCUWafNVoMs9z7/ztDEqFjjol4ho9fG24Lk72uf6CntmAO5zKvtpwyTlS8nXkwmXQQ/nzAQnloyV9hGrF7kj4JU4i6vSuqokitSptGyqek4oqCNDAKdSPzuNRKSWKBmEymdt/3+23nLP8GNajllpH8XOs5n2fRTV9Oz5vm5tmAO6ft/oKe2akhy+Q5fIcvkOXyHLRQg5pTxTNMhSbZsJHXj5u6Ax/8i2uWc63naRwI2QsiuX2/8rVRneE+TxUlanc2CWrieiowWpWCNsf7OXiVNf/W0CP3b6kbvl+JMvVeP8K7oF97+Fw1uMN33+gp7ZgDIJZ/hUdmAwISTH8HdCkO8dB2AXaC3DGpzVIO2GR7Cuqd3upPoD0HR3l7fpvpSTw40FdmLE/0FNi6gMsYc16Z7EeWacKjLjDVZfg53DGFXPLstA4dfkgkSjpEABWZ12oqflqY1ttMtoLdV1fZwaTY3NswB3T9v9BT2zAHdP2/0FPUAFCp4DbNu5L5WpLRqhydUoKkLHpnY3JVkYlZqAUOZdVQd2Nsuegp/YS3219wQsfksDea/Be0a6ACj0FesqhK9LWrdwH5BDlK0gmZXdg9HxddK5c8kfgRif6CbRhQbpv3CEPxtSs+w9J27APy/Yin9jnl93+xwLQNNx7zpKogf7NCJYn+gpvMkxt+4KbHzTJE+zK5dI9inVhP6sa99OwFNcxQ6w/9CCcCBE5EDmflMQ/ZRy7ZY+1zbMAd0/b/QU9swB3T9v9BNX5nTX4FCo0UcsscXMMlYh8fxoIwuttgBd2y/jleyYuVwAA3M4/cPTN3BYWzKh3tsFVrMAdzNvj5BgR+T/UctnUueS6ABGSZikqavcGb+l2PoH/POxIjcVZGkR6sKx1SSxP8u8wrM6T0VkdUqjT6ieYnEDLE8qQ3iWRyeY7ezfljtZndbMAd0/b/QA7X0n5htdG4YvApVmuJPV8U63Xe9ngQKfpTnyyrcZcvlHMBpx9i3lZMMSnW+RloyiQ5N2ubZgDun7f6CntmAO6ft/oKbD3v6WaLBs5ClZxCXn9hQv0rDYIO2lMJ/otBT2yS7+/H/7piEw8TWE6ouXOh/2YHL92/4FQoxEhR2y+n5qv+u/wO6fuBXZfheDCm1aW5kTvzfDDorv/596KV/fTNGcZPPE/ROXY9mqSWJ/oJq3ssGxAJcQyZsmfAq4YkngpsmpxUhu1TYP4I1nP8Ey3wnDj8oSsYMpDqvqottgt+EeFWNI5rwU9swB3T9v9BT2zAHdP2/z/zOJvJUqS7amJ5b2IEc8dNo7uuGdzbL/S+/+XCq1Z5jN1Xhj2zAHc0H8rkKHBGgLEX+B3T9vH7C/WrAmkxknxqEo2WKDNw9JIfp7ifBXFM6bQBzCkb8PTrE/0FPbIr/V5FAoTJwgL3wPmHLgQEBgVRT2NHs7Yfpj/Zv/L/Q5F+zonN4oXDCA3ZSeNRhWYN/8eJ/oKe2YA7p+3+gp7ZgDun7JbxYdpB0jFo3b93OSK8LbKkievcI2bXW8Hrp3VdulMnif6CntmAO6ft/JYDlTSTa2HvsD8Jz3+gp7Zf737Idpgw+MlFE1Imohqx4LuWC3EjFpGk1VNdp1if6Cnq95GYhXqZNYsTgHEmvC8nWS3/6kE5AwLEhZcwGweEIr1iYNh7ZgDun7f6CntmAP98hy+Q5fIcvRJt+Xq60zsXsVeSdj9oaoXoRywwmoatv9BT2zAHdP2/z/68tBfPbXIiAuv8Dun7f6CmxNTFBCa+7JqgBD7wWgS/a5DNfcmkRIDCz7E2YMXlxWQuSbD2zAHdN3TuqHDTfxHpVlYh3LFyORfQDYvWWuqSWJ/oKe2YA7p+3+gp7ZgDun7f5fUAasUnirqh8sBXy+hCIexNV0d0/b/QU9swB3T9k6bFEpvIfgBtPAO6faAlndtpaiuJVB883g7B8ELpSE4azAXXw3F5zC4vmYPLDV8cZGg/TGTEnHPwS7x11VkbUe1O6he/awn7j1i1zsUlv9BT2zAHWjL6IPuinl7VYwbBfD2zAHYmy2YA7p+3+gp7ZgDun7f5eDMDlSUPQPH46rZFs72zUtOut/oKe2YA7p+3+gp6W6nDCA6wft/oARa91E2gZqayg1guZVUIygDpZaa6QHGAKto0vl9ogu6zKn/saTPTizWw/RGSCTb6+p2DnVo2+FE0D+4HdP2/0FPUEARw/BYd5ppJnek3oJiY3bmv3dDc41DRLYni8p1+9yU1JTusDVBvQrXM4Z2YeWYjxYc+nQ3DXPAkbTBawP3RxUmq5OkU6xP9BT2zAHdP28MG0fmD9v4aQZ6N6g8pIN6CntmAO6ft/oKe2YA7pu4Ijbxvh+3+gmryz1oEFtabSEdQOn5xhyHkWpOTvnwOGN7miFLFwe5ITqhhLCybDN14o1VW+Fgs64wV2O3ITWzAHdP2/z/yXqovBtX3E+F8wVaVhRPGUqc8wTqlLI61JUBgSvjB5qCurQCqhAAqRG69MShZVjStL4tVbC1mogazIa15LOe4dPosA2TlfDo+ooCnbwhtJ2LCkjorGhDeDEh6aeQwrifJ/oKe2YA7p+3+gAlebruwStiHQwFmz8E5YNdVpqCXysOx2tmAO6ft/oKe2YA679wBmnas+2HtmAMfWxTGp6JkZ3y1ldng0QsRS0jA+FWABF1c2In/0EpaBhFIMdwvWJ/oKe2YA7mkfzwW90tL57sYAEKEd++wFKKAoiBzWJ6GRehe67tdFVm9CocyxQ1AV6R2fbtEss075U06uocNzGmQ797rF0GbrFCn5LpnVggXm9GGpu5y/xqG1irdogA0jE/0FPbMAd0/b+RVyjRnDHy2PBt0BryGUoYVGhSpQxgKi97Scbob6DuB3T9v9BT2zAHdP2/y90fyogHuM+HtmAO6w4VjYStLmMO9f6obqklif6CntmAMholEK3wIi4ajtJRX/tlLdWMAdDV54nP9DowT67NMynYhupglTjxk1eGv8AGdZqeAuCnhnNK9y8rWs7UIgjJr1HtVVC8bEO6G10Nm1dpKy3Yv5uCSWJ8NDtBQxdvebauwKGLt7zbV2BQxdvebauO3jMhiHYmT3ZFo8QijtgDIeza9wL47j52Ilble9rdP2/0FPbMAd0/b/QU9F2MaYvM+BrybGJ/oKe2R3Jbw5WhLleqSWJ/oKe2XqaMMyrwisnXL8vOGgUNXUfb5jWIpJWjPHQ/taGyP79bWVZQLum+ARisSXCb4CaRDbjGsFkIVlOQ5QrB8IIj5buBahvjhk1EKz1+lbL2eVeRA8n3d6sAqO3+giaK6p6X/bbvtt30ryTWwFw1C39U+qSFe8rWGG3HU46MIO0l1bRvFStH90wZDgLza+4l9V30EobshbLD2zAHdP2/0FPbMAd03fTQIx778PhJAaIjTrE/0FNfLibBOrP5fE/0FPbMAd08xVDowllXQVJqnq59n+egBdOGk7sMM4cb2aDwGqkhv7Rvhiq+6T/Jjg/aTvR56vFqaBAqkh12IwLLylzrVMb/ZLOQXAWMrFIM5mDyq95N/lrVUYpubTjBngTggWL/As7/bGiTf7dv9u3+Lbo8Q+YKyU1zY1OzcpnXwyEGElHz7+cGohG51awb+FRa74SbyZgXVMUwcGw9swB3T9v9BT2zAHdN48sGM21YN3z/QU9svIoaikO/SQwOjT9v9BT2zAHc7X4UOfcscj8RS4ct0YegJUGm4q8N4rm4EDNqD2U2gfWBjj0uGugm3BFPO8pNZijjFBG7oOmzZcnWASo21SSxtld+gRRQz+yr4tTsBRQWh5BHAX0VF0KjsVgOJU8w5WhOmuiTR0/M++n8UBv8XZ9YML5mioQwZ3raM9xu6YDMFc2h3/fEa1nATNUksT/QU9swB3T9v9BTVoDa8c3L0hKTaPTNDj2uaYNONmYRbbnsN1kXP1EsfAGDstch+DhBgFrmqSWJ/oKe2YBl27y/xxucOk98AOw3AOxe41RYAVf2jTOeNvN8KmHk3zKhqUHFGBFy3YydaC9hwqwybQvGliPGBvwO6ft/oBozxvl03y6b45vdyzo8t9cwMxdMEQQ+BPddJupA7bpJTYe2YA7p+3+gp7ZgDun7f5c+TGlS8ycQzwermxmilmjWfTnW4c18NWaJcCwp+ZH+2st3NjlcLJa11UsTth7ZgDun7f6DoEKs/IspXdqmkl8TK9/orqu0wXgcp6fvmQtpuFhmY3SkObs7oxw5qDlekQNfXosXaB3T9vS1SGKEtPFBqkMUJaP3U0ezIQd/FoXWJ/oKe2YA7p+3+gp7ZgDuaxcOo47sUAMSFvi5h/TmfBA1QBxhV2zHCsPssr2fjUiPNnEITI+JQNeeM6n+gp7ZgDun8JmVKCHuoXNKVxk594c+8PcvRNvlYKk029IUN4S3l7Ls0UTvLDB9V9hnDYJtGrOs8W57KbZgHUvkOXyHL4/vt3SkVPXX+e2YA7p+3+gp7ZgDun7f6Cntl5gAwKjiYAAuAlCO1Y9h22NgTg8xTMN9JloM61LY+NQKfnZVGghcZalWrOsa2YA7p+3+gngwcg3E+YxJUA4e23fbbvtt26UHvEdAgk4IrVw5p+3g97n8AIHpcJcqRMVsf6xtsOm7kbXPz0dU/Scu3Z8zoMai7YBj/hwyCUEwg0yviZXxMoqwTEcFkiVmXftNlYDgd0/b/QU9swB3T9v9BT2zAHdN34Fc3HQTkQJJjbZ0+2EyaOJns29sGAMQcmnM7kftZy3rqWP6XY2Du4Js9gUnqB5Q/WfTwbAcBqDsgD/n6MT/QU9swB125KT64FtWRu+23fbbvttfKPUZK0OpcUf/owie3CBPJu/UQkFjLaERxAuqEN2tMVP4yeZHMgXURo4WdMSw7dqSLVWf7QFk3wPl6Bi1uelFfrdPq0wHT/5MTLp/Pua0w+BTR56QGukfgyXvZTVJLE/0FPbMAd0/b/QU9swB3T9k2UwWEr6whwZOBa6vxykvI8/H4Gb1+niaoWfDNEF2UHOqHs9AUvQU+JT7VGFl45j4QZ4uZgrAO6ft/oKbRdhb18JSjxaK6tFdWiurRUpli5VXMNxzcnZvHIIVIQhDveZD7xLyWbqGzy0Sfq3jDXqdYYDf5fJ82V9I0IDc6dp2gMy2Pxi+VuNo1t9EFbcpSnfFHBj23FsTCcGgZDI2atRL7Ti/wO6ft/oKe2YA7p+3+gp7ZgDum+yt5VfTEDGlHmwjeJ/9ppZzZhhkItvySwyju2uBTM14kdVXvSijpXT9YtqTlLhhOpDtvBMBNh+jvfZUEPk60IFFqmktJMEptP2/0AHy5u7yD7O6JOFIwE9oCe0BPZ/2bIyjMzxydGC96ZF+ounfBT1nitaqJ3ypFeBWUTr/qX1jUAW47xYXPG6EKd/I0L9FqxJcU+7tRHG9Xk7o4r+C8QKvdPgsbpvjej3s4p4UU+T8N9/wEULT2zAHdP2/0FPbMAd0/b/QU9swB3NJLKPhVEYzVuEjnUlEm4JUFrESzSQwOka16IZz5zMALSCYcUQrgeBj2ABIjrGpWvATtbMAd0+4EG0DnvLjnOKzZ98OfeHPvDn3jlDzcu5RTXijYxopwhBbgZrnXp+d73NZuFN655QttWm9FmOfbd1C4x5+hkSAerOwFlaQIvPN/4tUWH+8x26CJDvnzO6zooSqMR/IWzi1mC4n1th7ZgDun7f6CntmAO6ft/oKe2YA7nDmgppd/iFE8TQLX/zsZ4PQka3euoJReDGkKXRtxzfRz+8pGw9swB3NYnSlQXBnfbbvtt32277bXyW2dVk3JD49aAIzqIN0Amfgzmw6cnuXvIijvlUcYpUpd3He5JMOOFaZkx43PSvaKWgmGxNX0rpzx60nVrtS0lHyHk0CcgCyyyBkP1CDbjoxkDx3TaPtT0FPbMAd0/b/QU9swB3T9v9BT2zAHc2J1Ja4OoHajN0f2e3+asnj0mP1klI/Qrr3XpIBUftRlYFa9Hrmo3LTtA5jRM6sXkiSeFihXA/uF+VYn+gp7UbvOPUkpNbbKYX0YQd9BhSd9tu+23fbbvtjh4qr2yfHgffL7sDS6CgE2vyWmcYGCqn1kWX/bZWO+pptUyeUDkDmODmBbbtTeXQ60HmYNwVDydJe0mRnHD1kuoI5ftwCg9B5v81+q/7Z5mtX4a63sSd/Du4pMAm/ZhLgSCuvkFJLE/0FPbMAd0/b/QU9swB3T9v9BT2pcLbwQ0L8Gj9TCoLG6p5yFX39yxnEYgR1ERzBShdJsBflnf8dK6ub4HdP2/zZkLBPjxuYQRtnXt87Djn3hz7w594c+3lqOyi2o8N0uVYdEVa3NT6jLO+oqEysF4WLZjRBJfgEvVwow2tG6owA+lgIBd70AG13lIfBSTVLAhMjxjXQjxHnkZhfhEaBak4xVwIN9M8ImP6Gf3v6KxuGJ/oKe2YA7p+3+gp7ZgDun7f6CntmAPjT5MMHgZJbDqXgIIVKm/yWjTphFB+DHH+/6TTlxf4HdVSNdxsegCJImaKCoL+PPJXC/l8IXabNJm8kXM+mh57WWGZSVpzM1Fur7y57kOXyHL5AETLpato6Id0/b5HseZ7OOmyCx4y9AHBjLtEUdLOHIkfMMxrbyTBDX3SB+0WH4UrbvmQloIbiKQXBdCtNlnyNEADun7f6CntmAO6ft/oKe2YA7p+3+gp6QZUlfVP9PCUWZfEyuEDxC5UypOKAcn+gp7vQb47vv1fAF0PuXkfp/D++ORExOdhMQRC7bd9tu+lY2XhrgjMdLD1S/0FPbYRTNy1ACVTy9PAT9W97sEfwZRVSw/ayN/bVYRGJyhN2+RTLK4rExt6lXcKwVZwrgfstmAO6ft/oKe2YA7p+3+gp7ZgDun2tT8i2zDUNdrNRfYcvBcF17Fj4GxGEPvGjyMLAs/LKmyaDYe2mxJWmvKyMGJjr/qG77bd9sbOXZF8m3llicYYuaEksT0tkarr9VUd5GOF7WjnCukYUMquJuOhf4QQaXm8yztE79jL2bdzfpW6QUcGDXP3nYAkvgDjZgDun7f6CntmAO6ft/oKe2YA7p9wOKQadfYADOPCVj0im++23faa27yjrcn/IQKJ/GPQSTmNWNWzAJ8QPKCEuHYGZuN7D2y/1zXTMNXvH/gv7f6CntmAO5ofkMSZbWqutcWcB25P/LAj33Fi0uaU39esEsY1aPknGE12aaXIOOyyH3mKhnJSr0LYHFaYw+cRMbc3whl9reL9m2FqIvzdfoJ7/MsR98UUm0/b/QU9swB3T9v9BT2zAHdbKPNIlSt1v/Y+BsfAzaEbGouF+cYuJvWwdbI5X78LUL7h6gDkbOkHmYNwVD0Fz9PmFDKrlKKRkx4SptB9oFueKV1aK5zt6olVWRkGqntmAO6ft/oAWxSUSQ7rPTIppGGQNvI4iYkccBaGNj40iN7W0mBelb+0zF+Kh4o5w6jZ46qxOSQ7w3eLJwfhU5hrimDlgDAztceXHPjw51CoN+bBff5dIx3MQxZO6npSt+G0pH1RU4b9/yNZGrv9BT2zAHXTFcEptP2/0FPbMAd0+4XLpO0yn8Ul6c+8OfeHuT6uefyCsBifgFAc9bd9tuoHNg9aK+uxuBse/iZnoEnca2J/oKe2YA7pof5CHIWnKAMJtvSe01aTTb6T1HeKh0EBGrwrp/kIjzSOz5Bp6UleMz9hI6QefJ47DvcjpdFkRpkygQMorXKkV0wenD0SdwCSWrzL2TeqSWJ/lhVCou6XaN4iQLVGFOiU531SS/g8ueLk6SSBvW5VTh6kYn+gp7ZgDun7eTzhr3ZtWhETf6Cntl/tXX5sd/0XsbnZhScJDJGWnylihLCFyl/tPgbEUcEpu8oizCxP9BT2zAHdPvT1TEhAdLcotaX40etDRJ1Dc5inl+NMNp1eAgl1nRwGVTrrecuI4anN71OTSbfCj+CglOOddZ2UIon4bf1rG24dJDThX8hX9YliL1o6+lN3AR7dM6vl9iMV8GE64mT96CU2n7KEK8pMPpbkFhlEzVJLE/0FPbMAdfIQgmbU67X/bbvtjBSpQw19tsLv0rFi+o2sMkOXyG6vG6dd8dt2276VzH10HwPWRf4HdP2/0FPbL21oFMQpzI833rYx2hxxXz/XRlzXqAHlnARMovvPEc9Hzq4vUU7x+/sTC54nsq1rfXULoM22sNXXiJKrmR5j4aUVDp9T7Ec37kfdfk/ABZgSMp9uWsr8Dun7f6CntmAO6ft/oKe2YAyKZpuidGdoK2p4BjT/M/7z5xH58rbrdAS5QA8s9IWwJTR2u1/227bSQU1Tq4WPgbEdWFNzx2pIO8nDn8ZlbI5RjAOTXNswB3T9v9BTq2A/6zSzIzRI5sNc1xtRQyMiTE8PNNmtivzh/3ZA3pi/7QnN8W/o65ikvIkN4BctmIfjc2zAHdP2/0FPbMAd0/b/QUMhYjkSGh0VL4VqPbFp8DY9/4+HTYt2VCSWKldWiueO/Q5FPDI1uO1svTgoJTF/HlTjoIPGFAGUpqBSxmfFr7krUd0Vif6CntmAO6fubiQaeEC9wVqGo+RPbMy91qBw0TJa5trlcC9010yU6LO13ip8GqAiElieWcp3FsMabthusT/QU9swB3T9v9BT2zAzJcIUoENnUhKlV1aK53gjNR/oiXun7gmrRXVgGOJ428UcSlafs3PdtNNRvV8JBMBjGQJG6tbvfaZnKA9ObZgDun7f6CnL1zPAYPez2jxLTBgyUeYqMnmZq5nrTMT+UETYZvtHQ9MYmh6GsLgjKs25Gu6/gdyvuFPbMAd0/b/QU9swB3T9wEVXkS5LiKXdP2/kKoFGGX92JtmCe5fIcvRiZeXpdZCkOWkTv4XTgmbBH4VXL98OoOP1GvYJVR2tmAO6ft/oKbCUeyDP6f4OLcLTb8VCtqTLRZgntzTdTCPdpuHPVekNmpM9vWI2X/g4ZRu5POc0Vy9MvsFnCu2L/A7p+3+gp7ZgDun7f6B0fr+iwavyVUyJgPqSa+zx32xlYMKewo8LrB7c0HiZMKYsT7nYZIcvkOWh45wM16mj/ScJDJGWmacgo3PW3lSHs+t0yB9eH7QntmAO6ft/oKaujIANpimJrtf9tunRXzX3h7gUSVJqP3VQhFoVdnOjta/2/0FPbMAd0/b/QU9swB2LznP3lNfL4WKDVII3ZsBwQLKzR+3aft/mSRlp8pOEhkjkP0XVRreMw82agva1MSiKBA3V96Gz8Eevgd0/b/QU9swBkzN1dnuLnTfl03y6VQg7soHdw1tf/A7p+3+gp7ZgDun7f6CntmAO52nkn6ikxKSArWYg3xzSFLxFl7tNLoBKbT90rq0V1aKi/X3L5FTXy3vPSKmjCP2/0FPbMAd0/b/QTa0Mw52VVorq0V1aBcvwGe/2/0FPbMAd0/b/QU9swB3T9v9BNz/ic7Yy/7Yk11E1Ewki9XjVJLEhwp8DY+BsRkgXYcRirhqcZ779wW01R8+HdCSWJ/oKe2YA7p+3lqiL7FbZDl8hy+QBjCGfKJBT2zAHdP2/0FPbMAd0/b/QU9sm575RAwyB/EEdm8kma1FG9YYw4tpx/jKGmEptP3BNWiurRXU3lCc7uREoULJvCzpFNemsG3+gp7ZgDun7f6CnpIP1CWa8hBAG7QG0yM8peuw7UCuD73PgqD+5qajUQiTtkYn+gp7ZgDun7f6CntmAO6ft/oCFA1I2Qdn3vhtxUeE8Na6Mck2DoFqlAVslphhmPyeMwlNp+4Dvbbvtt32xtogaLaoOt0x5pGA2Gz8nOWGejGJ/oKe2YA7p+3+gp6WsZ8E1wkaQIqBYVjmX9AcIe89m2fPg76C0DUStOTcMI7wG3RF3clQrA9XB5oKelGkU1AlRgHJ/oKe2YA7p+3+gp7ZgDuj3DbBk+L3YHoZZd0yOub0Vgd0/b/QU9swB3T9v9BT2zAHdP2/0FPbMAdzX+RUcOwOK1pczAKMy1dgnqSqNdv6r8YCFS2s8Ma+8Gw1VmN00NaSYTZBVQ/hVJYn+gp7ZgDun7f6Cntl/z0/pvRlzloDQndde2wnGBT9nis6x4NzYOJise4HdP2/0FPbMAd0/b/QU9swB3T9v9BT2zAHdVNnatFSZaeMMkmHL/Fm44amx+7HBKyT8DCv6OPPbWP0Hkbm1I/CKX8hSDP90jGjrpBB6smRYv8Dun7f6CntmAO6ft/mTJQUYPborwE2KgEyg7HkYBkPmtQuSSntmAO6ft/oKe2YA7p+3+gp7ZgDun7f6Cntsdf9tu+P1Fii8VVg8X3yXCO4ljG6v1BQU9Iy9uhjsilIs2vta7jagN1WJ/oKe2YA7p+3+gp7ZgDsRmzqg8FcdLT3iq5eZfA7bZeBlZtmAO6ft/oKe2YA7p+3+gp7ZgDun7f6CntmAO6ft/n/ffbzPbSSllx7XwtdpJEYka/Q16bf31GjzapeJmhXG81SSxP9BT2zAHdP2/0FPbI7YR4AJybizZj3Hqz6Nb6qFL0aAubZgDun7f6CntmAO6ft/oKe2YA7p+3+gp7ZgDun7f5cyc2ZXljAHWzCEaaNQIm18/pdiIC59antmAO6ft/oKe2YA7p+3+gm8LG6Qnh9Vmr9Z1NjPO7rCSxP9BT2zAHdP2/0FPbMAd0/b/QU9swB3T9v9BT2zAHdP2/y9+rzRvIuAI/jGJ/oKe2YA7p+3+gp7ZgDun7KCPfKg7MPydlNKHyfRf4HdP2/0FPbMAd0/b/QU9swB3T9v9BT2zAHdP2/0FPbMAd0/b/QU9swB3T9v9BT2zAHdP2/lLj4bjWtC+s29pu2Vunfnvfj863N0HdP2/0FPbMAd0/b/QU9swB3T9v9BT2zAHdP2/0FPbMAd0/b/QU9swB3T9v9BT2zAHdP2/zJpJtfHh77qf7gU9YeYab7tddu2hAQ+m2YA7p+3+gp7ZgDun7f6CntmAO6ft/oKe2YA7p+3+gp7ZgDun7f6CntmAO6ft/oKe2YA7pueAFtB3ETsdzjmSh0lmr7s5pHflvg7SISSxP9BT2zAHdP2/0FPbMAd0/b/QU9swB3T9v9BT2zAHdP2/0FPbMAd0/b/QU9swB3T9v9BT0kfOaudiYNBEsT/QU9swB3T9v9BT2zAHdP2/0FPbMAd0/b/QU9swB3T9v9BT2zAGAAA/v4+AgjbXO+xhjApE0tz6vk2ailkSx1OzC1h6b9gAAAAAAAJf1twzjcNHHPQaY39dJcSzY8Jk59lsCi1RwTrd+jOgn2rBpo+DMd8AFaxkNF6FuGJ1bFLDf3gfgOzfQstsq5Gu+R1cJZlfvE/CHByk8WApVaNHo70Pke4WG7nUZBZTx8CgXM35uxkuo/R8QY9xYkqa/aC5k9mBTGtcJF7kECihc2ZOoUqmQB0YOLB92Ycrs+h2/5WwMXulo5SYH/w2CSIkAet/PL2xMtTYA+2lbAxPjkPtCmA2h8VHF5Nc+vkbyI9R9chwrZqypDRRaZHb9Q+5cbUb3QIN5cX/UDsdfY0ceoKUhxs3kKDZTS2Sbej9zHYuZAsrMZa2LJI28G5ljhZX636GFKpwhnhk/EiAAP0+t6usBiDGbnKwIwUGkr3g3NxcraFJBvO6dTVAC500ga9zaFZio3AW5RjYB7gWqWGFqgcH1hsMGiGWQLxMZe9PV6OcKmdltCxdE0pOzMfjHBaDsZ1mOkeQ7phM6U6KJKiQVzKbJmIG/nKfamLFPCg6j3KAjHxNqdGqsfocxH5YjbDy8/YvvQCpVj7Koe+euRxkwYoPAR06xF3tQV85AAAFOiK8vp58qLYNGMBEo/+fln/fuDnhI1wuE57FrgkW/tcmrCa1JJaEJxwtUf2aAx2yDvgxilBgYu9oWKYJxfG+ZwWQvWAbXeXICWVnacq1gjlLx20h+oNr4Ddp6NjEnEEBmHEzM09Fa8wuRIy1kVz6mbccM592eETblbl2kmzedizMKFB77y5t2QImykw/Ld7nhyOxk0/ZPO5mrFmedpzInl5kWmuAJ1g9riYtXoVnfkD4mjc8fDGKYdQG/3bsZk7qe0np1JX+CnKQFoauqkIO+dZp7Yk2fqP9ssa66Tcw6wNCfGQWg6ygKcrz5eKKBmdwLC83BO9eyK2dTmCucTIj5yhiEjknxxqEZXsb2k0U5YZd9UC6pY3qOUfwQxFMS/E+4oLtaWrxU5I/G0jOXI4htfb6Gpz5k5M9YedF4jqwQGvP7a206bRcRrDjf1qr8ll6iC3KNcOeiOfnSu8FOKLye8pg3RqAVKP+LOzD+bzPTWfuo6MGK38UHvbMIfzsNb7a4t+N4+TYPIc09WnTckaHamWWWH1UffZODvyIq+c1c6tSomwAegNs6hb+fUfAV9ChPiZfCtBmHEDYdtL2hP6Zm2v4fJDI9f232BsJNlbnaZyvJdQ1D6CNKLSSkxfZSYVcrjKVh5iPp5Tfsdb0RoHwrd8uJxETG10KJCd4kH23kbVN8CZ6A0lfEViRXtlCxn8yqX/i3Xaovi4XxQhwoJLZF/d/TNA288MafvDt5KjqFmbaBdivLtYZtz+XMJUp8GfTpCs7ZyYhIbhXxaAB/47UZc/ZluWELYO5Q7jl4qyiT9w005TsHNDTSS6ihI2VcP77G/8j77PCOQfEC2lnFhJ/1hYYh2+d9K3Ibj1ZHT0kPOespB+WReLEtn6y9AT1noLKrSAMyApt0ofLZufYZqB7RKiy4o7Sa9yMNXG3DeIqGR/fxO6uSEjCiGp12rWvYXNl8ZXFioqk5Fvfa5DKSiq7QgT8zicXZ64E7QBaRlmLIj9301bLyrvYrWC/qc/H4kwP8ByNNL7ALjbTjdxu2jktmgGGUvxmo7ouKaRYtAx4HeFl+I1DUGdT9/fVqR7pZ4mGrqA3yiDLHxu7Tkt+SOW7OU9BFIpA5rKDKjeH4KJO+q3hNT1d2TkaXq0cEUFBa761ktGwS+wHSgz3KhzTBsQg1SX869ZtLQNORdp515LRmSXP8xfODVY4bXQJFLHWOsPucmRkJuvFNoFL6mNOp1oj9x4m//499v/lNUanKwjS+X+R016q+8IPhJBoJ7D0XyLhk6ZMc90+2wnaJJuOikD49QryiEo6p0j2q4rJkqJZkrECqsFdOoPdwqpm/9muoLUeAAAARNoQkF6OD3nx6c4qPp+/ZCOa/D/L8q1XCFQkoHIryYWOoLm2ClTucjcrI0V44r9RU/M60ppKjlp0L8LMZUYos9zjI1NKgx1sboZJ1DcgbvzDWgZ4z+ELz54CyroXfbNjJqiQ5qPI5Ud/3JVvqmH0uAsLl+FW2BWROHIph4tFuQIx0ZFPX3r4bdwqhv+sJLnKWiAEJiKoqfGXnpxXRW4e9vnGu6wz82LOBiwnZYKjV/pBFx8Y5GhSbqFgTow5o1ELChJmiVZ1kNAnZzotecz0ns45PGb4FQYJWKTpqU4FHf49Eo2vbG4Qry5hyr/UOWCzTw34EXVZ5x2/FWoGaQ32fun/qVx/vRFet+u/j8QYbhS4B58SGz4m764RHXeQFzYj8//0MOfJH2O9eZut6AGbkkSctmj+bam19gFCKvGm9NwsfTsJ+QuwogE+LiceIWAT6eRVxGYT+BwGMevwlPAW15sk2ygb6Ixsa93qG/hIXW+kmK1Q3Te0OpU0ilcIQQsdY8cfaeHUCvtz6Sf2+H8FjrWxA7oCTe+edGBA8DJOepIv46DIqOZL0xNgHfUHqzicdTaXWSTiTGFn9SUYnJjN9J+QIteytdKfHWL8jMcEkQDUOKruSjitP/ZwZHAX6g3uXd2YaP6XIRYXQGa5w5BG0ifZkM29+WUCEga4AK+fszHZJEY+Key0Z1tkH7CtEB1+a3NnLfmUSO39Xr7Xswv/pi7sHUYiNluehe/9eGgIKpiRUgSUBJrQ7gq7gMj0/8dIK64lUDVaTkXMxrNeBhqURrIdaTZqbXE3pHNY90/D0YKIyBIcoJ2UlbqOtLOojM2FkhlAyQ1F2Ju6BPjwbyirCIoI0yVhWKn+2fKaXrrR+k5lIaa+3NniRokzkVSpVo1BiL4xLkBh/TVa81WVwVcm7bbtB++yRPOFo7JZJ8GJgJD8tbkxE/T1dIri5EHeIrS+3nqDPWfTDxO/1n5LOPcueK/1h4fnzuZxpCDDHFoY4Zwt+rCNva1VZTBECRE55MyT6WsVH6oaAugfcvPXnMmHYc5KBrj4c1t+Eksja6sa+HWXz5aUCsqeL/GWiuceLtdzcWPo9qQeiiL50lCKiTnb+GrI4YrB5IvMPVxjuIUfqB6P91lLQdGgLZGhGBtlkjkLEWxrbEKf1yU24eZAvA46HD8IXq8HaLiBlT76D7e+1bWED2uyjRk0S6phzAcB87SZJEwhIoO3VzGTwKmSymJoq8AtmW27bEOXV451s6b89mJe2kNYNExar5ONf0WyvdeKt62Rf8iwRrhFgQ91mf2ydvSANLq9Da5E8l/dta/O3i6mcb+466XimnsymEgYzmHDgiPrTqWSqTu5IM+3uqLjSwBdMeBN/zy9lxZMqEv7C08YoNUo1maH/gRAVR6CGKt5D48WWMCt6GCdTIpUOccBlkHzkOy1FU130s1SKFUz/c6uBVrL6RIbBxoSdb0j0u7lJtsPGEMO3yuGenxD8a+Ym6/hTVPyQqrhD+DILhgoZHxn1MiFqI5jHhICagKQ27GPzHn1huWrcK5bbdrJOYVeWt6+Da4Rjlv1lmH8eQ3OfAh0JcgAc1ze1vxPgiKM/Hc9pNVqfWfk2ynJpGLrbr479x4f2LE7tj9sIM+lCKc6HQqCxk3jVGG+b/gYxscW9lAT8ywoTazeAJfZqheZZQ3MOMSAimqlHg5YND4bL/82YPXYiHgrNZzw2As+IPja7Gen82ijQ30iRGBz2+Qfw/1sGdy8wJPdieF0R/2/GIaap18B7KJEqoR/UbM3LeBzfLQJcAt3689IFCJdNsag6vRRGzfUPCi1ea0wyOQxacam/9h+RUIDZUXRcknut7llrsBAm/NXYjr8IF9dW9929pD+T23Ph0JVbkdD6ryhzdTcVSJCdltd3gXdQsl6rtZP/ntK49Qndb8m6fJjdbESHRndMhtfvxpotc4U48rjKh+Y18tbQxcsHCUmhKeDXH2/Mk2Q0v7d424eqltjkZXf8Aeypnisk2lapEBjo9Kp3PKeQDIkV1qvTMA7IDrduvPp8lliN+njuS21h62ig0K29ozsmNTxd01O4K15whFbGCsxbAe8edTl2QmzXoDn6mnEizHt28ZfbnC69mp1zOYzHd/2Qo7QHompihPbFzqxYjRNDGyrNmt312ShKhiXsuwruHyTcsCA304mBoZ/0qKSE4DLCqg1AW2sMVqmAS2no+fwRmaOL9KOT2GBDgTTVbXJCX9p//34dCbsJDRg4YYq/a5nAeHB+HoApydFW/nivxZBMRP16/Grf6y2Nowuv6EnvOjsRlQXMLNCiDD50EdZAeXlx8wdx4xdWQnQtvb48U48p0eM05Gm3doAc04Or4NCwvs4DvQAfk6RtIn+ox3P6RmTsU57yp6BscDBA5tNxy1KRVl0dQksw741FkQrQHTy5Oit4Sc0j4kr8hoIQPt5oc1qGSGHsIWA3CrIA1kvgUrM347P7JLzC7E4NJFNJREs/adXdVtGVUt31bcrtiBRr2W0o6sFifCt3ygSaUvMu26DxbPwUHUH2uEP17cCU/4C6eex1D+IwSH6PX13GPUr46HSK3VprQ9pOW2Jf20SKrY3Yyw6vFPG56144SOYXOWJ2iXPkb98b4/xfR1b0tpvcDflwlIq6vjH2ZeZa99tOvEYSjktwxWxC/Kh5wUOQRrCJ8Umo4NAIDknusKpCWG5RRTw4UmY9OxLAx7VdWm1AOgXQPkeoYkcbC8Z/UwrLxBF7XnvqYgp9m9FpzKYEnYOxK5xO+vsP26Qr00MmoirD7Q9N8+tC5TdRr7qsj9DW2NjpeM640nfiErhjIEOjkWudd8NrhD/1AJ2L9PAMh6PB182Vklu/k78IiFBO8bPY6049fmm2oRpmthwHX360GwaKUbNMI5leit/pif8iNDBe1FilW/L7i2aHRjYHCs7IHunNILU796YyWY9FZYtdqgTtWmG6auh4e+pUmVlI2jxUW0RR3QRt20BN9PbPFp8LVvMfDj+ySVRWbLYNPl4MoMxyMUZLRC9zzptsDYXiIHum6DA2cRBBT0gZjCy0DzMrZcdrQO9pBmkP9rV/P0/CXvP+Fen0+6KDxvXFM472jz8RfBrypLMV9JK9kJob4S39nISCsHpH6+LrEP9c7zf+X/K5/3NtS0Rqpr1M/DODEB4htcGwxhr7N4VKDSUoXOE97y9UYzmZRJMWaastTtpp8qa+BlR5pQ2nT/djDfvAzuMaSyMuPlEDQ0jhkE1ernFIu9wTQTcv+th9u8JwEn64HBDEfX7XMvpRIWl6ADClZI9OOrb+kTola7Ag8mu+PjH1FvRMbVYj6PMyJGGJreY9m0pfv1tNMXSJ23rRYPHjpqm16XL4/vRqmIGRqh4s7TlnflD1hynnJY1fZvCUXXPS9Q/Fy2hv7VTtTz+bwUepR4zMcGQkatY+jYr7KC/7dt+q3rGydmvNwxitSQUE+JSPhBw1rvuucyVhJ+/bvB8R8a7I++VlK8ldMxxV//4GrEL0thzd5DF7i3GYZNlhArkkoDgedK6DgVrTNHPq/8jhRhuu22JElaVMewsu2GB1rgJAhW/DCv8BzmNMkVgxBoOcmfdO+KMKj4RPB22wt7d/VdmX+XglfzBgtnU/TFH/AWZckchaec3AHF8YB5vGgiylTmNOVFmRO2Z/66aB483L7Pn/j/+L80kTzzbL38dgCShPW1/51N/5e/XUqkAr/d1ryz3hRQe/Cwou0MugPAwcEGehzNyvCUJKjZx5DuBtBeltJDcMQ5gv/A2kc153OSWtdGTtSFQIV+mUYKsVSvtb6jeVbB+vmwxPDcTxuBHMWZxrruWOzdQp7IBmmv2u4AquB6/NFUDoYtim7whkM0VJOJAi1QCczApjOjynnsucarUb2qt43Z410BlXIklihc4OcO3C4n3v0a+SJHYa3m753L4L8yDmc6e5DhRu6Fu/ZHbqwYFVYB7ZuzFVZ7IvEWwbFVJqx6DuellOAazh9EoJBE3bRJ58pI9/VZ7/KQazMjTGyjsqbb7RP9+OviBDSPcI0qVDwe6PHES2KNmjv7gSRjw+IADywb/7pnr5mkjW1SH5Ur+vWoKIXnM8jhNWjcGri/paIlUONKZdODWS9Y9m11VH5th2fzUcgzdx+H+J6nne1UQUcgIR0/HJYgtXouwixJtKu6igy1K2+1KGMAfPgku0+6+4KKrLLU/PPPimsLXyY3Oja3jRndcJkXYYJHyv4pIFlCy04z7nl+kbEQIUMG+3T6wQFP4ZtQaHSUyWtH5Jw+l8Tm+q35OQiXueHSrUNnX+KTTDYbzBjimvTZIs/bL8dBpfa3f18Kidr3qU1SsaRi69RlTV1gE9RhzcbkSfgbI0PRRH1B9BtIoUkVhgW1zDTFgS8Fmb8/uEmlquuyQPYUd6IrFD021y6NdZr8MOSxyZ3Xu8Kj57v31nIRTsG+rP4zRn7YVUB4Pjjd2fEnNDWCw1WznbQxUtJoGnNCp1F0WkIIjb4CEwSTW6a6/GNmAq2SnG5v6EYRGOhNCnsSOSfIQp9AwCRTa0e/Pgc8Bi2MTvpZWcY7x8VkOt/grBhkrORWjkgGF0xcdlbSUpf6nn4uSRO6n/2iUy8+K0kJ+zf7t7UgJUIAo6vUxmFwyE3CH6OGZtmXHzrDPwvun/lLEBk1EeZ6yzrfdXAZWp2lUZrRWvaM5yvEm5lFfUOLHClUG4GdGYl900pI0FKGy2P4XoZxPd6Ti4qR9K9+zxYBvsgqnCH6iJtp684q0R8vLcgwDUWsAPJ1akwWJuQgrl+gJfVC1KWFCh1+Cgn4IzG6FMLF50onCyGLeFg7sRbh9oD8CJtoyBcXr2G3ArA9hAShR+DyAny3BZTfDlk9g7ov0YoA1+wqYBVS5E14AwZo4dXlV1G3AysVHTIZUUPYh71mC06+A9rfwr2dp+GoWgMLVCYQ+AsxXYTOUpYBjR2W/jOf75UrpXKXcgRTfSLGd17j3+4xTTjW6iv4QfXWZ2g+x+acVyybrVBOqp2Z0mvUeZicUKc7SKD6ckz4d+pDuAhnSq3b9kwZXx1/+YYnV/1r3fRZhtkHRZTAKPOMvnTfKhHKJN8Rk+t7FAfvpH0ERzNXrE1lLGNKz0gRd385pLeeKnlhjb7938BGuEPJwoS6dgpubjxcKG+jHQEwVSqCk0oDxgMSY1VIiAH6DggoLHBKFQnX4tJJLDjeEv1Obsf63zjaI2XQZJYQFWtUsXEJNkpoAGBsP0PUA2bgReH7ya9xdR7SkB7WDWug8gbaL+JUWcCpOtrsepvSsJsKPxWFqXBO/6IoOBHg8fa2qAsWfWvEOv0CAqTQWbLR0BJXmYthE8PAc4aT35IbQ/RBZTWEWTlPtg4MSUOavw2U1r6BwnNnl0wZR/6/IbpTrjDaMtks5ix8qWoRwp46RjuVo43HnoBfC2C1OBzPa155tK3YoH6t847T/1on/nLy+ncNB88/Lp9AwsKCfXXBULPIZiNlObtmVH53UZtwMSY0ae7PnmSMPU2BTS+5cWbaZW4LBobDhBrbn3CV24FMn1+NJiBUiOs7E/gP9ppt3SsBoAM3JolvrceMm+sImgbUEvY9DsOo9lzjMy2sCAntjcytNzln/3spa+cq8WW2DHdTJBaA22TY83MR33iArBI2blhgXID5NmsAIm8vRsuI36MYQ1tBKsrQyihPomqUpnsJwOvj+FefplmIDbfpnmLoYdsAbzknAE8y5tYhNoHmtASMnq6RYQ8/YIGC48Ldx/aEpCvcfjsHO/g5GpJoSBzRO5tYXkl7iWEC5n1cI4LQuJagnMyURI4A4E8mJ6CVC6gFlhQWCN8nfbYspWh3+gel0w8S8RPigkT2DJj1kECWTkgDpg1mNF+xSaQwZA/ylJVNzSXHF5nxl67psD4NrIV7BIMCLZ/KA+OKP6cQfwz1cPeNfaxaq3y46ppvT76hanKV8Qm2SjPI78jaPwRxZ5aGLfkwvgC5j6cpzntedqK7kXUlniG/UFQ5XRXAzTQ/0T0eGOqFZjRCfdz+1f8LjDo80B/GhHJPRe2hm2MGVyck0yJ08WFHORu27roxe0rApqiLRGK2oA4/EJ9mEyiFHI5TeGW3cMmOtyGQojSXUsnC6s5YRZA990hOPveCY7Jv8Z9Zn6KzwvtNzgE7lbbikdiifixFI2xuqSDjvgqonT9Va/aaE3NPXZAnAPrdwn3w3bp7C6LXWQKxHiYuV1BY8/jaKUOhWcAwJOy2HjBhsk0zvBTL/vahq38m3eHkbSBK0MBkcS8WXyeAeGVH7IPJrNUCOq1D3naFt5rOxyNViXfShFhg/I3qAUnbvu1AU0uMLhb8FRAe1BQ8ssNpT3JKdBm4LVZ1YllQHhg1x6+VhMADI3X2H0QvTJUQbZG43U/+BoUIdWt2rwJwGjBtPXcpHj4GGKThxSZckvmBDkGIQXH5EB0uttQQRo0L+SXfZawYiU5TknA/BrEQnL+B0Fev9TMH91MLLioeykVr7WkJ81S81P5oiixRY4uHPNS2g0iqyZItjeODMNDX4c4bBI6/5BB8ZWakRdol9C0YB78zxX/GVXmZm+gPplQV9k2EBsVtV2ChRyJLWVSOekJEK4XENwjZz8tZcYUiqWg4PMnBfDBlZ/jjY1f/Rs3ee9/ElIukSxLDyYQx+Lblm5nVwA6Z+57HudNAwhY/tGgnHpXZgdYQBmtaiC3M88tsg/0fy8HcPZQXc4iP0n+AwakoeoMnyliRuNjhTjZSR4nlbNZIMkNJBo+lQZ+bLyFLWLB+KmliiIwbyF7WJS/bZCDq0tzCrTHX+KG06WtA8P81hKDxki44i9F1yt66k39Vb0WN16xIhuFu8+uzHBIVO5PJHCHmD4bFyo1943BXMUmwnsJT1mWh0XuqX9Fn4/6/Xd0c3ehK/EZyiiefIXmt8uR9gHXQ6YmdVWBp9HTeC4zmS6A6pIeRyFsYV8p7K0nPbqVTc0IswA4b8cthy/I72CrUc2lGe8pzAXtkgLtP3kl7IeuR76H98YBZ/sOlFjRwDZ3dcAiRXRpaarGWJLiN1/kGsg3m9lQWdNLpYm3q47+3shSKniIrtRAKggWJEjczVdueuA2rPgWLuztNHcgG2OFie2zyfMlHMDAbD6fgyrDzngeOZ0z6lCWj2swoT4I8DkCOmErrUYooahckoTN0HsqC43nGMlNpcCy6PVxIO7f9Qq2e2KrbGPm8bRc/yr4RV1K5urNNKIogCoqtPKXtFB5/0i2442dK2XVWdDXbnlVOVelJj6mJfRTojAXi5Nz5O9ACbpO+iYaiAy8xsM5aCQ8EFxwRC3A/u1StkX+5vkmvWuWEY+K7nmSkPUBGa/TAVwEgxG/Tqd8U30H4FNj1nWJXihmZ7+piWoZGAwG+hnxJc904XYYA/Eng7zlxuhB37LaLdlLOOT5yhXiL0yihVV0ozCvIHxTombkLgrhdllg7Nu8vHX1NvA01SWxqQ2eK9fJ/7X52JI7ibhhG4vzUZq9NMVWeCxqsiof8U0Tts66DBm1M0ytxg49eeNdYPwijNKq+nsM/euOYxCrq9FmKMFcczeZIW34SUYstNT1aPI5RvEmreaHl+CK5VLX63tjhQYPyyl676pT6bJVkTBzN7XsuE7XdD+bBA9g5ZO+Xdc2sy4mWHmSgSLMW5kNfTT3fhy1PuYdvAg904QRgeMK9P4gkJGYqNB4uqwt6DnhJIIPtr+uECEWLPxvvFanY/4pUaF6mjhh5wOid9I/15jZE2mPgiBLWDZl1WaJNPllGGpzk/udr740aQ2xJCgJQX44gQJEtbI8dkm30NHB1K0jqcXkl72khac4dv/n2YKmGUICAgRwY19MALJovAALRGb9zfKaWLnXlHfpREoN0wBDN3DujuuARt2htWOOmutzmuSf6iceL3b24V2JmpvSsUUvQwnJnrccdyUK7/KryBPgPgNyh1EGLu/knmKvTxY1idf7TLBAXbajylttTBrN53SwfC7GQEyhX49TOTF60iPA7l3+iUxTTwz/UKGao/iMd/IkyDzUAGIlv9TPpBtqkwl2uFfCmxyEaWIotitvoN7fiR/hsoVDRrhgPzyCp3TNXPOYT6kduablxl/eL6ja0oZjhAMULETG3B6zKPFCIxVqMFaH3pMMG3T9EJt1WyM3IkSTMl2Dmgrb7BTc3YiUZ7F1M4LzEQpbMoovIkt5ITFIWWNsEr6yaQDTRBEsU5ooAuB/NhjiHyaC3Lc4/QJScBvCkGqX4WTnzDEhkOHb+fSy3J8WEzhT/R8o/J5lZ6kIw/le+sj8MSNp+zdd+mhhZdy0H80GBnrqt3dHCVgMIgybFJsq4Nl4cce8fXeebNIXDZC+m3fOttZ584YCu8yL4I1Z3U/3UrpKoLYhsmshpKLo85Ex8xerBeAX/TjYRSf5HcraDsDfqcQRCv2J6Rwbft4b1GWOHcQi9e6UsbZN+TH7CDQj8NVdZpEbSKNFqMscenJ90kYDLXg5I+HAkFOg++TM3W+T/cB6AHW+dy+ycI9VsI4QW75usMrFfY9V7oo3vaOZscg0edIwJeXN4i5aLC6RgAYuKtddZlyzQMXvZLhyKtymerHsqIsjYfk7UV9cP/I5litqD3uL/12AuRb3eEK5Dbt3xZqhqFe/sTbNakyGo3oHgtknp1Hls1bOXbQHWkvJe52UwN/Du8Y1DzUZNlyxJy0uxn+tn0vbTSbOyyvn5w+wLdBs928BESUgT20qTequTDwMVltDFYM6sVhTqbzWNMb3kYMoCv9fpyHisjXfTbi5xYPvAk5S5bJ3VWKT9nHgoiNcY6tZ+rweA/kpHNNwtxr8z+2uMMnYe0xn9jAtt+fVI9Srcnje/BE4wzj3tFnxrFiuNbLsa6MnpvTS6KxqEnDn7g01xLjBEygia+PGRhHQwJQOe15wM/m3DRti5ubF8ihoG4tnsWpI3P0W574BUMD4ibWF1g+PTI4gXDKVGmcz/KwgthHonurGB6N+5TyVDDnlpKajF47I/haJ8SvDuanKKx5H4vqGBUs71TDHwhe8Y9rPxaB8W/susEKamljGZcuTyOo1XKiTyWFzQAmsHauq258Lad+HEQbzDRywmgdOKaN5H8KbOMFGK4ZH13GUsl83AdXktfsEyRN3CghLnafL66/xwfMWEZ8bup25UVr+2y3vy2TMLRaBPSur/4wD/a1piF+ce6ohY63KK3lZ+rAfn5/jZOOw47fHystpRhfKvpws9Z7Mie++/RsCoBl237MD3KxxCPu7hTZhJTwq5DqSmHctqSyR0p0M1RUKxKOkDIM7IwV2rOYQIpEWdaquEdOA+cXpKydivm+o3AwBgaLPYNkmQAADmpWYKsBWkV3rgL6gG0e8kClu681aduIZSSLA+GqvRu9GU1Xgp8mxPbIhZo7ks5mF2JqYpHYsV5wQ/WQDtsM5aABYGk0jaAiV4/w1JlrYkBrbgXswv408QywBp6/fXLCVoclIb/71pmsfMB0goXwV3idAjd4ZqDd+v1MnZrmJ2xVB3T+i3hsftNuKVYMV/VXbq4hXHku22nS68qT1OrnN9Ohk3ayHLja+fGFsOVatIfFseWBhKA1z3ZzH0kFchxXH5QJywGz9NVo7n3X9k4GNG9jEgHwEAZ25QVRtknKILIdv7MmSmn/vWDEXaP2SQzd5/NvxCD4mwK6Bzoo8jBqik8YCLffQds/33F2GGfHKp7tkc5lDdoyyWCC+/4biWwy/Y7Vr5Fb7QchYiFT7566U0w8Ahn8GvgmNbfQzFss37eoRbfoKP+A9ZMmoTcEv1atfAEUmgbn4sriq1Fht2QtsRPi26dT7/m8aa5/9XhQ0CAU6FHUU2XljRQJpJdPljo29yqlSUScKqoD/4IVppjlANiIJeY/xs+vvKgDJ0bxJxqAQavE8sys9aWkOJbIQdwIb0/SYSMMO424XLGZdV/yTG+lBOIq8sau2+Dgn4nDTydRtuu1MAUBrPv2MbA8qtoik7eysHCYYD++5x6MzDvgtiszM6mBaLcglbsfKO3dMKXgbjG1GM2NM4vYTHKHLy1GihIgbmlht5IPNZ2unHHg5mKp8YZ0Nd0isvM/EClwenAJW7iS/XpvN86Gtj5batn1aDJAXRURi8Z4+eLdH9HQg6xRUSfjCkcdOz5/dnEDrvJJqegT/ugepZDhI3d9Ug5vN5nSPoE1Rhm31A4rNdhKVLzA16LgMespVABz+zr7My/KolrZbImQeuSkjKDKmpPv8TtrUsB2QL2V5Hx0LOf9+N2JHNDP10hT0cgo7VbD+15yXy+6dyhj26joHqaXULr9g+DnfkCpW72uxdWjOizWO1LuObJWBMAjW0NY6YaafQJMK/GL783UZCl/Cuns7Ryb85AFGd33hHofY5dHv/x63670um7NAvLXotkIwNkM5C5oidxnpLoQs0p0DA2FB3PDmounT8SOm05W7+Fvvo6VYOUwehaGFlRFIoAOyRS87G1ThZwJUZ5//PSfzFt3P41LRAKcIdQV+ppOjisNmXJ8W6mcgU5Mkkk0MpVjnn8u5V7UcdJhEA6kodZifKzyZsRUfxIioDqDju3I4Ao2HQtD3WWwtMEceqHKdhCH91iCOukumZFpH+88+P9Q+mJhzRGxlvwP0Dz00rDBVR+NYY7QffpNdaaEqeZKDPTx4czUPxDQpkwB8vSQfBCOhUbpk0Rm/IHAzsSGvE4GBCq6JWvV9uQKFr7LoIcF7R9nJdkq6Yj1OX83h8dAVak9dziD1tpjrAKyOIXGjnYOND3ddjxI4fORV1pgTIj0cnGUI5rJxursqN800Z/ms7uRJkJhE9g+TRbh4QXcrPm8gyS8v/d5nAhiXuGunJVsCdYqtSrVGnc3W5TC2H5Jue6vZ2NzaXi3VQBumYY1f2dke5904s5R0NQ1v7IY3lu08cGeqZSAS3Lo93cC4ois7SdA1X5teu7DLQZZXVwv1KslqTPX3wlwqMHoJcECpif2CWwk/ev/93IO9eGZJPkwxu5bsyyHCeuZ1zb3hTU2aevuvhaIKVJq009YSP8cIueNtEJ9F9CVo65lFojTAQkyHpJZrG9PfhksIFp48zMiQgoWfZv5yoSeB3+Ivh117zIdYUHqryAOm39LG/Fk+V46YKeU2juaLYMqKQTlmNwJLuInK4Fd5JZh/pXqD2KUV4DfHeDC8rUUD5FIRkJbKM5j322Bb8S/SNiiUsSnBRQNu+DdIiaoSOQPhoeirVUMS8PJCtYAHykK22BOklQdAAB759InYgWCfXpqGCobE+c9QK7CnxMxQKVH+Kzzr1C6kA6msAXoqg6LBBwCOEnKQT4a7mGOpXkUE4JC7mEbRyCQtRjSmULcmY9NZySgvhv9ZAUaU9gQZCBJy6C1j7w3C5hTcda9HLu/Zjyqr+uJ2eEj5P5JK+tBhcidybKHVTZSl9tnnuzX/xdjqiKPZnx/gMd5AjQ+3kTOB0a/NMwfhmmFmsOvO6xbxTl2qBfzSxU+FvNvsZr7rXUF0vA3lPg3p/k8WrXGnfboXicaAzDnVb7HiO1+OSS0nXIV3RXmRYXOMe86drMkxA+E4QQOGzNAea1MBbEZZPhtpwtbh8Th1v9hsnOj/wteMo1fIBw1lbljyWlPcxx2gnuwNhEpUyhWuq5r0NYrDP+sRFOVm2OWYXo550hpsrTjDppb5vy9nXazvFZsU/Gm3K000IrLbg7YqzNwChUSmgYtLjzPsWG+hbVyoC+hfLjLVKtXYT14/Aq1L1H9d2iTq4keMNaFDdWw8nLbW3tD9FB/nr937zkA/WAdxdIjeaDDyZd8YtJWx4QVL+yHgelXDR1T/PS1ou5QO05HcXN7109ecorxfkn9voK7Rw+TxN/qL0q7+xFeelYPaBNU7LRdA/NBeiDPmWbnlOxlr1ZA1VJdra6a4lm4HXuhIHJ9YlVHnDB+1vwrf6Bl29xulc/XNJNXfmf+bX+MmtLeC6GPEK391mvIlZpDgcbLWe2UPsOdmYZBSg9rjkSH+628288eJl/o9Qu5qt/BcqMnhfx/C4XK6nDgZX9Ty8KFrRDw5mRoC3zcO/usRbx6CiHJGXsB6szR5yZF1RwlIZucjHzZm27/zYVRJ24QVwNz3m0sAGZNdmQug2XE6gyD7cGEsBRQcvvXGmIZ8GkcIDmWbV18r8t8yrnQ93dycvKOfNZmABdXBoThTtYHv2nabUt2DyI0BHaldsmcTuW/u8uqRt4UZCK3uq48fcySQDoEN0dzj/1wXpDdrOynQMhQGzBRgHxq7Sl01p19gAbkC4efeU3T2y7l6xPg85IU0irFQzMzEFmeg8JesjVt03MOyPiFWqQtOD8voVXTLgowot9PyV52MolcnqdnF7Ca6le8m/gAp+2A42S9IlbDYIC9VVkkYQ/DrkKRO6CSXLJ9NRdk8bkks7cXJA2tIyJwCtjoOAbvty0Wqfm0V+LHbWouphmXHBrv29FEzG7v6TLRvp11yrFmKNbo/LKrfW22lb+inWGi/mVtY6gEHUwIu7mVhhKv1t2tuB5mLa2BF7IFBp5qG6kN40jd360IF+QCf+/cLhdVM6sIbP6ZbFmvqG6qcyZ20Dbu9DytH89qJY3fGDb5O+lzKvHJ29VnDFek86Rs3sd8S0lkklbOKIKtShJUgHJj9mxQ5vdkM4skR+FZ+dZqVlzr+Ulum0+yw/Bd3jbsPUBi0rZmGCHqvQFZDNMUryjdT4HuKd8+MvH4YU0Bw1ui9/xSF14QFEZfFYf0pSGsxyH8L7nj3jPsT4DRoM6JlYuZAyg4PDSUI+xYyh/5X2VNA8N63lVU2zp5tXY5dVFs3ucvuOHNZtwKjKFF0kVdweuD038xHGPUUYyy5i5UcJfu0tutS+ucJfxswl0kNgldLpL94EtA3+h4r9Ur/jtxuIm6rQBRp8JkMr7GzzyFXJpzBLB5sV2Cz3ErgQm8KynFQHkG+tA5lE/MWK+wdV+rUPu9EjOyrlvqAaIbNrhf3tOeOPLJhBiubQ/Re8kM7zKIj3eUoX3BLAILXo/WrhckDdSx1FObQ8YJsKl+m4+7/R3dx+rU9nNA/bTsSIZpAIPOfw/4MBxHr0r6ynkPTMwcVxjPraoXb+lBZ5u696hjjt9mg4XvBW/mTVEIYK8TwSNsGiVX8PzTpl8SRBR9x08PAaRwx2T+uafg+j2cjzRTxeruURXJBTrjUT6ugVBNXuHbe7zyL8aXQlhhdmze/EwEU2kFFUmR2fwHE5GOIx5dtpu0FytZf9heuQfd6lm57V9l3dKZEq6lEsh6U3DwpPLQCz1mmx6T1nEUg6d9Ob63Kr53KiapdE8lCWP4AllfbQiNPN+JC+znaiLGR9w4WfOAG0ohlp+rbGfDoPgSg3x3vnmb+bGDCVDpoY01HlaWpAc/9tpIl0F6gW8Pwx641yBLZVkaBhG/QBoELlmjieCoyEBffuZRqTGS1jYeJeTUilxgZXXyY4tPU6ApYQwB0e32QX1JeQAReCG1EsIsbMQE6pUGA4fDmFOHLrfFIRbEXHjr8hKExwL5u7vf/9CsY77mjptB7BjFVinU1kXs25Juz6I7kZXokkTCUSt4Fk4wVnJ28FSewCrPJmFn3kF6IMh+l/OCCVcXpVsJKFVNmuLmTko8x4tKAWPQYG0CCvTPQZj1Wetqp+6G4GpW1AvliHOLQYbi0xpcL2fnbRfrS1tx+nTURafGNfLrOpyF/x6Uwsy3GxIQdbPL4cmwnfmKve+xfWi2NU8zAsqBgDzlJT2ZDNwW3nyWfw9S4L7LTHto+OP8Ecz3sT4+VJK3wd0GXX8YyG/59AYu9c+ZaBnEa9yJ0oNrlHO70oDN3oDITzwClEd4xdZqVMa2s6o44tv6boCtZYyAouG4SITfwHoQ8XHjxz5uEGaky63jx+1np0QwleU9bR+SKtzykwGWRyLxA8O4mtrPJOpHRISa6eqMxFcPmAMAgR3w1LHRgp9nsCES0FctKJ7Dw0gYdkQAf8uy8fzfgnj1d/b2/RSxTGUKy+HuhP4nT/UKuyOX5vjRKlX9I6SwVybCTgwn6wrymHyqSeqpIe4CqlIK7l87RQ6fjNjY0Rw4/wU17KtB04azJO/CAoQvwbcc8dD8UJGJslmc66oNRY0S0fkLNh2Q3g/S9znlD58GtM8laRtrGK7oCO9iwwEl6PTax+w2jP4NYsIeuXUIO0QHIpd81fe3U40BzsI2TGLlDKkf29/dXpkOiGkp/wLX2lh8xbtNHnIzQ1YMHNF5GQnHQ/ncfbRrYW7j2qhaQpkSPGXEqf0llpMZ7YvtwCcPMybh92Yx3a/bcRuu6tEeqifSfEKy8LDqPIF3iIwgKPf8sNQ8eyLyQVCMLKWX7XsxmcR8BnMpRo4C+xF/RpCA/91h8F2TXrg53HdPK07bBYdKf9XGsCToJuX4HObtwsJ9co/rLvTOB9H8qMbVAKK0CjMdlFb1bga7SLrGcwfITnUCCQDNAxdsnSkE2L9QWLVUPzQYTsETwXChxos5eHqjbUH9UXYzcDc6A6HgVPqC6iTjHD4KlRuAFEOmgkS0MvRc3NEhXFOYSwZvuqLN28DYXkt+5bGNwBoAdet/YlLuuGPq7C0L68nfP2lSbI98KYvLAw7U22zw95f8m+EZkYz0/3D4I4JGwmWQuNC6wIocdZC1BYACKBiP7sfzpPY3QniRFc4yTXzP6yVvdJisNYnAUNcZlox6MB2NKOl/UKS8iP00v5MDSi41cZ4WD9xPjn8x2wZ3YQvDKFgAvZ08SGQozwkXYtXxth9ofPwedGy+La+keOaT94i6Kr2lrz5YCY/o7BBi7eKKgulRSgGx4tKJ24gaVWdJRSQgUKKcUzxVG8j4U4yOjMg3OvIzAZrFnGyGeoxx27mYmTrMEhqjEcJ8Zkw8VGD6HYdAVPqNZNcLQ005/vTMUsd5QdZmI7KXr8h6XKF9hKmzLPN5tuGA5JT2EAb4czUHRju3RLE6JxQIeJZ61p4BYwZp5wPiKMjJv3nV+XCUlCX2GSG6/twjQVg4J0ZuYsdY9ApRs9ltnlsFhhjiiPScyRTrGut3IlySbb9jb2OdWNyzb/5qcF5D3NuAYswNparDcT1a37qWc9FzDFlnYkVw/MFTzLp4djif8fnMuRjKPBZGEixIS4Nm5v9xu9fi9V9cZfSRVe7u+A4dbUoc9DcHeG7N9NUSOz/BIW0NJuvRxx+4K9Pffp3FkHp1iXdjMPHaiAuzFSk4yoPL5wJb2ZDuv257T3qvx+FEmcPY6SwcQ7gxekvu+n9AY0xVeVY8Ua3PpiQ2SV6dK4NgyaDibZZ1t206FyFRr4+e4cFVhFDii46X1FC+uUFoebMdB2f8cyY73S6cPtxcolSXSAN9bNNLt+f9Tny8X23HbZzv21H+fnXRG5v3Y3K37xUMXUkYVFE2vADbxqp1knAhQEER+NIRwRZuO+PBeLV0QrZL3GW5/CdgxnXUODl7IcK+KHhe3wmHL8O7HToBFsFjDNFTsk2Tcnim/Qmqtbn2US3tR/dUF8ij5zFG6dHgjoNGh7zRtQBguRJGTEEtm2VqoO2HM7yr5b7X1f7oVu+DNnSqGQbRJbjHc0jRqN/XqfkHqTgv/KfLkzoa2E5J7DmFXAbIUkatH+ywQKWM3pUHRyh/5RKz75+En7jCvwKakxheGIPDa/hWw5IPXonXxhIZ1zMSuyLmoP3Rt/thwedTTOhVQ+ezdGWG28RTLj2E69+Kax5vH8JO8FoYBosgSIBCDV3S92ymaGbnYWdjIYSs9BDiE70BZmV1xjrV2dwOP+gV7T4Y4A6UVOU6YuYpHNcF5BqfigAMnLCzHoyjggUKg7fAGewLeXXXS8ihoXTVkDoYbnkq/k81//RuUlTgpbuarTPf65y7qZ1nxHZBnkyR7ZeVdeN0OhrXb8v00GqRPuEg0N2vDtRvUshLch0LodaundEEdb8CteUxd8+LeXzu9ggYICtr0SR1vNIl/yitqbDzd8UrIewodU09i70r9QIWx1Nxy23lCsgVqVJG9u2WcvWuoWtq46Rl63KMfr8m3++NxAFQjPLq92CJ1B5wuznebwcN72KMrLiYJcTuazr6XdJwCTPtWnyTVWR4uLaFGHMYFWebzd4kini4zNtKojByM+336W6rbKbZ17yjSb7hbS83qnmS/ArGt/MWCTsdGDnyUjs+e9Y2XcD8uM5UMzuBs62PnE6tDDFcJhTvc1AWLH57C19OP3NolpRQMWwudyHDC1d/oKpfr1RU0NQPEpxad9AxY0B7lf6eTs6JMEixvsI9EQbz2CWetwHfshNFZ5YSS6mmT0Me7+QdymHeBhygv2hK0mpnuSspcBxye/f61fw9GQ0EAnUIKRa7UR041NxkmZXR62NuaGGxg/aS7t+aBMSdlpHuZYF3v6KIhqMZr9quZozeoCbWBP01v3YUT2jDMp1/i2m1AiI0pbo90lIYlDqTseiAhCvRVJWHfRcmr0mr0p6wvOkaB2KE2X7puxVWwZGep73T4xc/gct3JJVRQDKlQerbrdOGKfiTtSb9P4FiKQUf0lf0jF7FhsRCDNKxl0SeoQ5cv+7MLrY5iJySGHOdQ+ycSOiX50113PKatbJffBc+s+mrtB0u2ce7avHTpC9X5HSNKZ8PV3GEoYWYfKDUysNsFoHETpyPk0Xd5stHS0kDaiugp5LB7TENBirIgENJy+DGIjr24Xr2CCeHE8zgpafbfzRcOMkHsCj9kFmoQt3Ne5sinscN/WpwWX/joZ5ZAR+TjYID/m0lm5KvzWI/iDpzeB2xx4guavS0N8LXzJPfic/0HIegK0L6ozTQi1dWO7oUsCcadv1uPR+86jIuxb2YfW/OPhs1uDtoxZ3E1TaIGGhTB7YcrMxvRqdYHYTqL90QPjPskKBMM/cx5seLlgfucTKKpQNN02yo+0n6WQD7YwphkZ5dK4ZmkGru3h+zzBfFOGp0ApYEG+ysOleCrQZLHePlO9nNpjC1r+NiuLCQ/Q4pVBCESXTJpiWxchyuh+rK6i7gqwCwDUv8q7GYfS8YNsCCE+Nf0wVBrZWo/tfnVMxsSEZFgzS5lXExDghqcwn9yW0JJDD8/9tEi8GyLe5RlaarF9oCX4WvWuDnTr+QIX/9PXE/9VrLLpbDIRZX01hvRAfLUr4HIuX1+5SvRXz3ifPvLsdgQDSpZICaOk+jO4V5WF9RzUiB0VOBNfCuJblWaBfAMr1WOpcznkge2OCuxmJSQVSdu448ur9cz1q1K3K4cWajDq6+IxUxyT8cRFIHwKq8NdTSVLQRG/wkZSRGiJC9P8WUXk6pXBzMm575tQejwM/C+5lW3mIVWBY8L/V4LsdEBcpwY/fFsjfIcUDUQYN4hl+oadXZJHcSHTdAfpIknl2AMR836PuWOPWnk0E8YFslcFSnbOyjUvSbu4vySgZUHiSmQ3zzN/dGAVAR+Zd3MiLDNcRAW5yXtmcOpijtAAQDfHirPRaGZfAkNhxFVfGLV1KNTkbKFADQ9BcCW4Hr66fOpc1HYL3+Oif5AMVrUle+y92G5Hoto/l+3Xb/ur0VRNp71whwv+97KwEHbudebym4yXKAPsexjqFGQ+tT3g9oxgsvMceej1xdKoGleo7GoPSU7FFWBZO9OjppRipy/REGQpCgu0kfR4MBdt45vv8nFaOFNWfQglgkn9SEuU+8ioS43uP4hVTveeiLKFd+zSI1aqTkeKHApciCO26Wtqfs8hfb1iUZatCIPJawA+pqmLffUa3BAbVWdl2gNUdq5ccoBCXfZ+U3lx8dt4q/UiHu27hpO2SRpiXAYqdW211kym5lCYk39wJHRerzOlmP9jsBPaHO/XrdQRL2OOr3M8W+qjYO+Zh1/WbBvVOOflqc90vC8ibHhUR6kQyKRtWnyobcKaS1mKsna90Td9j9ZXsqGFlq+pzekNdEoNiUtoQiCqFrhAOyqafp2aSsZ90uuinHez1032N8R9rJb9Nrc6v8irncn6ugAF1sWUXSJcVowNdtrQzqWuhL06IrDjUUjklEV+PVeM2vxddYCcDqX6NjUhavOuqtDYshjyWK8HZL0tECJeiHoI8ZGWdbtPftl0xSWbeXIRz7ywwK+jBZ4BvoTXCo5YqiCqTqc/cL4tAHAksHJjCnkAy/8JYZRNvp3W3ce0ECcFO54f12UPEU0UM4BxlDCbJbJ7R+r1nZyYneld5kOxszrd7O0bYqSI86RKOSgZJjWV9pF1hdy2n4t1zbXtO/9rJhczJy5CXOOQtmdmOUbpqmsPZELV5avOnIvVyhOFRdd6ZwhTvdtatne9/cNO1ewYn2OLBgOoQtNRjOfFs+1TH9j6LO0++bGubsY2kOAYdMccg+a3ZuCwrybK09QxRgZaZdoT8uCi6+S4dAK4+p8qIKl71ITNCOQgmHWKwCpebYVyfv/u989Krld30JY0WjPQ2IBVOmak+vQ0IaFAN+dA9zkzH7/0or7k5kpMyDn8wH0At2YqY+BanmeaPzK4bPUbNMqIn9dJrSyTVw57d/KAgNYCt8E0uDaiHAMX6yZrhScoPIhbab7uBAHBVVbJ17As9tvCwhlpkgTimd/RNvVkZArUjXabijrS5+p6IcT1uSpnMuYof6yVAdxSUB984eqlpiDBpWxbU6ZvmywhEo3tIf6vELId4rSiSYrS846lEH3Y1piTQQY4FfzcLjK7752BVT7q1ttjh2cCtZIt5x5NPyEdBWWqmnaduj9alRHTvz2AeYX71jmKi7jC7V+T9v77anVFUgpkaFt7biALANtMPlH6P1zUEKfLrfaguU+9Y/pPiCNnueom/zI7rcyqKTVtd7fdgc1BfGGeG+ow6d68QfJxRo1T9kGVnR7oBKKqYSQPRWxh8X1UI4Jo98bOrXHjYb5zfsBOil46KAB51OQ+RdKFGP5UDPlosy6EvEYuRu4NWwwV4ymzLso6pGK1vnKpA9ek+pSm9vMl4J42KuL7FWWtcJzFgecSnSl5E46xeLvqmzS5LJiNUtk2K+ByeopFyfjNXfkK9ulzblu/6t/pV/aXTiFnjfdvIqfotnvuKAJXZ0IPSa0UdKRQmy4ilZwTFw+5pX1Ey1/sD6FnbDpZunHsKag9Xe+4OkJZBzH5howTlKIYy949ao9L4v1zR+BmfNTMzutAdGFif9CSSUevU9YJByit1RA59H/xAv8Aqy9KDy9OKdr0sOlCekA2QZ8XSIIssd/Xh2zRQ9VxULKGDCn4Gdyx2T/uF6/NTP1WWRO78MIAGT/25xzLL7KRjRLBcq1qEzIquwuFxhoRkT8zDKzynrjhPN0NmI9Q9jocXqUtdXTROFEoSCf3ke+n41xJi2yw79qda0t618WSaHWwSnMBIPt4adZanQ1pU+0WBEpGcEOMQR0NA4aUxqpkpDhQvAq9lfCC8dK8i286xXelXwynJ0GwuG/t8rtYSftmvXzZ0vTD9SAbAURWyoC7oRzpVwWhhk3bnhfJl+1Ofj48Shy0rZQpO1NHWSv4n/s9lirvS+1T6Cv5hl7zCNNfJZyPNoUB+PZAyWfr4pd4vxEJA4ai25BECDGKqf8Tl4b3t+Al8vHrrjRmQKM71TNNZdTGafm4tYbwekRP0WRRpNlnf0hN6OEUXTRe8c/QRqSjISYJZrw1+STJRZPAnSke46OdSH1NKs6I46+QoXxLnBRWYTcHXwBnUdUIp1VlWTRzDReAM1xe+GE+9KWSvtmuo2WEObA5GGW31z6AAeLHP4x7mf+YfrS28YguJh0S+reZLG2X8kz/T21WmrdR832d2QAEX4cOYMWKQLKSrJmjk+Yy5+Xuz8XBX0YzlwFWRAKtCJch4Q8EfTKVl1fSOOcwvxuE856yPwsYWuRHRNsWLMD+HQMhbkg/ov74e9+Wpny51hWNDP9xA3/Z0CknqvN8qWO2IdbPABo96z2xf6d4Apj8qfMbuwju1es7A9YHVdk4xMctFxak2HpuGTnAfeVKeSilD1j7UDDqOqklrHfHqkaLQFgKIzRqUtRgqInAnlbyeKlXtK0E4zkFC7yPePnK4EtL6h/r//EHWs2iWrAuOnFHb2jYOBUJuEvau6ETc4vT388Z0iAm6Mv/QJRsSJAvR4ESkdvFwtiLd4Y2ERTDkjANxR3y5VWOciBiyos5sV086/3wr3MSHE4gZfI5xsTV8Le0Ycv/+4eBG08/5cfPA0ZaFMfLE/PcgczRxntQ0EyvF9Z/1/UXAZpmo+OpgvsMSK2upZKq8qmTVo8RSXr5R8tMdTg3qPs4FwuJBEP1En+qPywemmwMtikysEFBwl54Tv8Xd9rtb4UfNqgGWT6nrBbzXmLcfj2WQGmL/9JfPGGvdYVrzSdhUHXne/xPWra9R4pgikiyMa1cUJsv6oUYTxmTpm7jJX11xM6dYfo4oBcagrIWp1fbTXLAlXx48RidevlDDCVHR1k/oIs2JrIRQiHP2I5d6GL9/tR1kmEyTIfT0MFT2W/ELv68zCOHwEgCix9jLa9fivTtBbWqAqYm1jLx0ivzWZaYhYfFoNB9a4yamSalaksjesYEoTnOBz2WMGmRvykmwEo0p3WVhpNn0+kjQfQBO8NzcF9Pw9DzP45aQ251tDC9QP/eEe/mc0RFBsNS5UkcuNhbPGROWwGRlNGxbOobzY5vu+I8XOVpw4/CC/1+eRf842n62EeqKRYy8NRVdDMn3LJuDxtI5sDANWd7Y/fw9yxRJPkfDqzj6uuY0F+uMl/DsE55hSJyOHwpTTtx+jEUovbTaVdbIdnf9tiuvEOgqHsp0SptU2gRN9tvAO1O09hFGuNDbLDV2eA3Y83plrEzAqOUwnMMmtGLQeVzOyEuTa8W48TmxU6inA7wonFxRFMt6hWqIL7VE/TVXEpROzXMwoABHs5awZlpLC14cefahExAMqgTRmOLXqzbQ5nQrry+wjjQI6eqDaw9RaKozZsJ33R9Cb/eCKcZuZba19t3iSKZbUfsDthDghNwE+nWp16V0boGM+w25lX4PbBkqQvWvIBOesFXXCGCjJdNRHMJ5oQjZEj7aXk6egqOZZH3WMuIY5LT9inbIkxK468nPoElfKjMOVJSWAgB1sz4wuRwJym9zBkX6zEMAh1whU04CrFYvAdvhHg0ZcL2e1v5TOhyejNiPOp3erhxVtm0u586GQ+8foHIrBk+fjK/aCOsnXf+cxbjs9W0UIttLEBWQ+mL1fdMswx4j1VsHEXGJp+pFCGDM3zvarq8Hnb+bXyOjk7rkQj3K6tu/AITZ2S7UYXLTVhIqwCGvvsWm873veaL1J57KhahbewWozgCDwuxgfzfBGsqfxD3W87UePxm/P9bHFo8uRD0PGhVKgTOJxA/4oqQ//a9x2OxznuxCcvsNVfKWEP3m7QF7riLWfYJqkH58SGjkgPwE61CQZjBxvs8fxdnPUe4yCFpI9GJqslxAzY5tCIjicyMvze8tM4EVqA6ejJN9GwwA9n/omQu4EfrLh16NBaWOtUVOrm1o7tDmFz13cQooK17wAGVP4TRWC5cpTfWlomC6MdJh0UedjF0j4u7+oTN6jM+RN9h4t1SapwQEbKByTEfPVjpSVrV0/m8Oh3ABdMRIf+4nOIXtOc75RxMAhj/g9Wt6gHYDfzNMojPxZvYpKX+VBavckFAnj95E2gXAARU1Y71f+MqPsKw3uits6NIgCppVZ4TJUnDwdmm4Zvx1Nhgbspa/tA4KagADVsnQ8v876HoB8BEAhkURgl8qmyQr33OquJZgTuNUd2hM/U+mEr9hNNkWRZdONH/pqyR5vlazr48J7IeJCS9npo9Xm9C4NS1QHQ4paQGmw8DBwl2aKxIc4yblwTr0O/VPwzp5Gy0RcKZ34j6aUv8cIVVsWZfkW2rOikozPbyi2YMsNX/L2EmUoOE5zGM+Xp/+WgvARAMkW+3S3VkIVIey6u0B+xMTdiD6vJGViYggpTHAAX2JXpi4iRT+FdlD86BsKetLXd8JrF0RLVJyNPSAthMjmp1l1RP5SW1NMDo7mn0XH6hINLTQnKCYhHtJWelGl/yeoKyUdFRW2vSbYCAkbQXQ97XEmcgMZ6C3nFdwtlEQJYqvQ+O8z4WnnsPxO0uUG1uLVS1vH3NMImU5wlEDYjMku0P8/M+ZIyE06gnreIYWZhO8ofcITSoF6CEj/aDo3dN4W9RWtXMSaQsAUbp5nCqyafy2ACyTbh97cDJlImh9HAQZRqVDSVAmPfA/FInvBDfI4TjF8UkGZX99qZFjYZo6pPumZL3SFS1A07nzwsN3pg2vAOwGA87gL5dJVLAFnEQhmc+BhQZAhAoDQ/O4qExp5XW3D25Dp0fSx9KzBJZk5QfGbU21DFsBgwhe3us4LcI6bt1bTXdf/XcMiFrpRzs742zsbSIKPnpypfD4RM5Ze0LRJPaLvX6roLYtg70+COame5t9+hOfwTsJDZeJciHxjOO/1ZhVb+xW1rO34syUNhTAARonMacfrRYG1+I4xveHdjxpSTV0l/hloqa34lVnmX9iwJQoVhMtBN52wj2YfI+rO09yBC9XvWX0s6tcprZ8NUIFRdQnj8ltxXK8inyVzu2hbT23RDHfjTIiY5XHD7qcvAXJkVl/lZzXlekHH4sIfNELK2Da7bla8X57/HkVxGsNdlxWjBcnzdLuJbE/FBlcvQmgOqqnL2SGFrCFqfAWf78X+3bstrrKCsMA961Eo5yYLRB0FGzNnLyMVmxDk6pgg8hFylkbT9Uoa4vs1CST7QsqR8x8Af58TqnDrzk++8h62067oR4RlB7E4sjf1NRmA+pnumO3cMec435+/S3napCL4R7xaU51gSd5MSINJAPuWGB7itPJaqkAf/N3sLruxL605sR+i27dL8mrsy300TXMS/RSJT2VLmz7Xtz6Q3t+fQl+pMtka0iO+srwvziAQ9ZZolp5/phICvY1cKjML5lURhMCH11Xtjl8WteUHTMJ9CjC1WlThy37lHBhDLBydq8IcK81LXAbbuMStBj6tFWLbB9bthnIx4RJMd/Srf0sQsXkutqjL/7LqpdT9hqUqskEvpiBlluMWwXdiAxRcl/W3ZCAsoWh+0HC5DeK2sPq8ItwUTOpya7BLLdNml4St9R0MMZ5K9eeX9pM826DIXR35lG0Fa2cC9QXoYOs4M6UGD3dq2W6Tu4hOLeSh5WGJ5jeJWH+O/ojSOKNutWlMCw9vR92j6r4HRmgLFCkggjdWEQ2aucoez+IJol3xbNJHaoltfLzinWMnWN/EjTtDXobx2ju+fmFHUdKveRdgtwlo0dxX4CFXF1V8jbvfcVEjWSwLIhsKKkdqUMx1+oOHh+EOOIu/mEWjpRTay7d48pmAq35yFF2oY5WDI8LWgjAnP0vFfELbWsAMJ5IELT9oQJuk0hrw/nW6hVBB5dhYubJ6Y65DG4/JU8B0yy2P7KGYaD9JkbEGDsPWedqlXR5nDj4lHCUwDHASXtb8DTwwi0syvtZhRY5XYQ65BEpb+SX/YpbWxkf9Dvx4eImE4b14IVLtpyadYROXRAO0cMXSmyIQdeX3KLQizyHKdjNSO1YNB9dPd8qdw7PfzgY+hJJicFMt8yRIghKEpP9ohXFecFyNTUCHfbf9EJ1fE5j+mXKRVEX89pHcsxMx3A5GlKiV7CDeQ+OK0c7dYZeCpm4N/Z4P8KHeUMEK8uOP3XoRvkIAyIHtKGd9wm51bKxnO8cu/HSgOOVer/nB6auiuM7jZU8wv3LXnqCd0DokPNa8tFBhU3CP6Q6f3OkY5yGi9M3Y7b+BOnykLe7AHFJFeTniWMXjUpEDc2YSR1ehPzQ1NWv2u95jyFfKjk6p3AuB4gq5bf1dqo4PRf6eQuizCfEjAaiepP4hAIirV39xElAUMnXQyjb4BPDgIjKi/lTmA5Ega+rlpuPvjyvdM7NnvwMxqhKT6xk/RMjfsgEdkFvwB29Clg2K8f1Gpg5v7Ml1Rnmi3p3dgt35ulaXIDl5xUv5F9NchZH9cj4F30qF96QVVJdU8O+Mz3CebVEc3N0V/yCYSCx8ZZ6Dm5xpSZa4m9iIk/ixSkkyPK+/ed66dD6NXws7V1sJogVONQ32uqCJ8VxMnlLe1e5JlvGb/ZzZKbphPoL0dfixAPc0E1VA3gTxJg4wKIqBCqcy0MsmKJz7OK82BTgPlnDfmwCxghbz0mnEtupBIv+Qa/L/pc/VO5Va3DQ8+JY8cpYzcf6GuMXSQPtR0wRyY6bWxOl2vMA9wrhDqsnZyKywLPnnnwp3m+AWu6rcdTz+r+Dgx0gORmbuqiLDqQzpQ9okenRxLC6dLc2+hcn867b92z7YLI8kjwMAnISicwxCk/a4rayz9sA//CgL6LLZfmIWJCl17ngSjSXQU9fxHdJzhnBiJOsAui61zlnDKe+HWUtTK+Yo5ByQ8qKwXhTl+e6g0dmXbB60M2kkRMMyMzVk9irgBFWb5X/jtq2gwl9hJ993pE8XK1DooVHDT3CkdVwq3j7oV1foTcD9PBzOu4qi6KJgC0VjonhAkoT88c6qRXaINDGwqzPCQr+WKdF/Rxaj1R35bzVcfVYWEj5Eq5TXJ6KDJ5w3xneFQo9BIVwIKvjErq63TPVVmHY5gZ0w1g4c4el7G3iqim74frYnZ90gvbAE4RASPItxqSX1xPgqNiw5jMaRjvw9KW8rMa0nqHToIu0nSOxXdp+b68ikOHGzJztKiXKrs5EXYxjtoVRcrVvvgshJwu8iE/awK0vbnb2lCGIs3uA7luaTllswDt0+nuiVMOBwAkNRy2vz2WTtQVXwddj8d1zv/DR7QATCFQAN8vZEeCtzr506daRmMQpuuOcgjM2v1pT5AmhBcMPIXVSq5UCumeREdBSzN2K87hWk7P/ix7iFRX+3pKiYYx/nOPugj/jOmbz9NYmtpBE4EINUaUKx3A8pAO+4S2NAms5EfVSgYLOPCoEzBSN+Wzqfr5BFFZMjixRR4PmiTtvkMqsZxqg512gI7YMy99TAZwpA7X0h27pPEBHop+f/ZD+uRwKHiP2Gkc8sqT20LKlOBRjupm/bJ0akO8dTTofOsGcgQdd2jF+PBF9a1UnkmWcLlrpzuKgcqN2s1pIv9Q+7Q56LniAye3ExPSCWiiLt2dlJnOKROnesGNnsBsLmfvWfV27EGeochyLgfZDqV8+C7+rS62BphVjIcsGZ1PlmK0AZXXfnJfUjX3EBWobWMeTALvOuabSDbGYOTKTnooYsn6sFM5yLhcduc2uIIOBXKQ77T7JWikRywqGlFqnHBePDxSuNzNu+EGwkLJZK1T4CglqfaEJvCmbeTmFKl0QDRBGBhdocJA5BSVlPhUBr+EGWSUm3whP/qus/1soy3Gg3mXfdByGwazp4E5mfypUQI9IgxsPJm87+cLUkXuLbXCuN/NI+hWUtcEWMeMlbYm3SY+jptE+ELaax88DSuzHeMA+L5JGSwKndKN2y50/ktMRGCX3A6h6mdaF5p3hF6htRNy1jVJxXYRs6cSVZ8o9Fv2K7Tm6zqXy0oPomb3ARYlUr7xDKBe1vS/FHbRaWGQNoILnsqLGBNuGq8oTgr894cB3CJIh0wE+xlIKrD3TYwm+MdDZar9t6Ypd1LkivIK8Z7ypgrbeR45DawRxlO+JOilsTxunSWedXJjkfP/bU7tXPOljmlEv1X+AQdtVpm7bUnrGFVC9BnbktmPbIY+LDAJwqbt3BmJDxDX5FUcSHjjUkpKMfEOtTMQTKLHioCMdZNFOI9hXuOK774GNsi01fKARfgsafuSALFFn8mzkhjid/4AEkgZz+Jz0lBb6p+cgN5KJHYciNmlwPAl3c9FJwWlNyC7WngQr6xJCa2o2bbqPb6uuwg2QT6/E1i3CQwIz/h0NZ7G91NSaml2a7ZlBsmKbr/aD8yEK6KVHuFG9iCxaxY1L+glzulPNe+jpwqWtN6oXOsgPIO0oQJH5Lv2ODkWzi/qmPkN2j401rjA0ebzAzgkSh1zw6P6aVskxTxLo9iFBFyzVnB8BJQUQIvzzFUGqbwmHeJ4GfwcRQIfE1z8UqF8SkSz2cVFkJyIqKQ3aZT0tE7CjB/H5Ae5PX/zJATbWSiMfmqrjEC1FfYV2ftBBsRLeaVCgmnrW5Fe3LLMy7rnH7INfKj22WqAJxvqqC3yD8mdD+a6o3px/wP2s8znSV9tMXCl9muu8kg/AGWvv9SipUlkeDuoElcWuFqafGgDDY60EOdaihcvXZp9p39Ca21sqKD+lbI2+VsYBJu7DJ6iDrNDNSFXcWufk/YLpu0yaQFO7w5vje8Wl2soLWwkK3ZYhUfOAATaMmDHIX7g+WKxB4oxl0YXPUhjgGomGxYct9zjlshqt22RSybtMDILKiYDgkjWuof1eCvra9w4dLnzYbf1fbnNCNPcxL9QTLsrt3U5+IVMTxHJnNNPIY8AKU416dgDJbdJX7rMoVEBa992U4SCYlyytcC76Me6V5DuMyh9bCWq3WR6Y7j1KbUXt28hoT+PPRjuh9wFUOnpvyfRh3U5cFRCTzI05ZzpyDV/bHlpSYhYIDsce3cwfrADqsUMYOg9IL2yf+exNZbdPe2o4eSXgX6y7nmJ6NndpS9Ttf8DDh2Mo5bn6a25ewlhMWELCE4xmotjApJ3G3otuA3J9t8ggNmehyxVd8FFFYqkOwQ3tt8QxaAPSX/vagy3IsPdTM5PuIi+0Ppt633xu1mVb7YsCQuuZltnbMyUG9SSXPyDKIsU2bZC8m/L8oXxEb1Sx7pKaM9j4E3u9VCulSCtL6XAA6JMkWtPc4h4Wo3D8YyMOvIpowcu9lHwEmqcC465ua/LyEDWxnP9+PqtQXWn870MjVih+wwv/g7zhpsE+/UziOc67dn9dMYeITD10T7nFGbL1fn42TUA1kioVGe62761I5oh4GXKhlHviXbIlP/3J4BZQ/IGje3irXgem5fgTvHrhKsSIeUlGttlN8gVhWmXmtCDje+N/Nqm/7P6YCB7+85/avcEedxFVaLJ3FHhNs6og4LSdW3f/AUTEn53R71mV2/Dme75MAo+MmijpJTV3THw96tyfymI8nN6UALhSUQcNYzS2H92Nc3b7RvfRMSgGT2HaCMfoQI5xJ4rYhvjWr8rLcIJpmUkOUruvAfHNrgPVPUqXkJuoGF6xES8WWSpII8EPOTsbYqiclYshHqlKg2LHjQNVbJ4gh/rQI9kbcy4WSn0DK2BRo4TbNMCofjXg4JGeBD/3mZNLuwfiXm7rQEoxznC52zJp6dpVyqyapq7Ti2XJ+ipjYF/N+8c6JciboDH5M1YaSVIIHyjH52QADx2PP3x+U8PQwepvYazNHrgU4G4fM73tasdRTc787W1y6i8LHn18NUy22bKhGozrWPSzjX8AhjJBR+HZ2XcFWElVbWRltt9O9oCVLQoSMnrMIDEdUGQhhY8acGv67LcEHOhrdeTvu/54Mo6r/kicgj1JZO3MvUuTBEgY4Jc12a6Iy8A8mWTFWKkg2tO4NyWUORON0tOB0piyIkOXRRukzCLT1Bf458yUkE9o/dlr6uzc2qtLwHeN5ypYyrRkRWDJ0Mf0L6abvRNXBwkhBg2orEjoEJ+FPhNn7rA8BHgVlZsYY4gY+dle1V5McumvLMQVFOeUVKjFBt0s/4cpUbZrmiyB/L7RwdY3FdgDpJqGJM0iDBjiB4xovbwwojI2cri9dIJ+lV6u3+yBpYtQ29dlD6mBb/GF1U5gp8psDWRGlzIvYj8LOkoONCtaV9SacDrJTlHOzJxFhbr4dyACOQpo666yuX3+DQIQOwQ+CF81tztaEzdTAZ5T42wmNef1+g22HyQ6QN4ubg3E3YajLM3JirsYivGWuUde9lZp9dz25pB4w/Z7tXcZwip8znifoB8hIK1DApSgygwPGAr5d0CZDwK8AxZqZI8TGIHyv0Vk0p/C3lNv6zyaaTu019qZOzUKLqsnlMCckjjE/hnftDHTrIqnuGfYyPO0/QSXAv9073nhUEXZzzjE2X6BvZPzsEWmChycG47mNeDJUU0M9FlByE0TqDUoATKx9m2uE2QPPPwBsWy3KHRMHv1Nmxam1TGM0DK6xBoviFYdPnEy8h9aCxoiQHZtnBXM+9EACLNXB4uiX6+xlYvK1bFjyKUg3L0S4ay0mLpHouF6r9+SmB6xVf1xA/MKmjzXrauK03WDin59e1w8Ss9g/uj2Yg5vfcos25dv/VqB7Fdv8vUFSkDmG84/nvtC3j3oNPegSd9ODLxY6RW7AhpJ0yquYEnp80J8VT/fpyOwnn1kcQqaRRY83XsyBpZ3/bbGO1yXX5vY3NMlTUzPlSePsdnSSpnxjWNyZf/+ju524uqbm0JGoKwNTRstwhYVseSovnh29Zg4680Gr/4C8MGkC/VbOlHfb2lQk4vMqUYiEqufQCTdu4mwBkoCm++Bar9F8K4vC15P0xlViY9tUjzRCsQ85Ti/XaFEWsWUYZXFrEPuq/y4dv3cclWkVQMZwSDtJeCZc6MhjywuVgxipYmHXMnhbSuBBcYSQADJywnzhGzMVCOFKbK+Tsk0L+6Pno5Jrd1X1KNJ+AIemztkUKQcv/sIk7F9Hz4XOD8hHYZ11fAIKJ30oNgM3tywgiLCLxsCsTfOJJYGAI25odPwl9eQSib3LmH0bS46oM2XuIk7oujGkrk2hn5zLL6bNEDY5NBTWgqxLK/s4zEVrjxEL5tzv3WiA/GRF4M2IW9yKf2AC1/BIxIENmwFpS9Q/7YO4rg5mr6D9pyb4U5lQTiixD312e3cYWM03J7+iFIPtfGr9jktNWAfMqRcCF9zGwgzJgoQKwQmA89mhfQIopTI1Ydj2DDmx35fZSCgXSJcNEVm4aVBUzVUYd9C05QRkIaHx1bX7PG31wrqP2t3Ymx+VeUFJR4eL9+XTWV+VWhy3hBBaN1JNk2Xu2K4BG7dzL9g3W7/PseFIxiGXxC1Q7d1H9OhJ2OtOsiVQ1zDVa/UwWgJFSwQvah2sglYqXeEjpruqouds139I6R4wZCUhfc6vDzYeiRvZxOOI16r0VUQLYmZgnRwNSrEiS5+MzkvTgLx08nVXWYNRVJ1TLD3rXRj7vEis5bdhtZSIUtAXW4en+cR8pTqUntGiVsj95vANfYAEv6XPP3dnaXMI+A2x4PP1fDyR3I8kRxZ0z24ag3TZc3wlRRNFpyMPeu2MuDK5OJEtjFQE+QASIL9UOwm7W7JXEMCS4Aw1Q0ATvVC7jWSvvl78BlDBMlgbNURTgGWeBHskAEhdCZ4Y8xvlcoQjamghE4dzjknh73seOJG3UENWzwBwQb57uGtmlQKgUWN0xmxmTL8NqnZnSZh+8qlK+aAbhQ3OUrXoO+RiI3ghuqH8WMaKCPDKoaqP3a0IoMG6Aq9SRR3bOvuzyZMTyTZgJA5Am++YeNTCj6EKPzf06z+8PHmPtbK7BQye03Ma+Irun6orKlItzlbBpxckAgMaoGyEfVsuOML0KHy94UVIDDp34YOHJc9eIn5jGAakmOTfdKB7Y5dez7hrK51xrlxxrb1p+hJ9mvWBa4bpEicQkJ9Sf+QnithX5N6u/KgyuRCVmwciYw8sNeWI3iMpdzOi1GQDV0apZepaWAXxTSjvNlO2Dooz/Ze8xYz7FM7Uv40lx+W/Akw1yQuu0aC71illpoNEeRTU7rbAG8UAwsCNkD2swKtEx11fA6hcJNhpyQz+522Et8BRy6s127iI0dhn2PSHOYhq/Ke29trZWO8fLtJJx1/gufJVho0r3/Aj3O/t79Rsopo/HElkKHJhIe3GG5/JsowEDUAWd5nacGUXXJJQ6Mp+61hZBU+OqxRS7j8xiB2cg/V6oAOgeJUkARMih9UC3bu/h14o2jBBPYZa6TPfiPzzAt159e9RIbhmuYJDzBMX6o2VKGQkXSx2t+DZ1qO6v22Umd6UGi+HXruVwFm+vcULmjyrFOSZjNuHXTX69g/nMVINcnQY+wsyC6Kf5SV9+fEhgqr3r2TWB3ybHshSFrSLlbpAo5lYXSRNAfnshSKrQ4PfR8pOfMNpecmMHtM6a5golLyw8wT6WkJ7nbWLwQfSGW5MOtzOJdwfkYCOy2xZDLhQZkmX/eyTbwIMtkIVYmu+l/Cnfi9IPPGh96UiXU+Ap6GCS/FKP8uu9wVEU8cPiBYbubM4nYHMUyKDaFlXtyc6laab/HlMyACZU9xX8DhRQvJ+HMtEqvCzX6u/cU1InHZLDY9OSuI9ELzk0jKc6AT/ieNOFgM0z6j3wE3j1Qx1aTmP2cOVbrBj9exmhLECHYas9t5MYEg+74YIFCfz5AzmXqUBAQ8DaVn3GYNEWnla1uV2J2DGVGIQSrgPPTSuL4UGDNVy54nkaP0upmzZAwbpRH+jgwGQTkVpS/6lkstbJKiALk8AtTAgBk+Ynx9xpq204LzzI98OnSuUksBEDWd1Q3q0+qZAtG9wkGbCZfsZ8RPb09ImPDN7xqZdx/TUvqMu8HLpZSn+aOwpbY2Kn21UoNo38FEHd64iBzrIcOKZ8L5r5zxEZ5mHWnhwpSIP9X7AIQLEx6gy6iTtQgAtF/j2dBP737dHIsFjuDJqDqAwZtari4Lt2jroWMIlR9as1f2ez1ePJe0/UeXDS3+z2EYTWEWK7Fuk0Dl9Y7DFpA8FYASE3lP19XQZeHEe95pk2OW/ESi+7rSIxW1E4EdpllnbLeopGLJu9mJp1huuVzcYyYLCqNQq1Zbdv8IqqkF7I3oBliWX3Usf1vnDVBaeZg2f4aZeVv0qPpW9tV/hEFVzNb5F7JY1DpSEi9zk1lFLLQDFlaMGAYMXsMf7VJNMgfuC8tNjUU+WC/WjtW1+Y2HhFO0KI9oCgCP0qvL+unWYDslQd4JqhS6sqzZHxrqwwKycy9JU+wlgPbkOviHzg6PeQgYg0xxSEJgMtmvnaBa/0RNli+uWaAJKCPTEAVyyLjIvK58DPAUGgWZwoBIjmmfZhFhs52Nm2Dwo4LtGJP8KVC2+UjraK0rcgMsyJCm05o3V93fiHduuG1GB973qPYJDzvJJi6TkgTVGLQX9Wy8e459ZEzDNBFIhz6sTbT7df75dgUk3b77QZ5O9Bi/KJD4+hE0Z/X06sGi3xWCTkEOAA2cHXpFDFA8VzlAjPY2/+NWXKRfWAGIeH52NN+AAmTee0KEB7uJuWKnTOllpXebk4EKHZqZFnVpyB4BRX2UIftbrmVlI30g4K2+tL1HztiwlItKwimYLvQsvT1vtAaO8AhkC6Wqx9vgVB+qZcWGmtLyQiszS5jgZsOSBcBvEdIHJdRum/Ks5ykT/MYX/AnxA2TKH9uCkX1rlzP8PuSg+1hjnjFRREmLZNDQ5tI8h7G5B/qCBnuSXzsARZCyoBQiy4rOuF4O+haZkUKAFqkd4OCBIpelCrsHBbruafRYRRZ5QjvldxdTjOR/v8THL4fnbFf0Fq7JhAgBHmbK8WynEQdKil48TtFDe48jVN/9C4ll+6qlwJ4OG2PLl0+Ol4q7G5sLzfg3oydWM2uba4FJxOVeVxC0otLX/HWh5ArcXBrXapxJAXCOAxhIiLvdfy13TxJ9mIiacIlkH5vta4UIp62pNSqFG7U156YFyn9oY8b3V2pjKjtO3P6WaNUtqrtSz6319V3+/kAT0EE7KtOdCnvLlstoYva8zgws8eIbUgJw/tiuzijP2J3baiY3ITMomaXeyfru0JzEa8kM0rpymo3oqNLlYMWLH6dkrmk7IYuNsgJfrWNLsc5k3HBbw2ojwKXuy1a6ucVfLo6aSRlmInum7u13ikzL23T/X3ar8uPu6i0Uc0ZKRALgRGKXN19Icvj3fZYrmGs43zYGaKAey83mk3oGMZc1IDyH1t2mDVeP/6mir89wF0cEiTKtUaJHEJi1MZUGR5a3uFtZ6YI0SO7YG3FrNBWDIZYAIFbGlM2slVaBKxcg8rHp77RT5392nP1TVIMlN3CsrmLAMzwrKY2VSZPFEvwjkt4z5vSWweO7BVq1dDNbYYsfnsfxORL5ieNyuE/OFMC+NG5cIchM8sPfCkBxc32AK2gDUp9P0BEbIsOcKUcMF5JULSaqXPjvxBE/OGsD4rYYbZVMVe1HU887c9QmQ2NKCA3E/pTFleMHM+CI/kAKdPwsB6XpfYtDz+CHfjYldQcTzqZ8UO+W6m83/Q6tohs8CSqC73SAGEBg60evWJzRPYu0T3CDWhdpJ4X8QFDCB83T2Q0XpL924kTW6EPdwyaFu0A2v7gGqrtCvwMYAPUnqqZ3aj5Gy4LrLxMCWMWm7xY4z5yWpm4BRutqqc3ZlzTfVUYXRLE54DjmTuENuU3TX1U2azxa8U+9nNZYqIGtPTqUFpL5QnHaP9jTqL1q0gapycn256tmp5yAHwNLMEqWCmNv6PxTUuxR5KryJv80+DAz4Yx7LdyAEXNPVEusfeWYsD5axR6SUzaFRIKUNhwOzrAIRLkgHvCLJfYzkESSHHXhepHrZnmE55btymg0KfrBFDAn75RZ2YoWtubzaWVziIJQeZ3KIfCwl9kJUuSxva3xHXdFpKvzy0v0tPBf/sMLAs5t7puiu3QcUHpvj8r3papRoaPAHdYUzID4l0T+cz34OFbqqxgEosxSoKpUSKVcob3eZfELulEkJuR52vkg+BBuUrOObVnpr0iXHfzlxDPTvcivnf3WrPqbKj6U03VC5VYhFAwiTfOJGm/ahQGU2nIKEXzCdvRM6CJSel+eXrqKS5lJ0nRda/t93dwXKJrJe8wDQuOaAjHE2IU894gB33EZJjU1ahot784uhAWEwqVK9zLWkWGJqz1XtgVG4xWiBY5f32VZwjXnhPXp98BnCmPEalwjL+DWqpUzeKia2/aJd3sMR533WuE6yHZ+Wn+ETmoWn1apkMjPP4inxPpMlOw96UcXnAsXCETn6M0K4GcdtCCFW7WdjYmHrYPVZLmF9q8/8pbEhclsagmCBmqVBLEYK53Jayg/AE2d0EQ32ZYvtAOnz4IkVD9vINFamtf2VK7e1fQyn2gTcfKFOo8yo/Ao9TjvnemYnuHLqCx05e5xEGhbCRH1ktKYIVYgaHKQAoTF/MfhzbSGe12iPB72LdlhxC5HANG98ePqGbYB1TutGUTJto6bt7gzLsM+uYBR32DX/BIFOdyaNnwO2Cg/1+btbKpJg9oJWc5llIEPI54l1boatGv4ZDir38W8AdYNxtr914h4Jc7KlFrt6On0xVvhWxvwvM6rmxF5j9LMJOHhRM1M61zjr+1b4FudO0UuQnw2fjWZzzHni8Q2x8dYssHd/W9Cv1NNINmk5rrUU/27YCB1Cg5UPczQ7GW0L5jkngiO7sGugEb94/TUxfzemSPJ+ePB6CwmlNsyXfsuSzOrDd/6XFEFZ10VpTeJBmtBZoLnMgM6RZRTczAMHvHw0Nx58jUbVPe+csvuVzFK4h2Fam3f8vODKPWh7KTz3tvsF0MyrnucNxtB2nlE05p7RYj/i5BLWhdnHliL0PfOY266gOyg7ud3ocZPnfNghoDR/uxjKdwFYfoEin7TUprZs8zj3t/7GM0MHpDeM7OzkuetN/3YIsVlSEJo4de+ksk7zZ45zU/TiUn3fkGjZkKX0lBIbck/QrLsizQshkxKeiZ+NpXuRQIW6k8W/mLO7wipbao9z91i5mbXMy2Xa2rqc7mhte6QAglbpyXawnuImZufkzXB94UslQePQdjDXk8nzI9qFeMJzFz8o4BiXDVB3NVOIik3yc2ODHfuyYhhRH/Q7CWKAcXnAlNcusxZi3yFtIMAJKIfd5xsQ1IAwbmXGzzuRtuMQEjko6rG8ZvGs/UerWskGbRfpfPFCabUqbj5YhfVu5vf1JyvaeOlluikzSxGBT6OKDGdGQrcHEyvLfNnrrYudBoBJ3mVMTUkX5vlECuXG5ar/Og+rUTAB1YCja9yA71KcwF9YBtc8zmNEBqsh6gGUVdPDqRWfxKIF02KNzWn17XaoUGgD0LlZ4zIiRJ8x3APfCiJaOC/NiQ1hrHPeO57PFlpK70AyXFO3+uVXw2QQfBfk1/FXvhkEq85MjLjEcukr1QgaQ4eaOQ5+mZixCcO/K23veOfyLrQlSIao+1gthtzwhXSnWMSDsGHu4+8rfj5rQyXujLaFGH/6IJlZ0Kh11Mn1aNvgEOdNKT6//9ILwpISJwyOtCJd3vZRsQASMFoMZlzwb4AAx2dhXlUSzmToxH7U4WlFA+LnQVBEUzpxxYKMmZdsvlIlVxYmcULh+OQGjNrsaIPJM1quBllG9j9EkSxGySBBo9F0/vXNO81ySAXYiv3TEatnOqxhaMLMJQxG49PM9mvcSD0zhcSSieJUve6uK8/BkDb+TPauDEKd8dfOQp0uac0fjveRyNambZ1rkrut4Y7VblFf4ipECtesmm5R3JI0HE+7r4THl1PxkRZUfy95p59zWljYurrI8cHuc80VUdmGn76DubzkOJkD6VVrT2+ig3cwkZulD/lYYu4rs1i1QxAcBKd8i3jV9E70Z4EAMUiF6h62qAUGz20tJoHTHAamP5qvXHE6C8xZuFMB5Z1nl8odibC0DV72mwWVKs68vnIy/dtHdZbaYAlLloK5tXT0I5AAxZOXIEW/RYH7OK9Gn4KF5a2+3Rd2Hz2ppbFcmFMectyWwCHxfSwbq/ECZ2j8pMCH0kn7U6GgVaSNEfqs6fUOaUwmspAmQPwFNZz19S4T7f8a8XTFJl+Ev8Jb51/NIXWrqC56sk3WGsUgZJkVmFnuBO6Re9CJaRBi6/YJMQgS/aOUaBL6W2gDb2r8REU2rpbUsiBaf07A1pHHOEDrSjM6zi/vxjyDmC2s+jWr3jGZzsMPOlZ55PRNPJU4KyhEuMUEjM/3iGMogB3N0SgiQ0WcXFqAJ14qM/VBPWe5c+VVNVCHSuFAIfbgvOCkVqy1BVTlqXU5/iDb2qau26MRWG8QW6QpBJYFLPCoRALk5qHZoVQoPCwyudd2RcEZYpOiy7AbLKOaMNQmJZadlCpDRJmbgJvthQDMsqpekNRxHgaos+lOzD719poMriEVVIaADhcUrwdZcoC+8nThf9111Sth2F0W2zeuNfYsTVn8qWON78aCfGBZM/21YgaAsyXL9wQfyfYBIMLYczKcGVzPegMk9WtXcCTAFJfqx9/CWVsf4MQ6b57081c39ypIs6ww+c5j+3W4ZuyMkoXQSJKIYvt9wZHQ3B7Ndnax7XDsw2I+m41y2m7w4kZ4RMOB8d89dn1YbtW3wjcVoFbm45MONAtzUDr9Doiixwo5Wk/hAQOkpKXuYFkgJ2HF5acbfs9S9FUcdGaXp2niW4PAdvLCjh7SfQjQOQ8lBI+w7ZASKMdWvByj2CFCWPXALI1MZL4J6XkdQeytIrB6tohUUcAR+0fEJgLNYXjeoSQfJU44dMiijy6Uqn5T32+2hQXVAFCxuQY7GWZMSXCypCUSED8s74vB6LAbUqFNE7WxFTOaJIW1YRGwZMrFs/pGvPLkpKKDOwUTX9OAg3Tp7Q+A6JPG2ArLftB+Eoo4IpuS7HaYWck2uJpLGekQtUodW86+G82/KcWAtVXX70ZDueI+TyDH0vwryJP6wNFyT+9tpE19CYjSgxbOBbdOPPH+H/OLsnB7y/GYe9DRRgBU4EZtFKumMgKJJpnKAGgCP9dDdN5JhujmoyldStlsf8DZxGMtk5+Fbh6vWojaCo+npMn4t02qrS7z8MbdA0ioT/SdHUBEBhS5hx5I3IXhEb6eou8LKHra6Jg9UTDcgquDrBP+DGNLyCrVqmUZoHKIgQqXm8dWYq0nOgkZaL0a3eT6JIQCxFikDJaCXfKn6vTScI/0FycJvvbPmjrhM2uAdpDrJpFPNlLmyqp+RjJ2qyDMSAzXD1JCvw+5I05nEoneP2I/ekIfJsmv82kNtOIht5LTz1BuFDmeSrecOykvoNf6LhFq6vPV5JblwqcQR01uysoM8iQBxRs8GvS/HoUbuGVeQhetw786KT4dkLbEd2lz1PfjiepVhyPxyhgDao7SIEIQM7qfemiel8McYFSwSa8QeJJLaKJ719Vb2xwzqPf3rsLc0lxwMzhCwanpAjI9FtSus2FhEKAUXmg+t7HpPeVeRJx68Wx3ujnFveT3meprt6qQT8VjKiR4JMpbw948Uefk+bymJIYPydfmvTGQscemk+LIusd/izEeujJfQ5J1jxpCvj0T23gAuHETbqmxvixOIJ0zxUsZdmaFd6UatSW3EsYIYnlZzql6dDYe3omAcvUJKf8nY6yf4y9RIW7W+mtLPKbObnttmriXZ8mG3EjDHv5D8QOcJxdv52HtCN51E37XUXQ5qXFfYNi7LJUNYZCGEaKw6ofHubiOXkh/MgaFSz0wTdTcCIZEYO91QDchBJHjPpm6OQGaOhed2UUWUE4GcVMlReuzwzcqp8RYpRa8hcGT0x9MD5MVg3dZdAgZTDS4dVUignzZKgBlh0i/6YZJWoH6YkXU75fZBhcSmf0ODX38ldroHq6/6jFyeqVkA7JjMSqUujyGwPud6DtaRjG3uN0Nv7TToOQjVz4XA1yaEcJTxNfyB6zw1gezxJHCxwL46RHoIeoFKKRnHWcbIvSPQTGyeiZE/TIeehV9cL5yoMYZJ+VuSH59qbqiTgXGS+gNmJ2i4k/aMV3axs0UmEZE6IeBYhVH5qFS3StHsmhVnOUHW/IGS6aqr3kn/Oc8S1bWtmVMSqSGvq5xm1vg7h0sLMSAzDtGfRfWzJcTj7kqDGOFWBqJtN/BsDn/gkJkZ9dl3Z9xo8HwVcAJCkhW6TjMmgXRfKByEqlAiExqtgTkRWtkeJqssD9ZyyJR0CP5WdUCmE9/LVfq/rpNVGJg7bQv5d4WhDT/rDEpbCkBAwL76bvmuOhkKfxvy+uTsMWPPuKtgrV6klR8Jrn18bxhvGC7BGk/Cso8bRuCUIqJxu+ZfDoDyPU9vdtagMw52Hiz8BrVe6uwrFQEMMErkEqA32kv04uz13wET1t/MKC2qJAcGNXtppxHl94KXmjlt3X5Ysj03wSRnaS1IqyrFQFpcrEhQbwRPwtR/P/VU6grCMREDg7tQ4tdUkEMNFmwwYs8QG1XKbxhJ9lgly68NCq/V0GyJNUNOvQz11iIV9OWt38Xf3ubuXHJfo6Qh/7es3VHVy1PlpVADf3C/TONUSyKYj2AxTd5WwhQyTnQ5QDYD13yAFJekShxCBathk/OveWojO/BY35nboKswJhRDUbI7LFJQJceObA1RLe1tXNeVD6MyAstxoukomBZAEwD3Sl9PTbq1/fiswvqt+iW2i0K/RpvgS0VCsoDKPkQOEjL4v2AI0hoQIqHx5l7/YyFUgzXM5HEj975vj15AcQozJ+OWhyK1b6iiSSm8dIUejl7mC9dJFD5WTXYEHTn31jfZ/UJaspjdLRrZ/LlqCXUhHxYHV6ELN8XxLwoHwNTzuNfEmIZuWNipqgtGrtnNgKWa713As9gmLhXbBlgIk4GRU1iQM15mus0oq/O9dN4vwfo9QLAyursTEOeOvEdD+YXKXJaGc9hO1TTO9PSNnqn96aK+egFzJYf46znYvABmZ+cbkgEYz/yML4LkGOhGhhfuz9XAHi7Q7trHwh8YZxep+qGasVRrDWRBceegNCgFdrffIBFqpRKSQQK2qnrS7oGzDU7BzdP8+LdHXUsM8AYeP95Sqe17R74mB2R6aZblWue+ss1T+bJRnIlYDZln/thG1mnj6t/gkrfB1pNA3EV454F+3aRqFXJoFlHB8+sqwmdWsN9RQPxzr4dZKigYHU2c7b+41ZIPescssAJMnn6QoiOJDKr9nDS+B86XGOhGoKXIQftFtT0KVSvKvsZGNoy0vaklewqQc3sz5TrvBymWEnE/TsscQgP2mAdles0gcD4h5GblQ/V3Xj4aepTm7VJvtX6wJkmQptua5z+vvU7ka4garVabaZZ/nyxN4FUwGy8KZIFJyX5brdHXvww6kgZBtbajh9+7KpLT+rh2CkO1JWwV1lKptmLUvd9GwY7CWSMuhGN8b6bSM472QjepLKq6wO89hSfZokcFPvWJ+K4FAVLVkrJgSAsX0asnn/JEsTR/H0E/5LbAE9SI8/247s2MIzJICbeDYx7gbBbMBHtS9FcDRTY49tFL45ENLjca1zftkBxkG4p83896fP4e6OXaaZ+gmcokod3YCPy3mkyybwpJyaBzgd8e/U28GTy8BvjZgW+rlY8tWv9gbHONl+UPehjqLYoI0JUUaNb16ibW7ZJspcSoxHLx18SIeqte7I1EydvC99r01vkHZFGh6Ia9JI9L+Mv829LYwQmVD9uDHyg12A/EMyJv061D2K1KLdwji18TKeBxQ6d2UOl7pjEvZEJQtvBiWSeuKdORSA8TtBYOP+EMNpbJTs4QfUCqAAJRX0Jieq2rlzrrLj2nRL6tNgJ7xiz/UPpFGWafgwYB6Uc0Z/JL47VLyNCkfataQko9DbBj+UimgGqnaUbMgcox8h/qQ3c8WMEsatLZ54cMvIurNSWZxHfVabSAukikBxQff1UoWWiFGEbDRnYWPVlVln0hOHPGMOgopuDxPAKVM8uZbuy9gK00tGisF01mi5PpcJY/MV1OLLu/yu5vLg5bzbTMCQHYZf2j0b49xpM483KkYgIUOUSFKUmif88TcMqxAIsxFzwOYsA255GbvFenlA1B0pE0IWkmvKQZCzrfqj3Ki+t0PBxIluL7QzLsM/gggSZRUpfZtLyMuq1yYZHpJk1aLT0TLcLy4NG6quXal/TonPg5UnF/gMkeDC82IO2px9hr0ngm9X4H/z5z0OmAh4w8BMdsX7B7ayWGPO3BUmQLicwlkDcGWe5QPgyoEs7pMieer0JyqQIlCIGqwxkMCkaptkQAQNSOe326ZRpp7FC2xCGPnTbLsj8lLAoQCcgd7S8pDtfd19mQ58gOL9ou/CR0TULiAG+/vnu/USoXy3ekC/ISpA/nc9G20j1/iASPlCsD0wLMVcLjzvc80frhBZukusUHTqX22wO8H976rkufBDGVcJvdGIir6v0Ocfj3XE8zPiJchO2KhCe5Ja0QwjNjoVUIwr60SQg6kfIu2slYXbfPrZUsfBcp7/IXjLlVukoNEWSjaHBF+0lBFCtQ31FQ/w98dll/MAAukJIDn6D4EQikk6HAvyePgdPYEZQb9l4qTB5+Y/Kahqzx95TNaJ5CXuKFDVZ0aYAPxeye+HXudf45iOJmkFCyPbDPbPUkRifZKT/ebXZ+MAxUvXp9NY8kzyUBsZmYzobsTP9AUspa2H+RkXn3yIrUAvre5+3xA2Z3lkZXM2NOMKb0NUL6UQ7C6Aju5rPtoLvCMPwUdYz1MFaCUotCPvEOQDnrSyAoQrDvKkT7nPrQTxH/qrXDCpy16fJKVzq9AAM4f3aiGuTbh/XzpTpyd5ikadOtSpnpxmT24YlGkCeZ2KQl/uJVx2DQjmdd+58ng5rz81elerBy8k9LLwTxeBgcfTQ7eVhWmMHDD+PAorjOA8gOI7mBJwBYGDxAxO3uzskh+m1uE8Q+T7JiZYuKQ0/kZoVMhrb6NN1pGvsl4TcqRd/RbK7DLn3JuplXhb2wug2n9lUb8oI38+Vu5QxBSAue5z2gn6fNITgeQhH+HNuMogHndt2rIaviOBKmD+/d5cHJGYBaH+qy+CTCCwJu7UEmpNs1NBmeP4kVnJjjs2dv9o/an5+/snb6pQAkfJMnyn/+3hbC5Almd91g/rb8TCaFhd/WelBe7Xs8HxtmZFHgav+UE3lzP24DONHx2PT2+qCL0qCEUKsbQuA0IWK+TJqRoeSHdoqMCMiO3kmDEG86EXExJmMJFJD9q5W6BQ6N2WN7hUwHCV8yQ5OOwDnJM86MKBivLLhqnUGXBgnRuVGUcmfsee7BT3v2ZeUbehUkUjjWxF9BWa4V/4Nn/IfoY2RAdtiA+Th1Q0oNZhU1Lizic4m2XQ3XH0gKCEjMCnvURU3A+LoxJfm+QGBqHFQfX2NOOqfVME1GsuDdiUhKJ1GKfXF6FJa9szEQFQ9hssbjtMKMuG7SdW6pBGlNPMnbPWvKj+2c0UnxLCStP0l/yAMugwpdfAlaG/oKnp2v3T4uT850BGilauplMxyRijz0FkvBw5TE6xjKBvcNw7jIvumQ0ICa5L64Wyi1bmXw8QwK7vkWZPUR69XZnlNsd8EEwLkIYA/PZSsy6rd5JRyMuoOKidVygZTR1Lp3qS8f+Lo7nawX0XBda4flkEttkzUONiq1JOPYtiYlo657hWuLh9UISB/fS6OKCjDOfUS0AdmOwmIktCC83SBpULsZGdVJTyStQClkwr75og6bmesz7vqo2zg2TtV50HqZGqkHT2qwGvIPmN5HF7Epdw0RuzCHtM8ouCuK1NAH2k8Q6ih9etZGntyao4Jz+cUZ9nZIgc9NwVBezN2dF9mxAJjXZ7zzG3XocWqCwspxSVaPV28OFuERW70ZI8o/X4Sq1OdboelxxG0Eyf3wAdSddD1h7ezX5tED9+pkcrfdEMfT1BIUDGP36fvaWtQ4jCZlq0A/AaxXO7zLxfBigxF9SMRih1v5EY6zqlIHiPexpzZieHG6SmDEzwVBjgMHS39PuGyDVhMr3kRg74R9LQ+c/+yx1y/eU/yHHNm4pYrcViU6CRSHUJTqec4zffm8huWYbrZHQ5O+OYVc+wZ6nu+JehNeA8HQSXzbq93riNfM9+eVrDAOa8zVb2QyUFx43rSTJgnnzQGdhJf8ianMowrnVwPFPUOIYyU07jCvx4u+niY/oeSPq+9X8GhKTMMZxHZaeAXha4hLNCswOhcgB16HAcsSUeHv4/TTSBqmTUGhVsd6QCk6iN/O9qwYsKk2Pxiaq1NXPb5Q0H5yOzSlHlmLektHgpRoTWGuI36Jf6TrGZNs9i86TOAVC+x+kLONOXsygl8eqBz3lyICADrXKgsAWQQLNFayGyALqza4hMPfCohACd3B58ZLjaI5J1jwqXHsg7fRv6wRrDOjSz4ECkoQcq9nMWvPbXkNnXewhKF77Gblb8+pXUlGdPvxwSFicps0Z1yyQbi3vl3ksGezXKoxyLrE3nKXYEODhPwsKRM35kVG3XvZBGoWbONbyYXBvkWLh6MZwJCExNuoaFdXrccpPLi4kxhY2TrR3W2VyqrAsYwDQYN/pKr38Y6wfdKRgTk/6W9Ujieh/eSMkqlV8OdadO+xg9hD9pyE8RCWDfDYC47GaIXDzOgRaD7CDZGQE8oFds0ryc/YIEEHZc/EFJZBH5019MYAZWuumNvIUoveYXZ0SEt5cNY67mmnox/N4HckbW+lLkwKUYx+7AAly0lN8ahH3ps2BQlmgmL075UAgT1pyFhqMdDRg6NkJ7LoVTnZGq8bhI+HzL920/fsUOIphpFZPDazNmkS6vpQwZ82cXixkcSyD+raHj5OQhISMYLZuKREUtaQk6b+6G19KMsZRl38JT0vQrc7x7jzfZDNWR6Pp72TWePRYtav2o8lCX3LRx9ch31lUxHJLoutTCAIPfhAh/ipEKbY9Etyk2j6nt1/NzyRaoqUjJJAHzfv7+CMU59Fp+KRrS1oVzQKd73SmzgqyCgOiREY2N5yjglLQLs9P5O4MZABNN6jP9rS7P+gdWUnp3OeQzdRYdwpZNOzBGZ9jO+DUCB5UTSCjlg+M6k25Ok7ji/MFloBnaonMnldkdnbdoD5FlYlvHHCyhZHL/F51UFpGqJRlSurU27JjXnzuU/jSsnHSRp3ruIQuFh2q3KKyvsPv6ZPoQDl1o4sHt/QJHeHQ4tL154svQZc3xuQ6VS+Jri0WI+Yl4DXbCoXaznloIbGET2d+U1aBzLEQq0G0cW548qgeUBgRbr/T3+w7FovRqh5GSFg+ogNaUDVH9tt95ZOobU/krQOeGwQwgK67tZSqOP0mPw/ReW85fNIZiBz0B86lfwaKqqjS+iSG8VCmIh5/xAjnYVbOXCbuFSxF2limyUYmRiPT1RmICiIip9l0pjqhtUABF8v8lC7HF7k++Zd4UJZswjnuPxcPx3BRmP6NlvhUyeUfmW4KUmLE+jF8tr7OMb55v8QOoAg58RrW9bfPAzSeOkgq6QFg3e5QnfQ2wvJ3ovfv1WSeSdE7RQ/Q1Zgvyb2fE57S2uyF3p1UCWj+U/QZBSvWEmgeuIdApSr/LJsT8LU6447y+tS8urCHTo91iDkHogCQKGUsbDWRlgme9A69kMEWnd/mEID0NMkZdLQUbUNLUxa+YkuEmx3jUm4J4CG+e/OjWJBQ0Tpahviz2BK52Fs47JW6qP+bjK0zuPu0EK+nK9XqahdTcdUD8AgpXHbywiJUdK8ZN5Ko9Du15x4GGTODjslpXV44PdEssq3S8K0y7ke7deb8DfxDNc256A9nvWYbVspo47BdvkzExmsG4liNg9IFf6bPJSOslDOaGJN/O9bGlSFZ2bEPo7PQj09EeBcXsIFM+7LIy4vYJo1bzwbsEwioKBzZ8hzh2rejQZpgD0ahGsNACYEVnAwuRIVCCF0qekPvDFmwwACKyWGAoYldghIeZCTGmbkyB/0CSP5SaDw/QlZM9P7eDmBMNIC83RYUjrPjYUPLEB2K5KNgRePOhOMvtuw5A4s0UAjpAy3522TWEAl3y1+ezGC83u++mQ9daTugVBvHqI8tbe1jc0qbQxj+lVik27hEU1goVP7HHwmGjRrrXKaM+oBliMyWG3yxQQE8m5kBCjwgDvOhnQJhaQ0BiURVpbCktO+wAVIMOymF4ttHmR797mlcFjMzWTzayp+RAIajYyJ4I2oH8YoWfMndAdUgm8RN2l2SoWEZ6z5FAsdQhrBhuHB1O2X3UtnwAWakmW54Ik6Imii/JNQcaKZbLHSUELsciUJSGfdvlyNsu8avFntX6H1rsMbc7XjQxZPj+pDcXUe1GuueryqdvCv+rOE2icd6p6t9UrWPVwV0qwEKPFAd/L7BJh+jMkIR2IRuNvKAxQROGJ7GynjxC/viUI4aRjj01+Ym447U2VFfRnMV783ZWDVwK1ZpwiLPbF6LqvqoAlWERO4fs2v1ubs4PErG5WktZMLxMrQNq6eTHj4PS4S3WDhxGQn6KaTEDGWwTuuOEymyyTtK2JtwQL8X8q+l7Jmn+ZAIT/QUr5G3+YipEeOlsblVAubGmzf6C/oBp7g4UIHRhNN/9Oa8KZLPU5A8xokH+eVGMQA2g38sfhvK8YxG9eJeOue/D3JJSU0NiFg/DCpZMQTDyu0wI29k2kID2fMvMdUY4BTR2kzlKYg9FGj8oT1rKqk/pLDlkFQ4wzTHqmffAtyfLbd+wO3vmBWuUaS7OrpA/vnSJhBYqJMTXG9t3F92mZh6Gp0lE1g4OP4AAqhEft0KtxnQn+0lDSVGbCOpgjhOL8rPjKrQI3F+B+zFBrC1Zr4wxcOh4/9vvjIZKKgTEOfRhi9Vk/f46N5Qv36MXzq9MeYQFObkZd80Zl1WwvPPFs4puY+sFn6pggMiX+yHGXRi+iA4N2/6dKQQuvH3PA5R/c3QqEUWDFL+UreGcACx/f2qyOHIgg3S8QsgIEX2PJGn7ksMUM23wdbv6gKwHvHS3KI7rpGk/651ASDleaOs2MFfS91K5kexPxVAL4SlrdpuL5bcvz8s2DbO5FwXIiVlwtAeLlRyb9ERGEWTQpuGkQWQbc6224/GUaLNlqJ6obpye1r0KgX5C9IFmZ7jPLcxbeJJX8GWCrCPJKAN0vvDtMKVv61A2qJD96F3MWGv+06lqtu+qF1POjj2C07ejgbXdkgqM52khuSFiazgEWa+c5gR1KyzXKUnImMxx46vzIB7hihtZaSLxqRDaYs6Ae+XkzT7Dpj2nxBfokytsK/t85fec97t0zkytu7pC1aF7XyPUs8s0ruaYQBvorX8Y7kCOx6f2lMi1jcPMLBshOIy+GxpGcWj3OyzrxPdIjHKRqB5kmU2FNsaqW7xXzE5DUs2apnuSSNrn9qR2Bju5+TJw/gz5qYqKT/uYMAMa4SvwR7nRe8VNeDZw28vHsRD3srUM5d/ExVccnaCpXRP4X96ErLelrkiUAS9wTxCdhUlK+Ib8jTVjxI7Im7w9yX87S6eC2WdDWc8E8lzIk76hIX0Q5KbtPoGhIjAwnIEYnuXs63atRGyNEjfHfiIH3qWTrnJjx920TXHmdmeNF9CCZ6My52Uy9x8TVyJVUBEZE8xlERwe3EfZMCzR/EgPD6j6fxMorDgk/B0sBcoZCtsfYarKBW0SM6Wgbs107GXdEUvdavkjiggSg1u0D2Cp0qPIKdUn7GoSYBcwIL2/CTx3GplimG3nsUs6QgbyakLq8l+GrjIVWH6NwUjDDcS/ETr3cz77gC7uZP+v7CiIzF9gBwvxsvaS4bUquAZLUOTrmHDJWQXDhU4vc0/MbdLTHbErYJazTYIH7oBwUco+u8fECdFR/ut8qpT+pzHqTbm7yHP+SRW91dRHMCLM/Zdp5rifdJvsZkMyfYZzS5wNf+Y6twzTrk7wGM0gAJ3RO9oGkTDGLJ6wYSXl3sTxzwTtXRGz8j4zgedlaPTBOBVVBu946hfdwI4bMtCZ1TthDJvE/z2wq3HJyvxcXn8278GSF1deiz3a4OqLY9H9eCSJsrUSpHNV8uXN8dvUFQNdAEbfE9BM+BPuzJWM6MiGRbwkiiPujV0o25b2MgJrlsddzjZW7mWHcRfgc10HJdnOF6YCEzHJBXoz2ofzZRwPW7nR5Sowvh8THOtiCzJv6R1N55zMY7QlfSPsYn4GeAJXFER/uHkO3CMRSuCB/GLC9otPFuHSRG1um7yHi00JblOJnuVMrCmlaaHNbZibxT3TVQFw76gAnv+Q7JRwlmcDH1vwvZa+febe0hHHT1xZAZsZsn5mIpZkWyzAn+VZaTESOpx9QIoFdKPz0D6UFG1m9NStSnsQqkw6bwacxoSldhwzZpt1OBHABsL6O6prmOF5GM8qlnY39bt6QOfiTx9z5fFywEaaf3FZ+Dxx57SrObe3tYBZGQZ51huoBT9GXnmHmm+RF1W6Vmo4xBK8Ht4qvVkfRURG8KMmIPNKJTS4CwRZcn+EnbMw3C4gSxZR4QEzYvKQwZlKa6BM/DJSYnGYp2b/epynDkfqQQIQUDikGFTKSq0pX6GmBWyAl6ZQPNuIPN011O+hRR04pG2g06yoovpr3GYGMFtCxTOV4bKozNQRsvIiUWiLm9/rTsHytRjS320XI13lhc6ATd/YtHxlSErIPn1kqfMy6V4jl8+PArPp6fIrghoQHmsOezIjvWtyotfGSOh8mcjuw+srhA+8mo/brx7lI/b8/QwvCrMAqpQ1gyP0wLZ5w5k9TCSzxnqS2cz1CHP15i8RM5dl8bfAUy8whZd1xPC2GtjkJt+yVrLDOQ/f4CZc7dB68ZhY8zbiryxHRe7Tui/8oPyQ5AjyHmc5E7D5CaAx+HEnPyIWwr/1B0PGOIFRMMVUeVfM2jBiBDEx62EihHzCaGENE+2+rfWnBDx5P9b4LBHdxSf9jiSEnAe4fronL+IAphwLkn9bAqDmTp01yF+4pmzjRsSISvbL3WSCrUQCRAAf2P29kI0+HJOZLjGld+vyhbRYZWpg9CDL7yKnjOD6tURzhkOu/cao+hYscBkBYO5/475vXXgligI55y6yzNk7n7C9hMJwhqzbFTxDAVtmsh4HFmIBe1Mim8rL1idpDimXQFBZA9hj1kjFw5fFbtCBC2ab9fVGIL7fRKrrllwmoRpph1fTRTgy8ac5KBZQqYzgeVUJAljXPNeLKLqtMhsQTrjPJu9AKCA6WepsDdXjDKB9NOjWkAyzXOe4noV/bX1NbCSGOpFHG0NLtpkNinxkEyw5HUNx7F3Z1RNgZeyUAnzPssCtx4aXFHYgvraZDHPyCR6U3V9Li3Zkt2JIa8T7haE27nBSp5HVbczh7tJg6Z8GPOYouKuni8HA/qFb4KOqi9k2lpEt0HyFST7wGS1jvDiPrrEYkNYPaWBlQhAoZIovhuJcteyXeEA7qS8YroRI81EpZ0O1Ptfq/972S/pwo43Gr/19NpIHWE5cBK+eWysRPZqM1YfOCVgdU/nUsBW91ZpHyv2ryu6pY6kkVbDoChzHQhIcjcRXPO/pPRrsZ9lqeFlVSir5Eeh+d9ymA/B/5FK74dVLIiTrceuiCCJuDC7Fqcv6DSqnZUroO2RdPe+CDSUUR4NcZLwGPIZV4DkOSu05NS2ipiOKqZtB01sfObZfoKhF48eoMGfNT5M5lh9OZIHCCcmi4J08MIMC/wpfKDhRwPKUW53z7yYBZnJQxpyWtAZc6nDN4BFryqG0wfKX0YILsZJrBDAU7QyYvx+wuihece4TEULhzvw3ZhDZ75MSW3Ri4imPKAaGzynsABMSo2pUbIzfcOUBmGA7s1/GhhZSlRe3xzk4btGmlDODUtqKLLY9qDKEIYFD1bK1nWc5nDVN9baNsNhwozAO2S1EtmBhUBAAPJx+YaC3JvhPGd5khb9/bHqYvrBZ6ukesHdRgIJqH07JIxBImVufP7Pl8E62MBJIv3KGU7ggUqf5Wjt07EaDW/VuGObNSRxnKel4u3btQ6yKdCsfpTiGmLE96S8hB9qbzxC7vWehjpaRTL5DY+wpUclRE7c+qWxu+zmkRf8yYJdB2OxkKZT9TXGFAShzq6U3Ss0ZlH16HW8lFjcXBR2EOtobqRjQdaMaM8In+tBLEBK7FywQdVrlSdL1HhEDKaqJF9MCrbBI0OAKvCH9N39fA2BxjxyzuVbgpsByf90F8thyOjdSW6Sjd158NuTIgzfrNw3D+5ZI+B/1QE2iL4QRLQG9Jb/+93fsBoer9Q+l2Kz33oMpOE9v2esUgBfO70Rjc2iWUSBg5QS9fRT9d4YRC6tbLIVJY502NQ1t8iUgjh9Cph9nA0X3MWx08dyXR8HwA8JerxmF9z1X2WJuF9MyfYSvekGftE5xQtsRHg5BaCAx/l1jwcsrrKuRNgebPQyV58bfm8bThxegSwsphp0JxfEM74jh5WYqq7svh1gjX0LbaqJY/MQg5CBiPKyHIoJwb2rrYGJQyfYsO8zpx8uNwTGh/vIj8JSyM4XqtkcUTpwRTUPiqMLcySkNe2uZvBhplMwLUc6cQwTK1LXCwC4oJEvni2G2MIzkR2SYrERwdSwngAZ2ZBKT4cSb7NmL7t/k7HHJOyz2fdUmnoc/amalRYMYDPn4jTYM0r3OzeecMU+VE3zlN2+8/wYgM+6BQFJ7OVAPZu3yBgKDW5BDPq4gTlmF6Go5vQbY3jN6ivr1DibUCUCAYQwvbYhkL1fOaA/CnFFLD/F+mACN+o7lB+fXsnfXO30cLRl/4YMd9O+d0hVshGKrvhvha42xcpBHiJUSy6aUwDUHRuaO+ZiU4tOQNfiXzOReVae3tuQ0YBqSajK5L3N1ymHDr3LU++sf+fVZHXW1BZmipEaaHAVYNE8+iBAsFiVH8fdw2dUpxqoj0BBNOziRgn4udp56tTV0K2sv+TVJvLcRJ3DOcqHalhUKQYTduO1K6afRogrsSLeQWQKRDIA+vG0ewRwOIqYAGECuC2SHno7vx503FqN+B0Cqb7BFu5fZ3bq/K9U5Rrr1+m7rv3rcwoyAVpbHrfNRi/oDfWaHtVpJlwh9bfj3+Ih1MuD699oPHQXlzdGIr9ODbK2gmgp91SrFebMEUY84uMLjQknKmL4Cjr+wBPYXYUusizOITTCWPdRmaxsBV6leVg/9EmJV4W6wMeAJpdxspwwlee78yETj4Nw7903U11Ddjub5kR4DEtuuGAXc6pKU7cSg1TxpKtMFwZOZNnfyw8YGkrFkG/2OFMPUsis+bbJqIVRDH1/95T86h6/acLYLa5C5WgE7X3beCPoJQkma+VUMR++1BV9Z30VLLSMIP71rnYilPH6njH3MhcQ7igS3YSj642edn9lSRPhCIoEVO1OlplagR7EdxhIdlHYyUbbCGtAJyZophnW6xVZHViihn8QsnErdpKojpBlIQC1S6PF59IwDiNkEBZfoWaLy5VaT7BOF8f2ozq4wcMZV7RJePEeaHfwd/OuXkr+TdMqyg0OivHGb92x/uZ9Y9nA35INy1fJASIjnlKr0WJOwtlUb7alJ2sKFhcsiaHl0eYt3UQ67NiZRC/UFP31HMwzB3wP4XmpPjf1Jew4yjPxDFGtZboe9wCFEJIh/dW2Wx+tawrNRqhcBjkIxQ/9ASUFTuyPouekvYJcuHnTSLR1cEeKMm10QflsO9s/wT/rh5OCgtD5Vsw4E76Sgrd+5p9B/h7OfSAEjo7Mc7ZxacPQUN9tum5BIMcS41fBqkhPIzUOOQ7fF1OLtnTywJj4tiSlLigEbIsmESWfgLEL/mWEUNSHIv5hloSQWLYMwc8sVith6nawWuIDfhbQyPaexy09GASpDb6jl6vmdpMWIvnH0KOshcX0Wg6DyJyGxJM2Fkz9PJfUxL6VFKtfoPWZ2JUpZIVrd0+Tg7WaJ2yoCbBbfeq6ivSAqb5Ko6ImvFLe+LjM+wNLiBhhWwMb4O0Nq3V6+9cqMHPmqbGXcwqOmJ1cNwHXzUBV/WtAJgBcloZXcXKXV3cuTsHarNihEO890NCp5rLZ0Kbro0VmEUySIe34PtqFY5XX7wwEREbwRxC8+rrF/TtFBYS0T7AcU12/2kNdXw+73gxrfrAC6u/e3xoEk1UbUM+/ymtGS5U6KmaE6zWMb6/w5P9xqzavfjCuhx8s+o4uTPEXySAAOIHmfseJQ3lRo3mXHEiMr97Jl4TSOoyojHwQrWu/1U7mGoFmpDoPz3ccZIWUJnwQ7LQtVwKfe0hU/tH4Pu/80J2lVdryLumT7nAMd+6EBinlKA7sRmtPhhbQpN03HQBK0mFMfBs9sz1x03JzUEWCXDigPjXpngi8GNdohm+5ozWFi8Ev1UX5Zr2W1ifLT9VerMyDXzBhIqVfZ33IdgbLe1ELQMJVstfdfydz4RhT+zO79BQw7yG4/LEW1AejoAwRG8JfSuuFbT1dK2xreLmhGl9CDzLi4LkQVV4bUR7fJCHa+H5B6RNVjJKnhGlmsYwuIlNNsJV8FBZ8IIth/9CdLFjhJhGRpsFLMxFU6w9UuTOTwkKYANjb3zTh/KUJLkBQtAsdFZWrmkNoBE+XV5RLm133tV20PnUMmSxBCq27r3Y4ybM/l82NXJSvUJLOowW9+gr8VKZBziacZntMDeMOnKnDdp6Db8cD2dyWhC54ZxMspfzDIqTIBJZEoDSlbw2tbHDJSFsbacgQK0AMtpAH2o/gQeTbs2FvtlSMzfuRkVkvE/zpi03aTzIX/JtIzB84gx14l7OrJ+heKY4rh4wzxy2JtXl6HzHHWkCILD7/k7RNuEvI/282ULF6OiExd58acbaxxrRBDTevYtmicQ+x1gNFXnxYZ63zdiKoV7MW+9ZUy1Kb2wIbUptiZ3U9dw1CkyVIFGWs8fl1AnoBGRNNhYcfpcufC5bP3Jn4weIJHIKC8nBUMuINTaO+MEDx6V3FaDwFHC+4WeGANyrKGZafSASaEDj4UV3uVKRLNu0o0e5FcmeOmXm4ruc3nI6tMquiuEtaLFnAKRStFH3f4mcpg/n0sihUbSU9O2drUN117LJHCaKjGgXjwFDa0qNrThWLqRTaR2U0pt/KpixUnZnYRzvKhhHUtEXBYQ4ui8eRFv6333N6pSyiXuA1HRW/TSWcIDSjnPIIofkCN82O7Nvb6yi/zQB5OlBTPtlmTH9dYLLA8k3hDAGJEo6gS9P5n1QoNSankCYV4czcJ7mFT6bsg17LV5Dsl8G/xGlcnBQ/OvZWrLDQ3C45WVQLKalZhpn4VBbK9xPHLZ8TPrwuCgVe8hfrkO+FM3wQtdp+1spThna1OKniSUklB/3sU8j5wW4g1fz7VU8SEZtpthDJOEQSRiOy4g0BIBPLlnCVq3dCnRwxgmoSyRr9JqADDVT3MrjW/NHkZnNbMK6xxK9ClAIy1KAh47eJDElmo3bwAy+FWsG4+0Ss6vaYxwMtZnC0xaMWeBqvQ4BR2a2qASHWbd6z2Lu4G4uZEIga/8v5vmtfPhENpebMpDZQFUjf3MnMH0gFTcy6pwQ+lealGbVv6Af3f77PzvOAEln14/WhrZrqT6/YWgsCj5wDsRyCGYFRKYzvZaRkcWJdo3S5tNtFxuCZ64hGBdw6k72pOEkf/eyAkdeDEUzWgKEztw2wivdgtIwD+wQvCVuezzhg5UBaVRlOe+yrsRDpigISEUONyzoRrcnrgyzcItaWZEoc5q5No2nFE/4ZDaQgr2QD0QfXYLnajdpFgMYBmQDUhth5WSI3exnnq4OYgif94P0QkwBrFan5QI5LZQAPH/WQKYBADNuncvhRZj9fOHCcIP55CPo6blTRrlFAdJJsX7D08HCcvVPTwjj2zAAsYOMgBLaQ+aIVks52bWGpm+vqWAMu4SEVdKmQ6Kl7csXWo4bYxYkK1hrM79mU+XLMtvqhXJl6kufmnH0BhrF9w1Abf/afaEBwrWWY6zBXWvKQbVLMVVau9tzcEpTDzenpgGPq058T2e8h71aUDFoboL6Wz8o6BZ1qhBLUn51VxxIBWTodAFNmbwcyziCcvWV6AJ4CZT4ngeSEru4TVOIjSONtHFW7kZZLHog8F5uaRu96uN2uifqzKD0b4UmtOzuT3Yizyo3XB/qKq8qILzpYDdkeTgkVBl+b4zxWUyXdYX8f1lbPsxGVNgQySMIDsvNl5r4/AVvPH5oYV1m13XOW2wcnhuOiC9QiI2BvAr5BlNr04gw1g2zSUQVWzz6/bF0ZXZ4D60cpQQ1WQ6yP0vBOS2LyrTl6uD4fV6FjWBVOtInU9L05noDCD0hnIulGqyIqGH4dsmwgEWrzOW/mWvnw14aQWiIlYaeLxypiQS+9JjbS3jDi/i3SGE84PNqijyoMSWn1glJBZynaYIyYYTOtzQdzy73XaQzJIW2C/YnyZc1A9TBgPnJHrEargR3hOInUmVTnLZC1E4gI7y66XaCzYaWgaV7gmSMGXKD9FslznMEYngsF16fvPZHkky1sDA0ZZ9eDKiC11obBVCu9bMYA3o8W5F1ziKrbYhzsjB0ugIZC6yya3jYXL2KncyYAhFhYHzUIHfmAfAeu1FdylyGdiaOKxRLfuxI3lfkL+84ihYI6xoKMYokXenihsiveY8oSZnb6lgbUICD3P0Yypo+MWhfM992usSD5Yu4ONmhaim6FUddpf6wgvVY3TijCtJsili8xJW4naboFTaD6gBJ7ZRw25nswxtuC+jQbpkF7ZWRuKEkHo7fFtbyQzv24un0WBv67dQ4YgyM4WsJxionCq/HkQFPckt1Db5hL0S6tvyLn1bBvBUNha0E/h6VYOQ2bdR+AVYShnYvwzA4jHtHV1FRJa8kfc2HdCRTblD66Z+Gguq3iuQ5Aw34LzINNYQec/pLGRLmF1wOk3xy4+eBoy07GfMQ+wyjp4hgTPlxNqDiaf08Mvd68bMqSNafoLQi4F9DYcfAxPFK03Nboxl4CnyINWhkXI4zVvxEhRw33NuE4KJmLl9ZvsG4AJo8UlqSNiBM+PpTt5yNhuq6Jyl8uN90Boh3lSBq1w5Ox0EIywVFnI1Lola6/cjBxiKS5mbJg/vrrDQnJNNeFdzDdFbcXzjaL1TPcmDOwPtgCzFWY4S+oKqEvc24jPkkTHYzZ5dVWYmrE5G/wg7EFiDgX2F+kkRXcge1yPLz1Ch93TLE+xwL7cIpOcBRSGt/AoqQCEfDIxzKwPcS4alUYWNDCOCdl+OmzvESv4AyPfqAqIRpNPYTAtH+Gy0HLUQAivxquwsOFKg0irngbLyqBtD1cVki/qLVDCe3mr6TZXTbfNxtMCEOexOI9GWIj0C/zkgvtFeQ4xY8OZAyT1TLGdNXy2LRo1i2dT2AM3viuWtzK06YueRM9QvsPja+5cAHlLHlg8pDOk6PxuQgoMfP59YjQrNZY0v6Tadsup+duf0Hb7ERuGLZQ0M6xtnYEzbemh8Pr8cFzgAjvnthBpB4NRaSK3ALx5OFESN6ddY2U4wGKS3DoaIBr847+wOEyYBdnAJMXTzm9rJ+1S4eH/D4Z5fqVEWBaefsdiddjALNbLbrW1nWTNc09gN4Zf9KbPeH5l6qc6K5pCZAGl0dC+d9eV+h9hZycyIb+4vjcu2lUqXGYFAWlhZgEm8fGZOLrrC8qwakprELCy7Sp5gA4mF08XT2/y/e7qFMmHXpwm7gNx8xuXBclED3iMQrATxsAQVFI4uvY35/t19qAyuTP0LF8iVxUAL5Xa1G6YAXkxkZMupwF24fm2ESpqARPnmSTTDEj2oAkmx68TzMSB9NqFxzdstoj9+O0eBkq2JwTe2brUC93c5Pw9ic9lv3wrH0Nr1O3jZo0kGs9U2PU2Y2zm0plHv+A06rAzfDelVKDSBpb/KPx9sEykqf5Cf34kaassOjJ9fzSKBz0dxEcqbnFC3uwT2rcaZdTohEw1FwhbqaNyqp39AnMNcDxm7Dl3ByTRU8GAOGAPHcoEdafYSthXosuvjDh0IOCqpTzZmvs64xbRU77TpWOZACBitJ726hOq3++EFzNjhFAouy9ciIh9/BesnzzlgA1kzUrw2R9rRD4h6BzFUk2F5eCR42kiwVnOyLPCFebmsjMJNjhf49H2gTUPfg8l5P5mvOqStqbZCOzAYxdIkcT8duDnMZ0rKXUqYWTjMJORmCyrbdx0bi1D8X/GjzkU6VvYsiOie5n9ftUZdnsCev1D+ketr3AJBZWMeRxPqMSubbMuR2ySVHz2SXLd9oI3ATXGFKmIJF0e/A1nHiMBGi4APnzgcBrQUFbi/sjPAktOcklxVdI+IRC8rM7apf9lp3QpgRgUWgQdXO6+he23CcN9jYC6y/PgXaeDD+ZXFfunVvYCv6S2AtvN0PqnfmHjRxULmBBIAQhg70XIeaSptTbzJovgoXDHF/dvozGepO1fdMmIJRvVFGF4oDuyOhfhpgX0CWhMY9elnhXa+NJf67Y1PdX/0lBkGMhVYfeL9bGgXe+eDe2eqnC4yZeFsz0EXENz6x/oUXJuNHOSAEoPVgnGWw7Kd9qORvHO1eilp0Vp54rebZKflBPIPktTTD4U6F7OxpkVXAkmkRgXkJxOwrW91u+lAqnAuqL/NlrIr3g5JDQpT0izoUTggYMh4Iq3UF23E+eu5T0x53xE3Q/AYOIyp0/0eRwQKgqaqAghNU2BzW8oUe/Vkyw6VGm/NOIsOXk7EyhVSY6e3DHTOnwyWnfaJDIw6bOpqmd66LfUVwlZRePxYW+skmR2XK7rvPaHTz2dWd/Z3UmbFu8iHeSU6R7BoNReHfhLv6ys0MUzFp7gw9LY7fwGCt6uWeLcU4vWgmTgwI2a0HwxIGqsn775HgbCTfkq/lQOIDFn6VKIhUe1cJGek6m2ze6PALpW+ObefC66jaYZylA2SsMHEUxokjDEmwVXic8FskNT9KJw6zG3OzKwXCguvHpuPaBRxB72EKahL/qIDcqZ/nsepdXBHycUf95KvDbxW1g04KolmU6JWQcmDQWm6SHd1TAZg0nYX68vbJJKG9mjfkFnY4acnFtBpyQAwVJUrBy1xGPcQGF5cC8flTZKKSQmgfaAsanFfzN51fVPFCoVnXJSg+gY7py6bGY4uHEwKymax+EhzMvivtBUBmDtG8rE1YraMdU7DzGMr4xHiCkDUzNOT93rYSXFAWPtGVn127Obt6mCRANiKAPGzG8iY4ooC22n2/p4snB03z+lOjwgeN1jOopKp9odGReSvsT45Pldqf9229194cWiHOeo1dVex/xpedwtWyXyK5OdmIrtKRISvoHnv/6yNEIbjFpqmJa/c2gMHaZEWIsfNrLp0WjFOP1pTwGzfzrdqlli/Wwqmc8y+5qcvDU10iDiY1JS6auEQ+ZrR3sOzfpQwa+lRNfSScKA+6BoZrqH/7+wq1acNliGJNT7c2kV2nImYbtcScb4AhVYwxpx5n3GPdLYg4HRGSQPVjIHm0KyJRKHgFnKrcqUTPFpXtwG+AfEGu9Xpp+iD3w/dPgKOnVcQDL5KLHiZMKjBfjTQARdUePlApb7uBxiu5s03+5JnVoQvIOxHn+YdOxLQa7S529ZqwisFoy/R9ZqAvrnktyAVr86P+8rXVBvmSoKONIePZoiOQxCiAI9owIlWeVSBoKOqMOO9ow5qU8+Y2JvJgtYGZfSV1svRgPKMn5UG6IX3JH6ROlWsSn7UpdboWkueIKLimYz9sUKe10sk2jws0oDD+kCi7Cr6SnHo0YSwHHf1BIGo0wa6m2npx8+rpURci0/KEOVFX/J4sBeTgOMqTc28rn0xtAdapj0rKhP0Fo+awlvXhi19Gig5J1caGZCQ6ulte6udYI0rVLzac8luKLLPBeI/gIMRb8poMl8fq3N28TmZgiqvFDKrjd+/i7zwiwVEoVAqEi1gebdoDrM49rn3vwiTYxH9fDtQ150ZNaLY6IZdquuac4z5TASQ9NIc/dsrRe28OD35yTVPcTfY3PCYViJcgq2BVaIIa4GOsXSwRC7mFXcLrs/aUCmDx6HqWOXvsea/6cD7tbF0vqDkVj1/36VbuSjqNzfWcmRYOINnu3YqHNBOgU4bI5qwo0yiJTUkYhsFXSXSpNb6dhJ2MBf2E+O2s9mkyN8r897x2SYzIfchP3nxij92zdGFhS6gvyxPYt/V3HwdkeOavC6LA64zBo67tgNGrWS4AEke9H+rF0VfeKEh2lJUdXEQT1hl9xgAKAHhzVOpAZzeMTZVnkchuPYn7oTcpS4gB+19G++4nqbAjjNZHGJGBDcIAAzziMOMC19xT+Zwus+csrEqzwVKL7JlyzgWQCrDbmezCX1+IFZJKUFoxZDZS0koCL2LfSWoxhi7juM5N8yrogQpKM4DlZTaRoA4kBDntQ/Sr0oNrfz/Yjlk1453vIB9Mk9V90ZQ9BrA0XMFVFiWoQAX5yLD54A8apNUxwi5hRa89XzwRHAm9rcsC4ajEmC+cPh/uFxFzmdxRTcoDby2u7bIQGkCgZvS2F75FxrU4jfZ8tWkZh2rz8G1enAfe0zGZCWmSARE/E2RDbwmfKmkoi5bvtE4NEbehrAv7GJMqUjxBvy7iGGhVPMBOs2ZwZrp9ze7NhGVKu9PYF04nv8L9d0J/xjnZxHnb9WW6XA5Sr5Lex2I2gEReNbORKSThY57r6i77A3/VZPpUJEWC++CgAKA36TonqhYkRhzwXlnlU3wWxSgePzQnCAzuCDJxcx9up7pqZlekIwLvqqYaTHaNXN9ZjHBF5K6AfNJKGZZ418du21Hr24hou+SSeAfsm0h8XKF0PTD1Q/cqPbn2fuul0EPCKISZMYe+OrRG3Md9F6jF5YQXnxJTICA3xb8U6l5eMLm/gKFWpbPo9kgOpiY1PlcOg9NJQVUGu6T7u18XUlqYPx1iNYepU8Pj5Z5UnZW9FuUnsdlDD6cRFcniuSkZhbbBjTCyV7LDITZUg5LI+mu7QCWh2RmyBk7/bhTE8v49iRmIw7cQ4zttuXIIisXv2tAgI+ejmmSjxUb6ddYlGmxRlyFR0YKpwuLVg8WjZT5loQLkioVA6F6jWsSo0OFm4BYl6CFEvnFYdm61hAotMwKaoGd4/s6s1mb1s7bqaIqZGfSt8kroaRExj7nlR9AmKlUCEliPepLrQWc+2yqDbTJk7UschO+NsiHbTZdmENcAjUaSqKsR3KV6uMahseHbfVbU2uH0LBkWmZsD6+tX2K8ULhT55jT+5sKjaxd2aSUiuPQDqVserXP42aDDNuiisF2uOjLy9Y4pkqguhz6WUseD8iEYVGQ3Vi7oJbl0fcJv1QzkAFg/NKDqaZAKC1ISqBmAMdanfzDYehz1orDjcTTRd1DgedvQSpqNYEXLm5CKfBGSdiDcbn/FSoB5ho2OBDucdRhp5ZRyCzWDnebyDAsM+NS3pvAFU2jMzSA3B4w/78Ac5kvGAuSF5U3B7tgsAOKyLsK6fqnXM7My6IjD63C4nGieu1mhkV2QD0JNrCUakleKmkhbXiQRmF7HDI/rGh1qjpFJpG/GemAX+h6ufheaTIxEi6ga9D39yX7YrCB25zwGKlDDAaIG5q0g55fzVMewbG/pXjfU46Xv6EQ04P0kpfAmH44nfhbC+2XFuTecGNPWrNb9P/mak7hbCmZxfpjNiIUSSuAMxNxjD3vaegiBEewNzx9ezjnUZu8Esd92Oo5fynu/eEFJj5aR6Ef253lKJM43SBvuFksVmBS8Zw92sR3d0UbmWkRA9oB+IM/Y4n5/Scyz6ETYs3yfx0tN54aeSxoirkUzRZzg8+2n9e+cUT0ZC/6HpLSa3QLTNhl1Wx2dUjB48QGtPBmgARwLlVfQ4544++oCMt3jdZmKhuhJVa0B+K8A5STTtdKUc1OtqovCZUfWGxKA8LZZPWmNH+irUknCYgPRhw1STAPD7VO9nm4yuFDoW16s59LFX4E3Qp3hb/gcUlEj0Mdw8A/pucHx4VNkSb8acFMAZNkM5MCprtQOEhM2hI5CIEuXd78jdww2kzi/pWMsx/GbnFDNYIzKsTW1aphCxLibMKqrc0zxicbY71pnufinZPRv7ipNjusvxLDfVuzR3yuHGOPY7u0dxgQvbqbr+1bKdRK992Htv4iGSdU+nIfSFY0AZOfdKHs+xoxtd15CsUtEsBRopR+oGtAfA563mcMHCWe8KCy/L6+8FuzC6FMRFREkgWj05Dr9C3sRzjrKpg6B3GoAXIEbzNSw+SNz5dEFrjYWP0axGIdPazjmmts66+JErn2AqAKV5tZNJUqsYYpWMXwi2w0QEwzdbzlIy2DtJK7QWrKYTOeW6Acv8uJ5cmP+X58WeaYssNIZxGqFe5P/OYcBFkpoLkCtHlp07TiSuwcbHZE9nVFanG70B3W0MJnTXAi0zUv+dvjBnRDp/4o/26K+yDDLUlNpKazX79jLNtOSkTPtLwJEToU3MWuw6cA0MaT7jMOq5YBSWDddOjBn5bszzsT69C6WfB2zYjowCa7qb/xH/g5FVOwH1Econ1ZAFP/6STBC2HhjBz2hiqire4WKr02wH8Nn4vSsMnr4Qb6BoGZMyKueQWH52cE3RTFdl6cfnnQApEH17RPADw8oau7eyr8LcA9dsxWsOpIOBL+0USfyZDWBHSY4e0t4O9DJ8NWVIx0WTWWZUPMt3QQVmKRviiyB3Pjpn50RNQXt0ZCYnuWdxcUvZY42OICs8Yf5yozbWNErtryuETW1e5R1pmU/kpjT7rTYJcHcuMnXN61VwF51JZqkkpjY2Zq6xDWQvi0o1WzlycPA/bi+ITrQFPCev5wAAAyqHFNBqE+kKb1OS9cgjloFFfoAIcAZR5ti+au8X/6bUbZB4+eTG/5Vyl4MLsgg+FuzY+I7ITed2/I4EirbPc96ggyjnxEB50ita6YoAY35YMu0n8ngrvKX7vf8uXpkmxGvHU2AralaGhsLEf8Rd+ohZK2zJcA8oJ+/mUl9gKHlB+Z1mdgDHk6D95tXA3kYEL991hGuUwrUOWoRkDwaZM3U3DvOqH/XbsbWkUNitINtJdn8zoJ3N2W18eEC/o/g3d72I2IwZKQeAeZuw3ZW37PmUeMhTuq1CIE4ana+MHL6p6ME7Iv3RW58z1i2GDo2ds4n7vkX3SZvVdREtIMt5A9Yo19DLNo1iS+B5OOKtjGOhhd2SkdM6Uj3t0QD8v14yQZo5Gwu9oOGMh+vDxhVji2lUbkVj6eCHeK4AJA+fSElx0/wliSnpBSY1Ra6Ru/e3MnGJnBJzv2krSBqvnckCgAf7KsO/OlMw+FcT6BxRjyvvoAEfYodAYB4QqzXjEzurMEL/i9YzkB2NJZ5Go1vTzubgrHfwGVJYn5ksM+n9ElVhjf3WvyxdADN86l6w0BtWCDgR/CQrI1mLi+F8FAYZMAKI92e94uKJtpwj+3BGcAsUXFm9urD1sR+OiTnuGgqZAju60ztyhCe88IEFBq62br19HgwBh5yXl/xsJvKkelNlnbF5Ml/ONgV6DHjSOXCtgCrHHsFmXQMiPXJEJAFFLvlfFtltFNjUx/w+ZUlcy8QJ+YQRRU460MLsXPinl9vh2b5EmepEXvSURP/xgtFQk/XuqmDV+B1e4zFq0oeqD02JVSQ4U9tFeVHqrUIaiXpTtXQKYtMBgSKgHu4oPGOVdJm7fJ7Cp5HgIMJUdFjzzMw+8HCksY8TlzdFWRho1Qb9TmNnTCx2zYVkRDJNZu8D+34OzoovBRE7I7DIbIwE6D40TDtzSEVq0DOdjqzPxV9nm+Fn5aqyljWzYCLFJ01Mv7t/xuHy/9RNX08eOrfMLKS1UFz45+Y3tM5hzb9Go1C/sazbLNdrUY0lZ/Egv+N41NXYg5JOvMxt1zWspF6lvH8cFvKV03dAcFo6AhFs2IHap1fL5hw34lO+Z4I/ScAJuwyt+0yDXHRiIRB6d0kw4b030kvJ8OeXl6VhBjXZ4Dgaawik+JoR2w/WyPdnhP2sULYgZunWxGkuoU53/W1tpVOk6dgb3MEHV9WbMW1RxyEvllg+C949ZcM/Wlqovkz039RaJnNUWmFSjUnyWGippr9Be1xeMHqBGUEvyHxx2xtdr3fUUJIQ8XOKd+PPw45fpQZx2Tlsm9Edckl5fUUmEzsj57VPojYH64hxDIG6njKF/TcYQEJUoz7lKjwdYfrc0jK2bAk4Sxe/HaBw1lPIMMfKVTCm+ZFldlEGVDPSBLDgfTZeOBg950LwtN2245hb6cetKqE/Pbh34mnGXnsB0hmmArza6Bm6KjyO43CxU765TPbUXo2HPwwwXKL+0YobOj+neid8FFKiTgE88bj3fPUtsFzCQD7La8f8PHAExGc1JCvAvKRqD9q2DfTvMc5zDixMKiBhMlIu6rWRPWm6+q4xhCJF5MuOMJB5R87jfYxDjrhNFQOivJ3sEffW0Ed2sgUPEcdEEAyUKeivTtGgUb+7lCVnK5xG1XMqsjroMycD+R02fVB+PVZVJ3do6Hoz3VyPRc1L/xHCAdv7255CW846PYc9ClsIXaIabBGfO+smikXs/8cFK+lgbT5xAj6xwqiNviZaMI0hE6NUpGtXIlsCl8OuqjzUbVVt9O/lyH0D8Ee5C58kEEsVUZUGh5ONOpVCSA0Lbuk8Gf6cxfiU2jKB/JvupzVRIOaFUbJWwEJiUWIGEMDGeFOV4cIvhAu2yX1MQDTNY+dYAtHKMXn6vutSisVLUnp9LTsuHZB/EnK0tojYjFnTUAyz99FSvg64UBn4r12q692coaTLzuwtgUGiUDQSnWCboPlS9BdD21MVF7maWKMVqDvDT02CqhfDWCWrm/hiFIhiVNNV9QcCzFttM12gMuYW6w3EPQ/sYC6CmA3pXcWYoIZJagPYAN2DCb1nwRGLB158aIoWXwV0Hp2JvyQKvmigSwmnfXORNobRhFCSJIoAI6hoRoCgYa/GZsXDTTHni0lVKcAERwsXdRBnvqpjUU7K+cjME3nLFgps0c0NwAeh7R3tf4NcWsjzE6WAPuvNddAm0XAGJJm5DBC8c/ygA6p76CvAO+O4iT3QQ739d27NI+lNEXZI3iOE1SIAzF3+KdQHN/KWSPi0dcrWxinwLqqu7TuJ+o6fZ/iYSYtR4ZJJkMyXBP1fEcY4SzjEjX94PKTpcGCoTy4SA35t0VQ52rtgqB8GYIqeBTmz0ol9MjYRcdpxaIZHIuXigBI9x6qjv2X3WttP9eAiX0zx8L7qMX+7BXNQoIxDgtgZI0SBZPbrtlG6kWhtl2bThlFYD6C53uUAxJeIU9achYWdjppZMDeJdFgrv40wo3ghzO5S8R5D88wKb3ayFq2uZquSt4vO077y6anp24xnyEoGqhQ3d2z0IDZnWTO+MXXgqLkkbzQbkinnNiQ4JxqcDfDpmbqluAV09cMhs0rzLKZUVcrAYHzjML38u7g2uyGlxYjQgaHuuALtpQNC/12hDFPrJySEOlPFODpKAxdwhqGUOCYPJzlvMdr1qNBtFNab61gcblsSLKP0OQYbRdOrRwM97x0rdcJvu+lp8zE6aBYfFWUBBhOOtDquUBjBF9F6Wmd1+gCkueSZx+kgkqxhnlSyuZWy+kElpYSdPbhFdZhiMn6XrlLqmgZAanXlVXDwz3JvN6X4h2CTxJ47ShBXJcBnYfLcnST1OBbVis/T11xx/KtBlYogpJNIfFfwFYzFN6r26Z0/OCyh/ApRdI7dR/FIsSXBsgelJ/hP9VYmZSXJkKwFw5A19QnPKXg6QpxBDRzE+voBcvKRui3zSWvWQ67rJSX69irqFrSqPo0hR2JFntxWBYU4EG5JMdZhlzfOtWFsJxUOa2sCdCE3Szoz6leaOIRmhuVvEO7dEAe8tXyhWMdbGUUfV+j/hZ+0OoL/UnDMpsVfI1EGD+RaXtRxXXenyFj29ygArWrk0NfaCmv6T7AhHTEw1lxhE1iQQo7za1VugSAW+96qxlA6T1zagKv60ShAv7O7gK3ccCQRtSXMyzpcugMjvXggR/c36EBDS52rC2DqaKXzcXilB1LG/465f/AxpHztpaq6bnSVFwh38Cfohc8IZwqKGlnt9WxfQxHoVcw2MuEDs5cySo9vHsfYzW0NlPclsBKxlzIIheq9pgL2Bv2/9ND0jWWAxhvrIXg7H7EItI6SntdpcC3MePMpMVW4MTg50GAWZwqf+4AkiaLIHXw+0fTqacm8qkfYsEG123bAwqJCfmG6bQoK+3LS9lm/b67VlV1EtTlexYSHgW3bITjR/rx6Y5LFJ01KbnlAKozGKBNB9L2uySfHWkcUUP74hWMCK+wEFXbiV//a2ANbmuIRPF1gDrG6vf18gHvlTV3x0s2xPlhbaMQCp8dBevGXF/vzkjW6n/aQBpTnaJMpBCBRZH8st5A+ZAWp/iORr3bw9efPwjuFMFI+0Aja4zwSmKpn8bgGQjunyNZvsq3/+xcC4t3p6xqQhNjJhrp4voAlJBBHgqqBY5JzsIA6zBNp4zjREEdPIZFJ5DU31sqYlQBwHs8eF4IS9uPNfpDzTsNcTWr6A6ks6/tSKQSFGzBPLpXCbL/TIoviwwdG8jcP8doaWqJux98MXZjIaYAM4FZO7VBib8rl0BD25fy0RehTp3iXQnC5lzbjQxfFtlrFVVfPSswtvaE17Q78HQXQ+yzb5RpYwGbyBaqgiIPAFPImHGJnRML1uy9QM4lxH1VC+GxKLXL0pv8YUO4xBI6zdrY4EY589pXKDLqrq4hhFobxj6+/3YmMYPA2Gz002DGWEtMmSlJQT6hiPN7cXWFMSq7FC3O+okE8DatFienJMXWeVxlvfuMy0cuAzOCZkDdllNzrgM16QSSsj1CfpthK931kopkLGWPSxyYIub1n4a4Jy26bcvhOimf1Xjv5gwWc3Rs6sIBO2YrxHjX73SFgaHwK+q+gO/GhuCBj/kLBDurFjSSKX3hzy9MgrJsYhQrdEz7VPNjzCemI0h6m/XgYbmHM+hLoBErjS3apJ7Ve2s6AOJijAWIgwsv1g8iD4IHjxA/QgqvxrXmJk03nNFveUDHsA5s/ypmIleAQZjkByTsSLOn+Wn0NduFAoHax/i+tjkJhaYwjbH3oWVdri5Ux4ZuP18aPNlUdQjh/XUuTkDr0Jmm3zWu3Ok9y1a1jsKrOhuiwmNpZWZeaCEN3Qyh4zKoop5rui386IrULcs8i5Ro3V4qawSPY+sbHdWmHCRQsN8OIv/jKdIdekd0jYoWF2p3Ndi5Wqmngh3xbX8/ot5UsLDUm16xlVursKhD+eJP6gX70GFUcK/N6fRdCx2zGi7df+9FnqMCsiL1eq0m91DfkxG4j1Nc+ofjMxDtdrmlyqC445my3PvfJNI0H4lG3tGHBmWpUT7E5uwxfjOcJSIAAEB7jW1LzRsl1SyjsjVX+4qJYivPATG7DwVSAfBVUYg96ggcQAlcrszWNWm7hs6ogeSpce86gdz775f2iVI0KdxLYF5amt0FSvoX8dJ0pkMFRtGT2dBYP9OafkByP0CiYTsXDooH3Cur6lI+lp4hVfBhR5wRqKv7gK/CF6d87OJbqnZegCbNIsXeCGeJpRxTpkDLdP+xwgbvXEFVxJqmSlxXitWZE5ypdWUNo9VM4brviuiWbg+gCRE4gXDsJbBnlokq2yYoWyWL/F0EeSOq+yAuulo/LeCoRtvdiei32OfIJsGXWTEk7mKizJw2cjA3ebf+bPsfNwGPuzvUS7pF0h7+ORrKad9Bag6CHUb0ZOVje0Z4IUvbisqAKybzxZoY50gcPg2pyjkGYRTMEcW5fg/aP/6JyBZQy+8GJq46vG6Yd1HCl1D9zb9dY9avsvSUFcK9qougOrnBNPV8LSgVErIbD31oqWTle+Kg3vscEI6eRQ1hp3oHb5TUCp5hO+uXhh8hY9PCMW1SEV83mAVpqkPsoacr+VuIvZxpeFJyEH8lK7QX1uEoek4CALrN78x9NoGDujAmuyWDz1RTAAHd+nfBmJSUxfnwRxIzszOAAE1Ftj9sgXPHqaWxRJYTNt/YF/tvlm3bzNElKsK++Vzk2s+FHMGxo7E30zO2+qkGM7w0G1vDTmRdWe2b+JPGGb/tp6UZJ61ooq97VV2hSxi8zqSpYU0cjxmAPCEbNeiUuTy+otOI4o8H76zsk4bt4eArJQINh0R03Qs4fukbk2IfYn08O5gqREKLLk+0Oppomz/2RK6AxRazPPSj2e00VD0Da/zxTl8TZek81PgRxvcu2PHgAoX3p02iP8w/cPc/QPHDElo0plM5xkz7l1ulBdt/6XLxDWbN8m019E6SH9RlM4gF/iAH2bDjP3ZGlFTe/1FYKVbIZfYDjndREEh3UYc7QegFWDtetgJW9F8TQoga4CvGh0YnYVAnHxUTGDfWPzXCwzvGgrz3N3R5kOHmVjM97PPcCk0YeGI0IKkIM6m5gwiQLbHK1qL04vNYU9+Rh6HSJfi0VV5CKRErVbU1As7BVWQh8JxqvwGAS9Qk9XmOlk6wiosTqDWNuDAjc0UvgQG5VYFizAv2Hdg9U0FYjPlmvxUmViLA5NW68D2iBlpf1KFtuACtt/l14RcdUhHfPrGx7H4s9AafKMYdnzdVmtFIJm9t2acgyjMHYJ0MSbQ6hQZrfgcnmY/a0HIgcv8mLe3iXe+5CjifPXHsrBJiM01HNtdT6Q/of476HfTdjfDcPIC0ng4JrDXtmgHrEw8X6pxILxZzVv5OlVERT3eUbOnUN1lsCROxNzflW8zwBhNBTu+f+wqPC6mOIsUCr7OTHR5dwyH+ip3Pu7pWYC1ojNkgpPsa13wrRMgeifxhbReHlWOiW0GFZIbMoQIEYJddlt4sbE2Pu6SXSMbmX61Or40bxaufWI+vcd3VTqIRoMEXMt7VqGqM0b1iTdWZpV/LeWzZW7CpZZ9vtGKVAkN1V8ykGUfb2zZf76pY7ddw7o1oBdsjfvVfOJhdrJMRDRkTP6wXsxrPyt9i4NF+fPhTay0T1X+hFklAsMJAdfKW3CHu+FiuFLJTgCOdlBJO0Je6zMTYeGwqZdlz4AUhdJ+3SsCcAj8yanu27HIsD6omIIHuewNj/DfqdGw9Yppy4OMlNmfcTaUHq2ZfloKEiaod5wuXcBTQmSZACdJ0SGgGpD8+hqr8YOIaYvrI+ErjSHT2pA5itmyKc1VyVDXsGl1f2819G/5LlFXClieHPN+kUNnsqPnlO2Tcu/DmFuNHezExsbQalUrEKpP5jlKH4HiMRDIfjTJwlxqGG5r756ikVBpKAQ7w3Bd2lP35ry3QGzKNocPagCUh6OYelDB7vZEf7XrJtNphjEusLpy64JuumLv/sNWba3ff9+ZHKGq2PPf7XqQeYhQM4Kjbtpj6rswmXoc54xXlqJ1qul7zoH9Tqd+Iq7yJMX32Q4oKyZsyJHNh/kC4+gCnrb8JEtwgLLTvfQO+XZKeYRpwZs+74CId9FApcdtplT7VfOJwNEU30UOziLNQhbseN9AWPK8otlKinxdPelOqEWsEJiV8+AcIKwgHz/fd5lHPeiN0DdpkVvsCIrL6abOGTJTfbMIdR8TugefuSVLNycK7qIjB4nWXuO9knX3eZhI3oFMMeVut8WdGmNki+uRm3X9V1tVv6IuToqPI6KQFTyE9ta19xHUNW2KeZEWU0V8X6iXNXoSrAe4AJiWYwxSpK9jvAzqRkKC9/5zUM9SYfFitlzlmMawv4u5KjX6KsGXFDmpK6eZj5TrAc7S85b+p8v6KlrG6Fo15Wh3yeCcuj7wdAO2hZcdLzXgmvt4J7Zt/x2Kcaa++EXY5tYMlTQWLnqPR/qfCnMUEWLVkUBun0e3y7/fN0LefN2Obssmq963p2LBSQAAY35KCIH3VdQePH6PGESOJSRNfTIv1deznua9JO3zSJcYzXECPvKjLUElvQjGXphGfXgz/fLBLa6326fJaKAC8EUnTxwbDTEfbjE1BiA/soxiDTNBZ5vgt17qiakP42eElrin0siFFWra0mxSIIQolb/Pz5hRsnQ8z2H4t/8zl/Ml1gitZPJOEea/cnKddFzeqalvJEFSJDSHlWU4pOmqSZ46gRq+an1ft05D0VAQa8KZybXgleDZmLAPHgRydUyhlClKHGmvd3UJKgLQBysTjtbq66zLKikqjEGHRGW+4dVinrU7EhMTOQrqz88pWYz1JZ3Q+0t6sXsxeP2gQAAAMtGquqjtqShHiZbf1KBEqyewzcDI+ze2EeFn5PCpTeOOM1VfZSvKZMKBDsaOiES6KVMzMnAAPl+B7Qmw9iCG82PVTqiB+RGFAiVvfpLt4VGHmt0vCqqIlDN9jD6DgCPRmRJi08YD1O2FIT+L3kwwxD3DtdYmy/Jc3jhuE3epdvRzljjj4ih73fMNgAfkE1iq7nhuWCir1GRf3DCKAY9SjhzS6vMOBIeFMFWkSKtQ4TMHih4wcD2lJ69WXatIHCm408+yR5A5J2uzZwEuMfjK2t9FYihpBlsUZ/oqVCysVON+pDEDl8wwL47BwidQfKHaCe9SxKTrwOKLpyv2dk/3VoJ3glXeuAhZi17oHi+VA0+1QFwPRb4dZhslAF8qLpLSJho/KuPreVhjWZtFh61jKihuBSTlcCJmkPxHg2adj86twIrjh97jWuAbCoDsv95RBl/bbycvLo57OY+9hfYxy4oTxq5uRuwPHxZmKq+P5w3O12QYMKsHJNhG18Lawvv3yNCXdbjPlChQicBTuhnFolSjz0xxjIcgNkfITigJUbQ48nttF5FRt0/MBCbXQL7soFK0GavEFhOsM8nWLJ2JHymSgnbjxZBYh1vWKC1qDr3Ioes8/d33ePC4AX0Ux8LVbvdWbbzlp/UMIXhrbPBNCu0QShMn1jRdVTSplWt3vwk5QO+CSgkoJIwBUTPLq4CLaOunD/C96aZbgcmij59lEEvgicK8gFAy8NeokAIojvtIZ1SKQywB2xNiFhT3ak+6nxxvTiy+iKDRDCOa54YgWzXzVHpWP+2dQvm7qRZ5mRwSw48PwkpwQuOXr5hOo5EhLhsT//YLHWhoKpNJWS9+OAt2SCj8FNVFn1CiCv6mRmmhGhAJ6wRBl1Ggec2AXr6b/sjxHH76DEparBRia6zuM8aVZ0Z222OdxeaB6zNbe20+M1RKgdVMbUxUgGVipFHbZJ+jYUXfRCDcphD4lnnXIVVwQn1OonIYZBxYYNGNblvXDle8fX0NOtGOOJRpDI2/TguOKPzVxrJXgLf6EJ1Yuk65raLB4TA98tcHAf/dzulM97v4t792kR6WzIJ/KVYuMdeXL0OpuqEJAFO2248CDQBzgojG2+5vQqY4iwlc11N9ha6FA3R91+6KenFXJBI+lW0Ya+57ZZ2w8gBR/5B8oG8WLLKfW0ugT3Dzby8++vFBs2tEI6tE3u6ddRRYN1esjI246efU2K7EYTR3HLZDQu4EK4CC1xKHOTLEdf+E4EoTeVU495lKSJ4kAg0gPieCAmsn9IwkRgBD68F+8i92HJPRyIREY+DOHTITyFdPGSEV0nuOLiK7r3+hhCJeq6OIBcOTY8fWJ6hGNwsJZz8ik/Rpx0Nwye5VNVAyyKrNjOsYW7bwoopkOHE46jXQMbLykAfKzj/Kyb9kwbSyqFPICc7OP0yNW1G/EX14dwl/9wKYkkpQcOJlbCCB07WWa/Ux0sIfqrDEHms2/vB0IHPpbpsSzmlIk9ES01r9Wzwp62kVTC0eev/b/fVRyKhxt18hju3mRseBiwpDlNuRCslhl4S1hyNK/qz9LRvgPi90iUnTyDBDm1Ecc+N75GuqqGmYV8OLrMTZ9pfQDKb2cL2AxQyoz0SeAAdU0hTBmjRk/IEVIR+IQ3KaaEtWdjlUum2bjRsPLLSL/UGcQhhrCLzFpXkzV9zPmYpFQZYvONiPcl9qoc90M2KEGqgWE8ilGr4vTxUPrwaO5yaEOX2O+GK8RkcSjXIw9hCNhMMXFg/crpgvaREgUr2Pt5nZTVT+KPum5dmCJ4XWhA2bGsITvhI2jn6GVmQiAUWyudZvtNRdtkbYMBGLX/ycRoolJcAhbo+sUga5I+6FeMuud69/KRwpW3lnp6i3IoS/4vTz+9ox4IBhxVy+1vR/pBM7sP+jpgFMDP8r/Qy7stONPpH3imP8DzbXDR24Tpi6d9YnwBRfnRJ5AhbRV88UZymBH+KM/9/8A57g5kuWvnSjmN/SB/Hn1gayFRiNjLUe2tZB631KOnRUDOke0DoEGjrMtXNGeT1xkJNia+9hZkLXiCPXEv8LQiHWhjNqc0r1+CRV/1AEu36A+cXveZKsuL0MAVTwHao5cbif2MNjRtGhMUq5tEcYsMswPjdz5E966+K5/udmVY2QqpAHXaLCVV0cbPtpOXmDvk5Pw08hCa/tR/0jrxmQXBl8c3D3inLFOwlYaB/zTpcwAIHgaV4qcUvWuXOuHwi/3R9yBujYkvmjIhMfJN0KcKQIbOC3tWtexwkv7aSl73yYNLjAacvLb6BiQ6ZROUSQzervdtCIZwDONZN+WEenSz15V9SvlzcTawM05bEYM+owXziJCKomQLOT3U0CNLC1pDIb5mTVQUD05ujn20EvkdM4xJbEZupy7ehMxs5CX/hsA2dQWEwXR/yD5LOoLfgzLGjOLHhQVXAZ5i9ENmM04oY4NsKAem9QOInyjnIOeXgwrY2arugYGdXLpFwNEdmKLxTusmvFqThhGXGb4YNsfh0554tWVGuBKg0rndIpkLVcinDyCJNLoSSMC5Xk/1zVuB6ctH6rJFbM63xuHE+NwfNBEFFidf0HTgBt3OiTt/rQRRGpBSKGczH34nWJnvjIAjL/PpG9TkmMGUqzs3HPWxd+w1Cn9BPEae6dNz3jKmI9yg3WQzg2vS8jKuRq2tE3+d5aOJkhcHq5Mc26xNddOx3/CWPpcCc6oTc7ynmoGxnSJ+Wb++SlVR6NwiJRfSlQD5YcPpTyhUVKglsWic2w279njPrxuHoJaJfe9dhk5aJKIi2rEYJ6vyKGi5VRx8Io/jYCMlU562uyUXxLDh4n6OseHRcsvN0ELTH2BsmO6NFoItB4awRiFeqs2DVzuaAyAuYTDt4GN97K1RnYVg5pCEtDQg6K9NU2W8EOL7cOwPL1yYVC1UFnvnqY9vuZUPtVHJGfyiWytKGtAMHPeZWJ+ZB2Tgca5PUzJr4B38Rm20mPhenftBBZUOAv5DlnIf8iWhPgaU+sxEWIn5DJidFrPS9G6Mvh7injOanOHof/mbTRO9tuiLM7dlCsYq9wvFbA1H3aa4Vw6VVyA6dV0zHgJe3gpuLt/drVX0cRaHmFhMhwpUrXQOwCDxLLb4K/xeLnH/oou5Xl5z9iALoTGiD1GpN/OCaSU7ImCypOHwdMbwhPdRmdbWTaUlewWBbdgyalyv8tsH6kwLtVa9Zdm0HH8HXhn2wqz7krp37H6fXMhem44PWQxbZ/u/H2JT55+GSCN28uh7MsXptebmX2C/2FADM9JyqAx9bHo5njFvo5sGiuohejQCWUyvhNqMb4/goZ1PsqNZgTxuUft+HPKHQ9M7DBDfehEE6qJvzrZl5g8T2ienkU9ZqsfbvW2zj6IBKOAXYuiRcfHZW9SG5acyAswGfp85Fc2m/hJNaadgSS+UrRurev8yqx7nhvAyn1EgFVhwXSPnkZQOgcOrkDPuxPn3kt4RT4vTxbI35KvCi6MhiY9Z7UgGqRVfid22N2JbSbAIpn2dckQjVoQF+4MhAUPnoyG6cDxg1s/dvU5BWGsC0EtbhhRTvIonylEW9TrmUziWZgTv2PNrpxJZsWwTeQJhF5jMsCuEqk73dYWqPIHolqqx0ZsCn7zRt79AlOI8EjEYWO5ADL/vGQ6tCqHhp6V492ITBnN6XXxbA2lSVmGQ6OAncUB+qXp4gCmUO/2FECLmEvG+ik4WV9L7Ur0ic/Vy5OfmJWOtUQcXr26FoAXbrUMgCFnIDLboSSxdrZvooC/eSsCdpTbG7ntheUshFbo8YioZIoVcJbAza+uGwzwD8T0A81UgoI03Sfr5GBX6GccGnr4DfFT1GRW77KSjpSa/QrMjlwVNYWZ6Dh4KV8+C5woPSZjqCFkdG3eS2B/ZYcI00hrJb8e+9HRZRreLg75L83/6gSdGfPqbVniO+05amnbGQQRU60eA+Vw98l6qxd1xpOcKhcf7+w4uW5j4jPPsLSNlTpboBMqR9AZAJcVP00b7MtChl1qzXYzJbWAUQgq2Rul4EOXir3VXtpipgIm99sRbn9hBAQJKoPh6zjLp6BJ/GdjgaEcN2cqHpcinv33+hbayI42bKjsfKIkW8rRhH7OvVkWQRm15VCNhLLkLXtCAZAUC6OwGHMiNlRWAQzrgyEZsVvi8XEW6hXFBisEwAqlIVqVAZ0GzjEbgVY7WwpjksZT7aol1AXvXsY5Vprkk6CGvukR5DcZ1zA8Ecc8AEaeQ3ir4gi4RFHXLICtsW+bmMnnhAVQNNPZ+tNk70323NPlUmZPqKQ1w0ftiD5g5n0afQDbHhFEJ6h+vHVMbuy6snZ+EfkUDtkzmRgJymTruXAbwFvxkiyrjlrLnsb4lJx7z1nTB2u5QQQEPyVdLg2E+G5+Nbqpd+qXUKC0gEAePl07/dKzh4O4dHKgfBAmEvde5/e7kPUU2eF0/MpEoxhOmnIhr0/VD3zyHUmyN1Us/Sv22iHfQlkqz2aTUsFyT+/PnfQbV4LLsL5/Toh5sl1HYNieApkO8DF/7WX7HmzSqu66HF/MRwdFAl6xVdBlvdOz+RQTd50UiOjP98/hY/b/NLKaRwJD3CH2SJcBcupbG00pLLAUIrLmUsqA63UDS/Ob6rfDwCB9H43YodjfmIEdzNMyPI7O3TwWl4FjVyenCib9lco61iG6tvJAEAdKMmMHzOiK3YFDLQNG/BLQEQP1pBVQ7oFAWju2yzQnHwHs6nQoflkhWMjjiKwMdJeK1XQqWQX/mnSjg+Z7310vWIVV8t3VaUSh2A8g/R2pUug/Tslf3HteyRWYGaQd2YLHnHiSIP5CfaxktOL85pMaSQ4hcS3MUvyiPSnQX2rDtbwZd7/HgfKlNFCKrdP4llPnNpnWQgMbYbdKfAFMloSo8WzRJlHogYxu1n+i5C/GTZGXMheHjlBx56S8V6U0AsQK09dNtgWSRt+tPEN8AxWqR4kSffX+m1L6a28RrcGEa2p1ZEQuV4lxRmNkwBDyAiiBOzzFlX0/mFZhpOO+mFfw30GCLN94Vf/n1M0k+73PevwRKJTNvVds5rl+8nUXKR9sUQCVTrxz+9F6epsVgvanyJZK5smmRXYnWYc+udHj/UX5D2zkAi4WGnJU27C63SEZEwESKYSJrsH0Oh03iK6us7ST4r4MrufXfY8iiNsoNwXiuQDvuPN2Kuk3Q+ZU606q3v1F/H1srnXxEfsfwK7C2M77dy+hx3Of+WWuUMzAtLzPD6QJ1ficqGWXVd9OuzZzuWUZJZs8rHS0nu2hyjXStVf55VkA8A6PnY1226UAymACrE+ljvFkhZIWRyvNzyd//NCkCmLB7bOFWKCBS/f1O6tbvKFmDlN5xtRrVBRJ1PaH7pQ6Rs1yrbw0q0nHyvK2uf4AVG8n+i5F9aWGZhbUYRbD99a0tkKb+1kMhPoCroaDrV6jIYjmPPTCaImgTzJF9ZSyz5FD6tgiKSU2Acakj6vk3N//23JOhRb/aTquUfcbwaf4SBSCH6vEKuZ/XKdAfjxrl9MHpmFiuxnONJbgsM7d/qAKvow+Z4AXmkksr/HvZpGm/vskm6vRlTwruj9K5nO9+B7CytJptWkPg1iAVC7FzgzIYfdDPkHhRFRNVgPOXq11GAFOCpDJrQ9ONtU6N73K6TUJ+BkIb3m6Jz4/8kXDv4JNHPFKT+xKYwBtDe5cwoCbAK8LMxUVEwnRnEYop+euIi337mTGsbFJAYvfPC2Ua9vTAigsa4D/+zir1djtd5UYKFC/WrUQdpF/lHoD1Npc2knD9PaWIvJc5rwObTACmJINysOW5Ew8LML5S68VhS9FppTTyraQJSxxgmShGXsE7a3NBwZeVBMEgim7OdEKZ3QOX0enFptEOPfvrg8gyMgmGaJLGkPnYOQUlSJHO/4krVcFEKiHVg1D6GlOnSsfN8UshcbdochHrL+X+ogzMqEnk7VRa+vy3iQyDdXYkHUTa4kV5LjLbWvjSlOGbUEqWbHYe0YMWT0+dK6wyHmeftT5qsQp0WRqRZd0noFaUa/P2sRz2RAOlZPYLA+y6qYVSVKEjL0hW8jHSNdm1HhIELmCG2xVg5s82ikzzDiTVXOM1FRdYLZVXs8QZzaWGJmLuSBurC66LYXyQgrpO3mlSQSAJIpotF2HGO6CXWFuThRoZahCHjoI6KwWpCo9BQBYHndBALKIWB5Mp6dkZDyj0glY8/O9PyJa82Dgkc4wV2HA/pMmOzHgtxMN71TQmUC+l8/xHO/UhQzm6uFLKIVRDU1HJ6ofs+UDNEE+8iTG33zYioNR+7NoEvVdG3DQUZkxHb7hQNYVNWwPVdKQi6LPszWNkHkpbWTD/cPQCL2UW33d2K87A+T1eRbP4vcfgWE5zMaTiG27w9/ShElP0QHpS1Hu9ururUxa0P9+ti3XIAfccNcnfjiuon5wQBUJpb5uOaZPkJ1OyjVjY21j5Z5C+nIKoFAE0qJTs8E9ADcwvhu7BCjdZLJni8kaJzdHZJt1JMA56ecEBKGeQUxIpPTOwL4tQgN4kK4HxObPr/vWUJ02Dmm36KOP2I0zkjIJlVXPHlp24KeruY7gNlgOuGsVpvhWDOs0oxwewxiBt5yHHxgS2E20xHNpi8xKNP0jmLYzDjShY5/cJKAZ9+yOIjVPJ1MMOME9rmZqHYmL+KlvskKCFWuKfZY/iRLefrcZdkWVKYA5vJiLB48s0NkriTHiv/eKPQtcCLbMbixKfWT7q8EIhDW+NLOyje7tgtvY4iUQhZVlS/LlDepiYAA4niw06LxK2990v3D2BiLkGtr8kQUK1W0iD7kZoXDviPWfdmV62a6dYodjNBJOWD56/YS6hMCAtUSUT2rdXt+tAFxjdrD01Y3rn+L5P0G8s9+5QiYA7mAQWRCbc7GN4W/hJBnj4S/PXgqCgSo8RpTDvgbQ65uGsoav72K/RhpTaiWAJNNVTyd8YMvAqyiefyx2jdrE3ELLrUtc9zrl8VeD/NM7BtSpwKFS9giqTDxsALZqHFbLv0domPtdj1GwRGveT3NQ7p5g9VhKBYjsqDfRxo+JDRwebDVdqYWf0tsM7u/F/Yyev+Ql6Q60KC92Q5aHRuic/1LFnOK2rQs0TPFvugnYNmi902YyNvXTHaTfx9Gql5FWJ0J1qLX8mZ9qwAxySDB8/0g5zxY0bOmsjfbiR34zmJW/A9qRX/jJVVVOmOD+wJFL6yrINtsE8sVLbOoDVQmhunEPJxA5aJo1UvZc31/Mzg81H5y12T1MhtcuoLd7fb2frXeyifrvyjPqEhOEdtyw8oGPVM0939yf0ix06TK4988IXy/mlAY3j344e9Aya8QFcRze7zjFpu0jphKwPWnLDQ0UufPCl3w1kt0xa5uSKxYa7qAvPO6Pn0VxEsMLuMpcdS7THBBE01ljoyYcKddziJhiEwZCqdrCSOiEJr5IJrbwP9e8jAX5q+M02ITZkgywQfPt2H2H8ftVIksv6PCMgCJJTwqqC0zfc2Visjs4zCxAAX4bPGbKlQ+0qTqwtkJSSOPeDBgAbJiR9PlXQUOVbo51bKv85Tg9ll284b6S3+1LcslG/QuDtG0odhZXAw6yNXH8f5/H+cRguyd8uG9jgyY+nVUZzxNfW7T4iXUeUWN4UdGeoJWpVlGjxr2i8gSmf1OxMSbcDsyWysLxhNW0pOgDX7IzOdGgdH86tmPLS2v8k2wpQhNViM2e0j3K5L2vWFKN/3a0+UsdXbD1+YFZRBWrtCBSUm7yhpEOsqzl7a2Z2DUzKsEyJsN/TftjwKbr9DaMgpCypxoCQAoVNyv9eUn8SG2AI6XjJCjJA77jUXlcSWo8UGanOgBLEVkL6v6G3s6IhfdyoJ0CJCIcxlJH9Mem/Vjwgu+hv1rKD4XkpIEGZofdoS0O+/ryTHqE+ss7yUnflh2dBrB6IVGOO3/6DVpmR39fUJpRrWcwMhd0NFnMA1iZhfOccq5+nWsGG737L2FP4X1XG3v1rYOQSSR08VFCE1gT2icAioCxTkd932SsKmymIcbSOWxdAtzDVqe8VhbD68IqBOQi0qgriDPwA04S05AA5gADIavo2Fsf/gm281AbpXiTwJGhMBtOFVduECc4xlQvsfob/tpWhzWYLLgiPRrdlf9iwWXUbpVKeye86a1/IGz/TvQorkuI80L42izXvmZ/o5fQXW2TTXnMcc385DxJMnk+PBJraWALn7Wq5KtIzg5zIElTlV/iiVCwnVNEADlvFjtRfwfBEX9z311QaGPkMtgN3X2qMxFcKOwjFRKswDqhB1dr9zEQqjegy7S6c7GRuntoPj4xiErcQX2RJq1tTVupLj2zdAF3xZSnVY0sXczi3Z2JFChyFTxhb4e+JtR4/2DIJCW1F/pDuwYAVronCaMUoqsyRaUjvq9dMZxoqvOK60zHNINcaj+GAuXVigjL2G2maw03zIxRHvb0Gyp7W0BwIIj2+FR1SXOei9LGL4Rua9+MIMBm8Q33VDqYRsbYk81K0Pn0WNXu/wRBdSsUGvkUozkwBUHzPET6DLpZ95N7PPfgY/0YXvx2bYz/PsJb8EOs8A79lV+TWISo1xAma5fF+4a4QbIjkAKV5IJW82Jg34KxGF7Fs35LU86uQzTpqhN7GqqO9U7cc/3y5cqtlymy7iPDowTyzhl1FRHpIpstG4NvuTFhy2mv30k6tB2MhTEK1/VAE089ScdeJIKv+A6AsqIHV0eobq2FXg4L4INk+s2OqmoDiYSoFaHJT+aDOFyRwi3uJq0R24lsGOUZFuFu9XyUJ3cOJBcqNnJjAHLJ+V+n75GzwgWy2fGFyhvKNY0gs0f9y8Mvz4StTxIWDKnPrOA00KspOJhP4b3yBsvup6Wn2+Uup1yhF2Yp1wVuDznzTFnuY3J/icExK26xkXfj2rJERWXmAHOBW1O44Jy6TmwCc0lBgazXmb/L+rJmDKUCRpTM0nO1YaTEJAKvEbNtBfzskhvm3nl4VVDkXVYFkwWCpzULAM1adzPLRm8sX+3Um2a8y4Xrol2dS/z4LEqHJ3k/M9Bud9qm2bzEfpMiIN3Ob+0GhKjYNzCQeRFnTUEFf6hqYt0o9DUdm2qQ4YQ/aGGA8titzFzYkw2NxD+s9lltVpM3XmDH+TKOEsDrR/xZUCzO8SZOeI2eVs4l0cOT6Kt0u3fsV27y2jZ+a0p9Q/rSM0oTWFcMgnAZGxUscVF2qHUKXsEtYVHxIq6ZsNL96BBTWGhk1wnZoYPZ+uTB4yhP5ljW6qJ2tbPHyfF0/kkLqDqrzu2AHheUj7Kq9FWbjlJpSd4k4UlO3u6xHga+uLmdVpPvmhqdLQqNPAgiKJMOM9QNipnsC/aj8Wv6THLX3taDAsBycNYxf2fIsZNhyjizAndMVoqUuGXjd45yYQK6eCekd7yMcFOSRABpUeV9Qav+3hySz7onQrVQyK/WuWnz59ARAiXf/xAy8kolvsvNs36v6u8XmavMRx5R+Xb5/sHXTmdznlIZat5+EemNZxIQ0O1C3ugoeIamabBwC5FWW1PKLrPNgbv2+2HMH6PtRBNSilA140LQJxKMnCZ170bMyHSeCKxXsTQxAuzvOU4QDBEUnC/eFklDuXA9crD+gv1loZ3FJE2bG8UNnG2lbHlJ4smmd2gfBly4xI7Q7rVhXfXHbMZNufnX8GFxIpnGgX5zvPMcASSPPZ9EGG1eH9Jkjg39YtpAhoQBGAPSmQXoliH9I8RG2YsAprnfuoH1VKfg3c10TgJYiVeLMSjjWfsvlvdtZtBxj9RCad6T0LiIPcqSMDw0BeOZxyb3a4p6BUMCkQFZIhXLYjIlyOeik4UjhR6BoTDID1HRqNtJpr3qajEaJmXLDN4qObwVU8LtkGwDxG7/2HTvJ51XqjYdzPkXKEi29lYusvxFoaI0xEUOE78eV2y3rBgYrv6eJoLRAV0fRnzB/4itZBgBePguAB6g31FeC4pSVT7dX3Jt3vYIcPNkMGy0HobNLAgMreWLbWLqy2ZbXXXEZfzfVEw7OTxIo59HcGJkpd2PRbfmC4RaMQkgFZ3o1jtnRMTHuHNSdmFZmXweor8AcTQEd3cULo0LnKW32uVRhw5swmP2CPL5Pmtk5lwnN6SyNNgpZM8cV5JjQ0IUlSb0wgodBHIXHbaXS47LzAfdwhUDNkAoZ1uPPeAhnq/ObBH00qrfYCN5otxCvD1E7JeaGQeJdwyBWkxeDT2kovOrphivl12UaxFMjV9VuhUF+F2SXvXcED9kIMpbnMKHlASxk8yM0nj4/4wBe3WRKIy0KKMScgfDzFjhyy8nqw81QCWblj07SEQ8kg/OdTvEsbZv/jc727SkVGR2s61sDZiTTr7h4UzRBgygmRYbQBogtZ9Qs03KMPwvWvvOTO+XpByf726QmMlYRrMUEzHhRfVl1DCj+HF5TTAHe2C0jzRMgYVHiOLAielngOfDDlJBwyzct5TtZ+guRNcnFmzjl9UMS2qBjPXFz55HZoleFly9QqKOha9Kfje7CjKfHBi5plwyjj45axvMa7qFEg2MIpoHW+N2zsiLoqYoC5VfYchxGfKkAV3FfqSTYzFfCDimQ6sekeSX5thKHtUtAifLtjqxRZLS/rHS6J2qjrdnkhK9MApFnLbbmsUNq5RCx6nsJzOnI31C44BWrjuX2MB7TqVbbzjqqWIXGp8CdWaS8wwfkb+ZIC7lJbbzuKPfx9pwNj1WraBh2g+BZ56TEEkCpb87fKfpQ9PE09c3jAFCWbMEssRd7wQ0Bm1GVnKFdA/xZP8iJixdZyEnP1+O2WQbiRkhCazYahWDEDTKlw71DJhK4wLVIp3wFZx7ZkU1U9hUKpgGGYO2WKB0g0Y7BfRHx5ANTD98SRYZwVCO1pzfByA9MiwWhCAg6ufDSWdrpPQQ08XbqRsxdBLVsCBRXEAt2UzGgtqJ43Ho7p2YuPglRV8ct1gvzuGDgAocC3dEq+R+X4HThxq6FimledYVCuSxEiFgLv32ziE/IvRw1kHrBSxVxO3FPUx4gGbpMmgrxqpGXT4+lkZN3sE2hQ+wBZ8VUcbFYbFOBO1AgGMWVW9mZMqtn4DZpO7AB7ovaxjSWhfJu+2xqBRtaEIFZFnGSNhAx0pZHT4GhSmg+4MEnDjMvBvg8g34gPuMGYt03sX1szk4jg7wB+AfngIfSAAobV3r4ay9PJvsLoK7wOwINThahOnVsHWuVaxnHAbEUtUtJyo+0r32YJvd84oHw1WdahWWYAJsUNQMYK7p411Wmk2mfcSr9u9WuDx1p69ToRsnprOegljxtVLeyS6xdQOZz2Udyh4eQZX4/xVeJPHaW+7BKbxJ+SE/HGD8l0dtYg4KhWL09Bo2IZjLXj+n6UnQJ2pS1L/uaAoqK5FPz6JRa4DM5b91ftsNjgGD4aFfiXZNfVOMNjsqqXn71tugWQqRzzBzUo5SRsVdPLPKHxHdt7pys/206N8goTnJzrTABk2Y34qPXbb0eO10Si168mEpCG6v4f5Estkh4IQ7FI4T8mXwPnItbOzudAO5Z7NluA9VhwmGGaZTIry4rtPvKy/kqJGtE59g9/F53Z8WNsXwoEie78sn6IFX9dR4uQM4aQP9OovomdHx60QajwatCCD4vIx0eAg10tNxlsmItJQk6ROhmmJQxVH7dA5Q7Jt8ebFnkG9BfBKqRNhZiKGpAAZzouUCk2HwtzXIpHL6o8/pGBoxKVZmprHpyeYEyhgEro0El+c0bRnjH3Trhu58N7fCbhRKMnK1kwP308GKRVinbUHS8eC8Edz9lGA0FaNyyNOFoQdMlBCM/StvrXQULjTJejrx6/zvA3bsx3Q2QKJt4kMzwdr9LwEHmCsK3F9HFRMTZOIBPhWPY29zb+p0h7p/Mc0Ijg6SqEispNMal/iFPgAI/3Rd8oJ/5+II+TKvO/0XZlT5HZIdVG0t0iqBpXYEL3mYayGVv651PxkkrP35xflHQqH1KkccpmjvHk1zp0WGR65mcc52ezPxGALy/2pM+UijXuPeNhLX5F3UB6xZ0YXbN1BEZci7XxCTAmH0fQhsn/Jmqilu2mJfHVDEksAAfhUiEFiopO1cxZTB1AmaSSh36ZIDwE+pgVowYXacRO4TaXVz3U42uQd3Ucu+gW/fDy/yoJWC10tXtD+uvxQrE/wBFD7LA8LJG/qK0bRIJONokSkhCt/ssxXUY8sMbXzw/doOaIVQ61+puHnBbIMu5iV/iAjRo7KGFEhHcxQxG03CTLqcvSnwLN8hHure+gmz9aQhGeo+KcSGAH8lNDXdKiHCMhWxJnAEwf0HQZ489qnAl7IpgN3BFLpaNHE1WQ57rRRlOFK5o3Bbi+yeEApZIpIiWggyCnNXc1cgO+utXrMdJbG80Vq+CN/iBSwBHIAM00X9e2Dp0vldaTjDmb26mbHgYFtJndT+/wAFMZ/TJoMS6vBA8vraHB56+QFsGLaEMQJi+wS9RG7bal7Oh1UROXubHSIqoXna9FJUcBaFAIzNHyFcjaFblsfX86tpDs/75RqZm06C/AoiW5Ee+tQicw5Os3ZdF0ACDYclMeWfh1Xk28YqrrMCKkHOIF6m8ETOb5UHhO0ADDpju2WcASU08rFTRYhYj5zMLvnuZ53aHcX5aYCx0sN7kF4w1ArgJK5ROunI6muB/5HOgnjYFlIMXJQhvuJcvhsBSzdbhwJWG3u319NbGYSUloOKuEUsP4vayK+TJQxXmuHx1UK6ZxNv2TWAQIh+hGvW4rUKEB1l7F63orpvLDEqhxkWQ5K1RsJNt9ypEj55qQleFFeKLl7o9/n1BNtkEZpwGeE49tcaMujEgMeYOS0FuC7XqAdRIJlSZ/RJCDncEMbpH5CpClW6iSjEtN3yN32mgzu6dWTivoKEHY6ULUM9Ztjz1c9xmYXfRTA0XXMRXlLjHsaDHZzEtL8LEHkSWrCSfY7ODXTYpp6KplLoNwORLPSdayZQkgQRE965LV80/myayfm7djmXgScl50biaqQ2z4dBj5UCskzA50O6BFnX0WDDmikEzURdxUtEGonjtMoMNeukCrNZ4MaXGTTvOmsNKg9sfD+zbyzuFSskSlSqKYlO6QIhxdffQaQzGwRaZXjrbAsIGb8BNZNkE/evkPBNLhLc7oxb1htH0NlPn2jDB4i7rqKbdVBEg/iT7snlNArM4+vwJOinHNP52Z6FWzW2LD2mORwoVNMvyba0pOYcea4y7eozqU71Ut+L+hduTLll/k5nr7ordhG84IqwzplmMAw67n2SxiqW0t5NNW7QuNC2w55sqBQbV/XKIbtS/BZMDspfKKNgI4BTMsb9wHnppXPZqTWzXFimUMolFsxgnT/QREEnGX/EPigqS+7p6LS5xtrxgwGbOcEwj/vYPhueEDTKtDHZ5pg+/QNo/E7IIPzYduZ0hd+ryDkjBjtL0EnDUn3DM27LQz8kGMSV7J5lGEI4rtIMS0JnGd8A/1B4Dtsk4/p3LcjkEKV+fwAKUCOp6in5mrF5Gwc1hke6tFWATqlw08Je6IvUR8jZaFps610dzbA0PWVi+MI4dLJWun7q8wVS7D4YiAKbq371JRUExlFmtjOWXyBeGZ87nz9sgLQhKuS/8PAicLZIbY1PdDK2KluxpAPf56Ua8+IjF36BwsXw18RKYJcwz1kB3udfsZ65xQU2CK8ZFbtNfT2EYKFuaPxjdS9svTb2h74o71L7oww5c0q2kMk8uqyx1Gaj7MRcvpzgYunp0Cq0W++VT0QP7mJ6Z/kEkdAXdPGgJNXEZEZFPkMoL8YZ0cvyh+YNME7RUjpr8HINoGvABkdOB6eorv1Ju3Ct4sBEmgUeOx04No/BsSX0p8IiUFNZJbSOcdfzHdhIEe49R1ae5fCBJGZueHzJc/jOwwmaDeItZoapAAJLPAYKWZUPb7GEXtepVyeepxzSJSF086PWiUbuyrMgrQ2Ene2WZ/+kqfv2SOvVIMAF7gswb9R3KE7f5DZHBfdADuAHw2Q9yixCc+YYpxb2D/K286+Z27Bg78CsrIfvF1Y3e/tws5NEQewLAG4Kkyq8OhKxNCg5/NFn/pGxllR4Ja8R8F37vLI5TbLopXzWulRme+Bi/CQ2HQU1IK3AA8/CgyeMjU9oDTa3Mz/Fo2MkGoey6uv43/7BWAzIZ+ClrwRW6x00y/eBgmKVNu3gEf+575p4fHAslVDcR+u5XS2Te2Zxp+/Yd4SDuESk1AP5Xbnjp+gi2QRAZm9FijRcIcTmQ66IvUfcAK134gQT+AO2F/fb6svFHZUMXViitxc+QaZ67FuVS6ZdgNNABAuj2I55usVpJXTHl/Xz4RpZudFkF781wIWAlUKQzQdfz5P/gWSFzGBzsC11GUyhP8BoQKhDJ/v2f1DKTVpkCnhjXmKT9rmiJHk941hqnTbagT+qLDosugsCVZonXYbu64qU7bwU2YUdq2w4RVOtRigyU/fRfuPVec+8OUz2Tf6CoqdREH85k9sCY6lKPpwcXKz4oGJviZ0HeY9nkfJEhQOBECdP5pM8yXSICD533cgSPVJJSX7Rv2uYKqnCFTooGCXpvnK/ocWy/cAZuElDu4BgmUf1wEuFrfcaSHSGdV2OCiWiJPTnfsOn1O0Z/SVjEkS1/Cj345jOpkSKOqiHhyeApqBPDrSFl/98DgQ1l0F6inMy8QDfEQkMdYT0FNyYGBjvG+DwscuiReDu55hYxW4bFW9R37kZCclZaVy+nrlfgke9L9Mwzq6r77Bkgif2sNHjmC86ySJnRGs//Udo4BLpDNYxN7sbMTgDoHRcHzYp2R+Q7r+QXGAAEZXxvQtfhl8QXVrl404pvMvBOwUxkeG0WHBCnWKzKqyFXZ7OiiPs7RfON0yPtU8sIXkVsbyQ0+2qKFWhPVNf2/WgK2i/hneW2qI6r4Rx63hwNIWY6uxSRCoqQRYek6ZNgNHVsoUe74rOsBhHMxYQv3LOPNfk3HFET8TSfVyM2fTIGLamSrvJvJgRjzndFEaIsB1dDaQpYFySuDNF7uy0utZMgEIaZlcvw3OXwz+Oj3sRmIa8vqrKB/ok0B/kDm3ULpy0MiJGtmgP6RE0aQ3/tBMX59hpvDgRCIkZwgbX8XF08Y/VEU1Hliixo6oKT5YscoBVo2usljgw/rYhNNQybBsg0XVMttbHrr46EhyTLz+NP0b0vjJwYP9N2qsU7ZQo7dh6qamEF6TwGv1vM9zw8NVHOOOFBaqgZgAkucYk32IC6YtEeqdFKGp9Vvv7FuOKpifCk4gYAyNR9zmFvLbOo6oLLEC7pOd5Ey7NMybtuN+IpE9Sibz4b2xZ9umy4MIjdgOBIu6pwZpYhpYDkC3zJHp/CJmPVt3HZL11v1N6Gv7hsNI7et2oF6FOpc6yZu9A656mhhG2bT0lRk7jWTGI7gqXYh/cfkdMMdS+PSqiP5PmFc7Wn261vogxTN2fePr/Okh5+2cFcrvg9XYnqOhEimj5NbID9zVAl9S2FT/Bh+6Cx2fMpJNmElqrdx9WCacAs0aKgYAnDQhki/PgH1LVu6y8ezJ8vm8MfzWU5ULNjfw4LP5zKW7GdWKW/3BxMAn2Ei8xhx0kxPSDQehQ06YEZi9LX57rZjQz0VDxDP3CnLEZBoC45L9GsoNEPyir+8RcY2oF81P9SUkjiu8nGrOmNCv8IB65tpigGmtTmw/NBvbZ8mJ9Ft+g+zHy0L70Y069L2Rci0jUJK0mTyhcTIZBvcRoZgeC+NtWAdsMPx7EmzesgtJSFNTVlSljCjPloHU1zMNfgRvuKhisnd5htCZBSzdi+A9A7kmVwzLR3AJ6UrI1ABK9R1vD+Gqp1Ken3/ekCMbImgZ7digeVXoJnyDOxEsfqfmEJw49cdcHQptqusZwO3I9dWBkX0R0YpgR+A02uaEkCIH+BVwqMaow6pmbTWqpCwhkLmZytJJ51AVqSzrCmOD3ZzXCT0PvsvYulKrMhqIWbzPc8iC3djeWl9O4I0yj9ujy4xiR0weyjV4hqPevGd7wL0BKde3yAg+6ZFo/kI/hg3ffYzVD1alpdz/OgUMcP8By9ro4pUTDya6zjM0RJ7h5jR+8U7f9ZJ+Y6IyScEtrTf2jY8Hm//C74d9pAs8N0C5wNgdjnVuU2ZEnsZinnnfQ6vqK1KWzPSKgmuuXmnAKaNAmqGStLhqhvUO2aVj0jT0y6leBVWpDrHm/ov/KMvoNTwrpQlQOWpxfsyLus03B/roB8CS1LXw38h91YIOaPF59LtAwkZ/1DfnBeWcG7AdlGHWRxtQM4Ep6rH3IBQWa817qo+cnJIlDgH1Ghgx6MRyNYqUd2BmswAABiNXQfpnq8JPNSuSSkR5wk7nrdqGDnQb+MaMPHcOWrYbR78xLQ/CJtHKfjK2Mhyjrzsn5gFQt/Fs3o79g34oGqozaz8ZzX6noL9ncBKUdtvp39fksxCj85um+5aR6qQoTqvGKvgKp1deD3m90LJHpQFmORtbtsLxna3tEXpWBNR0K9Rk7FLpqmlXjY6yCB2m+sukF3lSPP1YmsbCyIxvYAGP+ROqL1E3YPG5iDUZ6vaDZKFtiCvv8OhDk+YkTUBuFD9E2YK4dCzKaGFENTyFOlbpxr7zzLqUhZyvLlhEDJi8No6A7FwSdyfGn9qkPMKADh3HOZltYRJalu0sEWPDrICO+KikaFkl0SD6IYsvrmOwHIIYKB6tB9il4hvo+aRJnONrStI1XqbLJzJJue+5Qg0+bKX9b54CXhaHC0PA7GHpqFHWbXitS1OyFu9kND+6pawDVpy2YhsYouraw/rTonRWnq+eQO4s9PgZLFxRKivi4Jsl/WZZ4h1GSuSSEpfl/qELnjq2pv+J7bOq/GpMSEa9G607hh3AQ2gO4AbP+5+bD3RIYJAca+9VSt4KQVMAWsz8EyHQV6uF4B7eLANgI3Hk/x6EUPI9AOJmRybNzW2pN3a3etWI9Zv0xkxAMsAnFMh1wAHFxfwGdjNtM9bHN5Ba8vIjyk4ctLaaOamp0VzglhUALpXcAcF1dtqdBeSjFSRz0Q8vuSSt9h74RpyT7iV6j1txPv6BJYLjHy4QO7Iiv58f2he4tW5bokIJJlxeVNxHctG1sVFShPU83pM4DXDxMUngfA//3IjzJA/O91Ty3QQXl6Yve8UOwJ1iKXre+8CJgpyiz4KtkHCfF0ywj0OiR9RRHrxZ3oeH+SY78hxad/Gx43W6SyiyOePHmVlhTg3naeLWQtRfHPfvyKCo2YBw31SO73G10Oyd8hJwzzaCuKp5PVYniJ0RXpsKhdR1LRlwAR5uOZVErBC5zWiNkjHszcRNb2ELq6bkiGmKnJojtnA1k0ZWYUMxKslfl4Rt1StrEBjUntwgwYZ6AqnpL/hbpXGCvO/PjNaPpSTo5Xar+HzcrOtmSGwYF6U6xOzxIJ73Qm/TC3yvJklcWxg4TCr7LbVyLFzK+VJGG5VCrfIwD85sr2RF5s2BtjV7rdUb68bHVVD1BGqv68s+62dmXICN/Ob/VdBJXID3+X0q0mXbNMMBbB2B+KACUSlMxcr/tTYy5bFLwUUkMGQcZwEv0f+RspC6OXLbYmGdj+lwblCkMRnt4OFqf6IWAPUi39JNpOOe/drwwHhVmfwynGm9IgqXkzG7q6vhfwMmt0x+sFIwveWtBPnv8CrmL4mjbH2LTnxTY4sKJ//4wOqmXnlmjvW+3uK0fRMrY67qgfnlFW7B8SWNWxDvenSIW/QcFvDlkObDJj8Qr2plbRXMRqxiqQQ4pGoZflxnrflZV7PSBjqB7dz5NxT+MorZj2I0LC8IDwSIj2zGyQZd/5Spxi6BfalGY6Vaf4BONgFFndCMuXMqDo9G6ZC8+T4dS4KBHceHuQO9Jfx4O1urXqXybKhP4NWwFYFwna1WP9veFMnl9HzRPhWiyEyNLTqZlyh2koX2e6WC/jzoV3yiWhpJ0VW/Uf5O6LahI1v+FzTeLKpYcyKAvcseaYKC6I7aq+MDIGpB10cdugOqzyez1fpNEPU/35de79NOdR/E1KZSyNW8xZB+ZgTzxqI3w4moelK7PVC2/tvO73jkRdL9HtsmmnYBOYGiP28uIrDMJd379hl9MHU5/LxdRHXfSaQsvBj1Gu0BTel3A9Ehcbvbh713h+tBXhWfX5ms1kPqBgopR39+BTISOryI8LhMds+Io0b872iRvtvzHvxu4u/YJFVu5l6MQS81ocOHmkIj4bS5NADCxbZ3pRwfJx4vhg4CgvswmNby9Y0dnb2CQrCclO1hE/Oc1qbG9BFa9wGhLO0HvhoMh0k60KAhi1oBQlG3JOGGOAb2/eAXjg773FzqdY8owVXw8fZ+apvGicf6GDcW5QY0/b48B4RcschaHHUVp9Yf6dMbFvkAazTc40lAJBB0hK1fSi0YkjsOCm8DrlK1gjJ8hD1odkmRFzcs9YWEA3CRbQO/oOKPOd6O8IEJsFswFLQbdwHzSsoe3CgN55ht14RkbTPdbGtOJd+DY66UEdVUOkUBF5D9mLixciQC7dCQhWV1D8qFr/DxTaDt5jfShbzwsPhqeAU7JUolPtKAaiIHng56nZDQiQAE965a6uzaWLrfpJlTRHncS4kukcxw5zjknktTwhPisL14Zx6XrkYhtTUiLFiHo/P2mokk5/nZGiOL0S0THTSFDZDMjnXWP0mFA8vq2cVtqFxcMw6fhksKD8R2EHDWz20uNfN/nCrfYehliLBxqxnkyZGGgbbVUnlcF0Fi2++MTA7tlxcSE4vwRcRfazi1CgrErDpvB0+KAQJTbZvqJBBI+eTDCFrXf9lYDsP676B8JAMYJ2pl1tEiz0V0C9uq++oWGoBkj8+qVLjp4/PeHubxhPuxLIKMLAs3u5RlRD0KByYqK7ruZSa1ZhybbKZOoEkcbLkqSz8PYlgv17QkLi2hpFlSV5ipyLqiWqpwgEC6wDaY794AINXGgcpIT8V9mduVtPPRCQtvxEnVOeBjt8+GonYtfFGuBfjeiueNmzKJVwRQ/c7DE+7GIfxbPSnSzufA2lWlmXTgWdL72qbyaNG/dw1SsGuurGATbKuqYEy1shYozHdj+ZsBB8yvSxSWcRr2WCryeJBgKGdWlfHxXB+Q7DLhgm/8AqZX7jvk9gDmOABhukvgKpgq9M9ac8N4+nMjMHkQ/GOZiza4IDhJIlnnH2uv0/U/9/4TQkxc3qZuH29dSFPCjyC4/cUCzVdNiwspOk68JxaNcuh7LGP9DVz9aMeN37Wyy984HzLoDB9cBF+0yGByX6IhIl2gJntR+TugjYLlK5uvax0KJYaZY/RiVZROel3WyOSto+QmFbuJGT/9EGDOGcDeaVnW7mjo7sJquo7opM01FAlpuYPUJm7yW5d83XOyvneB72TeYcfT6G+rV9+JOY3ouzmkStPZLtCjcDNdzhjfQEXoTS1LPDvcmhBXj1p8CIgb4u9IJP+RlEMRyLGpkIlxaH+l2IrUe8cD7ahiEDyI20y1wPeylcCl9hzJA0orKH7bcJhxnf3s5OhcgZM9HWEBTeoT+wgPnUUHiovd7taOUsK/0hQ8v0oMi09APs575P+U+9lfp1CoMXRm0ydEcOpSnqJ/1d/V8DrGM2snxg5vkD31SyVQNkJqLlRVZk0CRY94iyaoGgajq0o7E3ck7MlB2L4lzV7K+cwac1mUqu8yaJsXnsaO9IasrSsbOt6sAX6dYSPtbnfuh/jEzlDyFZe3BjfyEgrqdILTNBGDKPbifM82ryH8XMXdGbyZ0yl2d7mztsewzWL05we9PSelF3OoXp2TUXxeUW+4KT5vAu+oMo6HhI0mIOrzuplNJ+g0gd8T1Gy67oFXgq3+sJuZ12/rZksBT7UkC9cXWGmlQk4DvLU2GaoQNpX/PkP2rJz65gr2eSkE5POrjvrN5y30NnbdeaanhEyXj/+4JGgtVzrT2HD1FuITUt1fkzGnoNdS+DOepiH5r2hsQ40HfoItMJn8FU25gOxBTlAzONskZI9J6dOXVRQhmNzNIWVPj1AjGbUJZZ1EcTnuvIcyI/Ru05hgqmSUp+b1XXojlYU4BbHD3R0BxdM+zA24TLrKwEJTXhOf4hYBgPcx4nH+bR/CXqTT22uqn7SixJi1ngLxs7rCim+Crzq4ovDBFrDn2htHUN3tt3ASu6vjhgwRnqZTBT140n+bhapl1hp44tE0H4xDN6vF+nRBF67yQ5xPPOLR/rKSsdsQjth3TMDhGg5DBq1Y60MjkxtMpJT/0iYGPf1VhhyxGTFcR4AAb/uLrJRIfKZMvebrKnJWvDWnpvL8XVyRdV3LX4Gq0nOFISpSwj3U6G0hUnkkncbEmDckjEB2SYTcCG9924iyiFpmiNrBycjDSIHACnCoSY+vQPXv20L8SrNE6G56A0FOLCVobSWe0jty0PlpxZlW010fC+GmeTI00Ngv76GZA7ij+OZ1vQZwbw/W0M2aWKDms/Ir6EVCp+7jhw8yle0vuVUf/mTuc1SEXG78suPcxa3DxTQDcohnR+peSmqFLVjV+vPYNIx5z1ORnOEZrGl6WbIuP0+Cjbe3IDszloUcxa7CfIjDMSx2TOEg9snSB3wccAVRRXy01oYtOpl9JFCYdKk7rdkYi3FUQhD/MNOJdPV2/IRE2JQ4OTVQphIboEF3efdebKp0DOyt6R97Fl2v64CXz4cjOGx6x0n2vE3rT4nUpTsCs7PaZnHdPHwNljEjKaZcuUbkBebFreFZWSiB76cvfCYploPT93uUiUteZNyGLYDFyOv97xS5Hb4Mnwrj9yLAzcqHmdkhihxMiaR6CRfnAksXdXb/PYpJvw+wsqvyW4WxtLSD904oOKXmSCoQ0+wf/mfejc3AliuIsoRzmNVrrRRRLunPAR1KbRRlPSwd3n+ZsPRHvaYtetqKv6Pyb4A+rWEBdJ7877gq7dfE9OXEK2Z2/iwlm8EFv9ScFHX7do+yUcU590PMaQqPWxoomS6By0ekZiGbsqTOr+OGsSROLQAyRZSbvBSd20+7Fz42WmM+JvvTsV/MHA73bgkPrLk2PQrNNifHQ3v1Xpb8c+r866LZ6aNRfeDIVR2If89O+TIaRKH3IyJPZfWgXoxrlC1umll2ZCysziVoEkHoZMpn1cVifxuptv7e6RRvA41cxRfSg2jG+/7Z2WxTsmu9ZSjIoH7oDKrD66juUDyj5jPq2EQm1YexvWQBDz0Adra8s4f0CMm3H8KUmOcni/NZOtWHkC9OApmemxMKX4/zFFAkcgEqIvuzYFOeyCkFyXyPvkXocy7hIhopWewdiAqf56TbOvtZFmA7bvFgSjlCQjSQzEctgSEOq2WtaSXKM0XUo0OBimm8jeeT6cB6c1D8PgZtisuGpK1KOPXNkPRMIarTGeXrvgMaK+tY0vULOq46xLZq+Y3w381Sq/MwL6Kmm4RYgP0zwIoh8ZvDjnf6Ve9Dwgp+jWo6QUAKMV/Jd9Ib96EzKwGhgWHtsS+Jk95GTCTbOPyqDz3ntXKiNxHQEfUzu1qlOANr/ij5sV+j20bIDO/ULi89rNsRD89FTPS6WkkJsXFln1PqhwWN3StuviDQgKMlEkmaSz1VKFhCacSUEa4qwVaAaPULsZRvNX/zRevd3A65E7frU/pDs/wPMkJs3VEGxAyz6PUxDQA7slHDAAAztkniLk9VhZ0kMHyYANvj8uuILy8F7lGlipcM4Ik9koA3pdRWw4+k56xdnRIOSbil2u6Y08TBu/hYA3cgM7t37V9a5isfkCcmHQZ+d+U7s9qVAMNhubgoDFucmmbDy4rxm2ykxHPuf9r5MwBezgHedIT4i+FHTGygP5zEuEuF/g+85rJwJD/ReFT2DBkS4RbIi7kwr30RbE6nQ6Q4LxjTOnyK+iRuq5Ko1+P0yQfzyl6PUEKCq/ORVKIm/RQ5+5NHr+f74xgGV1NWp6SudoUqHgiXZF9NX3BznBGeRAfugFU0hQ3wGZ6k4nK5rMjcSQmN6S7WcdZ44QDpz7+5PM1YPHIUhuAchWZ0TDv3yCxYyzyTEH/eJTbHwbD/gfp57x9JdH9u21wlf0vN3DriCIcm28ul8Xom/bGY36mRWtZ5Nq8AM4b/xNYq7ZBYZFKN5RThtdcdlf+ypj0T/S+3TLOI2TIOVDbHwXtMHN/Ksdbu5Zqcakt3zKvSHZq3c/6fArk2RIBuY5xfu6P4v/+sI0mEC3VJpwUF6A2VRYDF9bELTVcgHR60+HHPFrWpK3j/DOYufz2fvqUf3XObl3EiAOJQ+VPcBjDswB4Aw9IjwpN5zDAJMxxvv65WPfuId40JKNp+mSWEnt+y6AMEATXB+5paQRRbyGqiA4wDjYr5OsEIT708CcdxDAmWlfwRunbygKkTCTWSVqX6v6qv/bbBDgt8kv+I+OGyYBOMYb5L8j5rGSQHJXGRuHTrrlJOtp5zj8pdlOJh05w6+SEtrr0Kwp7KE1cPzdp51WVU9Ya5/7NiSpKD3BWI0T+uh8/uswbfbfUNu0sWv27oEURCwNyg1nW3887oMlZjgKowZlbJz46sixGYgBK4ekKTllYAXNgub9QYrAzDYN70jWNc+MxdoNzlFa6B/LtNofBfkNED1+eJlVE5F16lYK9EcuKOC8q542DyPfa5OTUyjUVVHqoEEABnKbjHBiMpWN2K8HjbAsHnHfgfAg/PZnoXpk/BPoBwgxZrJMnXqP8B7023gRemiSRxjlGy917JwMQhmbYVBPB1sW22x9UT4+Ah8vUC+PVwl8ez/NjSV+y7Vuhra/v4pnOktMpq13Rei142+Iiw7hGaJcrTspPHfCJWC8BMaMrv4SoSy6nhy8034/KzFjZlZVG7q/+5PHZ+Lv3s4G4UyBWLOVUfeXwDwuzh+gAJQtpGB7kWJ/VXitsuaH88TFRKF5HMfbLLCgMgkK/XuPNp8wJVoPZwUZGXJpOmfbp+wdiC/tyCleL4+86KmFyWceXu0tfp2ZbDuZDpmFZX/Rowk1zjpdmPNz6jsApRP36Ccf3Amjh4YUSqnvN1KGic9gAkzZdM5cQiMDtmWSFmpn13rNzcnGAz72xPTRh6P8wQlI4x+++zUxi4Ggj/l6Hmg8tjmhYuRULSqTvD3ISL2ZFFSMpZw6bvxgrvZEtgV1EKazzLtD/g//0l08VIk7f94i004zfRKIH/ao5GGZlMJgAsgAGUV9jP94YYCrAc6l0LHTqTLL8U70jGvC8Lu6AakAcAvqxDUXO8HJK0ZhGONJ8f35s6QAtrRGmIKIH5u321BBcuiO4jTPS8VfcKYEfiqgCBzKPaoxoU8RcQc1LivsGxTiIvqYEBnIlOGdBKxX/McAPGxDzNgUc0MoRmKdsMXkQBLnHkLe6uABY0sBlvdkqKBqn1ZiF9VEG59LKgxrkfFnXUPiH1KwZ4QN+FMT3wpyXPHRsBI4JCq+KOVVl+2YMea38g26JyV2ILz/Rh+fvq4XAI/wP7remtH/PLt4wd2fVqHoSF8jyB7t9Tec86Hrvm0eD+fbycha5abHPsKo8WBDGZIaKkd+gdT8h3s/tDsVTH+BNqSI8xL87gkDh/ixEUPeW6RM0pSN5viRUqfG3fxIGNkc39eTVxs4/ALMXB4t3YpUjww3Y3frbA49s27ZazwU9CogoBjVggfk3udgrcvX6AsNPEj5kED3CyOCJV5r4glVkuEjg6RiF3Vs+lK5DmtGV9hz2a/P09AgPSNFDPcPOzqgYjk7NmakUX5LYAbdSV7VMoqqZik3ExmVGTtEV4LCOcraBqlI71AICCcd3NNn9NfhyH7DkROgIDeRAUKftm+E1mvr/+050kz+Ky1kAvR3CfbTJ+fMr9MAn4eMkxP6fUv2bTpq/t31CsYDQXJTYnpZO0fkxMTA2+euJCMYKTr3lXb/tabJanYHyt6VCha4ehFZsLHomYWHIgAh9Jj3llyrG/YK0JBxgOTvI7EMcV/iY5NzNVSq6u5wv4lFfbFR6rLHbdoH8Ej//wWylVu34ylLyhHK+xQhOa0vCnSghCxjFrG3LN018tYmfq6SbmXWEgz8u9i2e3tAZ/J3VVwLDZmryHmNHrDgCmbUCuWpVGosSCtdgVnzDflSk/s5RiKDr2CbKKr07zwueS44GLo+C9if4BhmEQKdCFB0GF+Tx5YBxyIxXlQ48/IzRsfB42K4Kc4smWCirohrpEtU5VV2s0q8u8LD2JhFLHpsQeBYAAHDh8Zppyb1wijUi80oxO9Ok9r49L6o7uypwCfLIgUnwDTRF90KMJMp0l/rasl4EBmMw9X2QnybbDxBDzFQLF+NO8wTAuqP8qphmFo/6QNEjBHwOluRH9rhGNLv6xV91kepjt3c7VDQIRKrpONyKBibgQRojaaqy+gX9VSolKbQbbmx1ihaJmx0zbBaw7WRPWSswUSe+H/LnsEghDs9sniLYovLrwur4bE3e86DU76gdV22vEBpXEFDef1c+jepgBmJOYPMwfDjudSPO28UHtkf+sIwJzv6G2FJM6yZutkJKs7T2aEya2GeWp3YPoE7pGiL8qyHXLPuun2dAFg5UJf6VE9UrEZOR53iKsa1LYDIOLf1nqYoJdb9WkTNkcjNzwbS6ptQls7XEDzijgFc80fywY6rFsSGm3WgFx+J7UISKO2NLbs6c/IStHpssCmckby8ieez+d2mQVLsJyTOhpdtW47oZxyoLOYBuQSZoAK/wUaTZRv7PggQ/12xGr01Y1LKKBFjqrA7MIY9NEUXMqrRk22u+SHdjnRlEg6HvXFgykQexd0kLZTykvfULu/JBNzaGfSYMwJkaHt3ndVZujttcfn9sKeOkxywGaJFMDRMxCaUE783n7RxE8h6lzRWCeKqhGs4e5GQJsH5uYaUrrE1wd5srPLLThdQWwn+RGggK/lJibofl1MEuG02c7rnh2PH0AAUmw8Q5z8QJ9GHYd3c27o+kcnK8qCAv1T/isgJsLw1NaK/svAAgI2XmMmTvM+Ir3Zr5ibBXY54eX5/u3gcc2As8d+MCflVImikMCDIyHLXYpdbGNcQbETK1dBplha2gpaRgt96UXYkrooGleK20SrdvlgqSzp+mAePoPyymumguWmbP2PJoBYV8JOYfuTxzp0AviKp3FaUI0g1sFobokgRYx2LFDSXQyFFGOp79djQPNYaSLV1lErf+3JoNpAFIJjBcT2bjr1dnUaHmOFI56a/KWnhMA1AwjGGJtSDtjCky1PH83UlDMysqkaf4iXK2SxfQl/Z5k5WX9PS3QkuNmYfMIE/1k4KyK9p/ounvjYf2yRp46uwvJIqBRHtwVcnEfZ8Tpukqoq7hrCyugdPD0Ujh3bdnJsdSbDJBq08B0gunW6ZknBp9JitFoErZGctmtxAApPp9C0vCth2f8STkd4rkxQ4UnW29dNYgISO6Bg/cB6a+RuoWSt6sNufRpGKJFEQ6KMWgxfpiPaNMNKcB2mdyuEEritFbAJe/4Xg0fKD73yRnw1NBcMQmEJCoHyG6DZ0/547d6POKbqCyIPPwUJWW1gZ7Jkx+ri6v9i0ofAH6JIyD7pxYrLU5v5QBN5USfTgAmVfAeYcpCRrpqTotdAoWIQIvxg413XUou86b+UpWE2GgIahwgCcQbtjsWJTDoJG4JTvGR4AkFkFUaOhp+J6E4MUx9ujIxOo6mrfmQN+Ba+nc2RkZFsPrMhr340Tg9y29P9JhiGGJgE7A4aH4RIWJW0MCz/8Sz+K7ofef5UAAfQPwKnoPLzLnv31k/WZbT96L9RkDUVqJ2ag38IGvHj/g7vmxQA08kuFj7ldJqLQij1bXhu6hsBSPJeItprpnlMvZLPPpAh5bMqQcXgMr4LYUV09iT6mEPLvvMpS5Lm6TRGWnwmsQDtNdxKOJmywgt/qqmKQBfPzR9nVmINrJFCG2mOQNFX4lcnhBbsuG943c5p8Erqj3pXHUOqe2zp+NPv0Rww6RZASAuKnqQmMk/0mPiZR+bzMeUMJf0VLZA6Nrmdu+i5nCO1c+lvuCdAbpZ6U/MzQocEcP90FFR3E4OJnG5cc8l94MrULy1yHGDc3f9H6tXrepQv098cJpRnuiYgBtI6D2qCdR/+uoakVizjC0lflTVV3c1Hiz4ZliAgt+xx4rD64qR1lk2sL3S0l/37MxYT9EUKeKVW4iRbJraUYkbATwbtzPaoIdHbQjJQ1Rmd3nGlH9ZHmQEsfxjue3YtRVZNQNJvwT1thUKb3XV6OpoBY4pbJcX4NrCxfe2q05yO/cRmndmCfQqPItVXKc0MmTEaPQeDEwqIsjFzSw58kgQ4WAqvYetBhusyh8n+BRFljxknX4ZtKWcjrlpiLPwLIPF8/MUrsPGvx4UO60RgLb3o6L7CTVqIsScazjntIpuF9T5R3Nh3/M4kn1O7aaEI+R7x9RuaHsm+QQpaEJWCW500cECWZNNH31AFMclQAA+TLpdRolbCBTVef0PO1B6PRjsNM+hI0ikYRJq1ZDbSMLG1sCB8YJQYzJfggfayWdYcAJrdxTs4LNjtkoOK5Czyi+KLYRq44CaZm8mJdmVYODJdV1tGsiv0k7MnmPO5eiI2J10QK5XHcHsDCrJjg7+R1rG+fP9qbiChP6XQfTl7d75wryV90vv5yxUx7kdmQEoldtg9pS4sjWzgvW2tR20WxEqqAyHHyGGFRu6mG1+5MUg5VxMcTdK388qnGKpmsRNk+grGBrQcQ92ZCY2FpxX3r/IyKpsCcpBsSfokaOTrLAppZm4f2khTDmWdykR3xisn2vxdeM/U7gRqmLNDiyzKF8bXpPQr/1606KehHT3F1xWAqnyVisgOhrghEjx338Lrs+Cwk9tHf9SuzmNLVuTc6XdDDx/BWhhUrqScnYuRrl9rcD0w1R0sh02cF5QBWrJ2aurIN/PCkV4PeG1BEjwuc19G5FP+iSp5RUMTnVEeVeFCx2rVu6OhhS0YAMmYKq2HRvAyFedcxBlMFu2cI2pEni5nF4muO83vRWOg49CCsmf1EaqWSynzgy0K7wdPgutkGTDGoMiALy7/MSk11E++lv8t6ZLXh1IOnYfjs2JR9BwYKvuhISsLhG8PHOAFMOZVvtRlzrwG3TlpgniiqXjWZU5dES8JcpGa7JGM2aO8W/8I5MfxPp3dmxOThKTW9RW14zRyXAxbiQJz3flAYE6eUa3CPiQTjK7wrrUcrST1dUoeZrw6cSJRwFCctzrI2rjJafLzb3Fvw5cUfuMbU0TtxfFXpgspVF77C9/SBgWNRhKrHvIgAh++QFeEPSPh9Jad+CZ4TGJNdHBvEnPkf312juiIUfG0nRh6KSURL0jXJObpPIeC+xb+hRPbbzPjrTBjookMdmF9jtU4kcKz8PbAKZYRG6P6f/yD5RkeKKCXewnzI4b+UsSxop9Q9vCVH2QbvqTzhUyogXmaODTu8KbCZhy7gfH/GJkVfTC8z6eKYaQvDJ5fdTkmrJOzavL+9RV47hw4dS2eGTlQJk7fpAbnl3cHcdZm9pZJaYC5ua3PRCZewKazGTsr1Z1DjOwHQHAT/ufgvvafAgZQCUe0Ki/jEyURQ4bx+NhIhc9tdf++RdRiBs9TkJOvbt6pZ4gH3E3R906pjRdOtyeBR52WIjmi1x7VVax37vVU5bHwdXuTM2lCWMKZMAeeAsm48gbnJDwXzAFlgKROb2I3rJf24tH7GzbnwF7e+KVBuAPbgFWTD1rrNhi3i8ndCmCgPwir0xK4cLHM6xaa1ncNybw9EFM6oRFgNiALf+r+Yni0DJqZVEIWvnRB//62jDNBNVgVa5hknakxpZ983buphDGdboZOsycmt9xejkrcAMuPIlSeMkgHCYCSvOqJCffCAvNWBZrXpSfDkNHenkGZZ/ZletmulyuCc08jvGPGH4tedufr/QzbVV6pCJsGkoOmSASOQMqxSE7ws7nZTXxpBQJDsr6ugALAs0HVGZ2qk+VIxdMA1Mr+gONhDZdbLqHQfScQuZiGoMMKuw6xnOrknhBwaI0HL1+M5qJlRztBOFNZMF5MuzG+riIaYNlQEdDa2/OoFfzUrwgM/qcpZM5OkM7htqjiX1U8wJTypa+gWUzAz9EzYCMOte88w2OBIONkVj4c5QAhISvI1bqe+Ow9OaUDrdO5FF3iuKTOUj5a8gyzQmEgjUABCH9H6obyVtsessEE/qKIwFYHOHCSV+uwFC2o2yMk4B9gbrgEBhug8Fu4T6jyiEokm2ka7d7rJx9HeN4j/GBSBYI2e/YPflO9hyLet60nngHODR9ymgu3VICGeVEN31B3NDs031D2mfc8bSCh5hvn/PMg9dsI8LDuWHv8FUKTQn0pTKuWcYaMOddlx33T53a6MIoS29sl6EBmgFaFIZd0BglWQWxRFYwjE1H8Eye496n2YWYGgewlGtwqOJu9i/HopyFR9cmTUyAvVELY61fEjPZt5SWgQ6BZp9RBSS1zm67H81VILAXk2PHbxIY4IaojMaqjoYfZZSXL9S56p/lfo+DyMRE6x9QNL5eyXhwxNN+owt/wGDq+/Fo8MzuIS6KIdSdKg+CAyfgHbhjOu057E+zecsuC/y7fVfbMq3aEOfm2r07ThEWeyrvdjoWaXGEzW4rNhaEq4pVWJZUN1gxX10BbiS8gxLQM0wEMlH95rrgYBDU27xbMcnewpjrvNbarquZbfNRH2d8NZOK7TecH5uughFR9Qw/16VD8Fv9g5hD2UZ7LTnebvI6PKrXMUVqbjYLPDmTwlASq7w5FEDCrre8BLMljj6P7TqgcQIxKHEXQ3FcV+uLmKT8x8tFENI0ZFvlU730X1N/AVQ1LTuae1J8KCnUr7Ayf6CjlM+BuO53mqr8VFbvOdITVGYnJo4vZktPxN0hAZ3icHA1ZriPPIBacxLAJPHihh4DItA2SRnbit8R3QAAAZORYVOeiiRsTmVV0sCuwjA/jlt8ATZdtqMHwfZZ5pGP2RBKgbRpgyhLH7rCD1Wpn9V5dz0neIytkGP6Sm0E/V6mh2elr/3ZRAJdPMX/hf/SCWwi/Z/cXplSKz7+e9HY7q0ugpogfPu4UjlUIsuD9UNN7ZZRyOO1NT55F0PZ4Qxex8G0UjUmTr4crqfKCGGmLlMRlP3AzequdEjGRzb3mdPBhzSTDgUgf/Vd/TYOh8mII+ntnHrfA8DPXn2p+dpadUV7kEpNKRjIzDgCekZ1PB6fQsxMm1wCvx3lsE9y2TZqc69z3VAG6vGyUxrjIRxQsOKnC7nxG+H4Rl9Ltk9TGHWMBeYtL1xKBYn5sYh9bQGsVzSiAqJb4PcbG4j+TTaVpaH6KW3qVNCGu2L0RL06G8V47uU4h4ArX3wHHWONjqTGBu16DgBZu3UotzNRyWco6DRM3mSUwC2BJJuoY3B3aW8uxtcHec1FeuBgQMRNg0SDXQhGAIxjtFLO03azCbAu13TIFl1ZlekXmg0k+fTTWgJVjcyE4Zq9tedVLKcl8phMjIDfCDCcdUK7E0mgIKs213fftex6uykVLzxdEuLRYgeTF/6FaM+52pBjgy3tbsu5WZpYiC5jiGUbrE2730i/2Vg9euF9l1X0ZPnY1XDltkW6QuWUYIokkDlmodY+/R5NHbqmc79HmWiaPVlJvfACdBoDX5KGp1wXL4NUOu9gEGd4J7f1Pt469tVZad7r0LuPn4pXlXgOYn3XEAbjStJ9eX1Zvhq0PKuKoWJAnaAb4XEwS5n2kvUtxHVasSATGj80+dI7X8GAap4ufm+NVbsAtu3el+MB0HPDQxh7MzTRlE1H3ZwWQT1jDALcqnkZKaiJ6GuZ8IrBlao52mkDRYy3bIJ5KTpAkGX8UMNAcHcH4V8oXslopseUF2Zlp9cl6nGxZ94NjaBicwhmWZRcWvNXmpxNaH+yX/wYhzPYAbFteF4kO0dU7KUG2KrWOCtWZ6Ikgn367pWSJkLMftMlNbg+pUMnWjxJDjMuvSuMDUpqA9uT+Fk1JvqODTIVaH/gkXp90SWbWDACmonvXZGB1paPodW+OzC9uYly/i30U+VfqKZ8Q/dvydyKbzmh6MPji8SMWiEt+I6sdGQw0mMTaAnKOvOxYlYRt0ZSAl+AFnCWnh2303B/YW3ywjXREUWCgZ6vBOxJmtSSoFz+Sie5pp+A3Hqa7FichWIfpi5uX5HsuJocQONFVsWlxp9FY+IA1B8LXWVE9jrNNFFYlrLxkHj1vUfvbZLiAhzKG9U3zAAX7nT8b2ECE3czdR3wBrRAtKoOe/KwyP2qf/weaCZ83z6Qn4xLLS+rAEgTWsaRPi29ZMVU0Q0kXp5WjfRlbbCcIobE/oFOvyAGdyAJpVj3OeUu8P1nkDFlwCm+138eXSBtl0WMn5ywrCaKSOrWw1t0EMpCQkDVxQZ1hj1xWe13Zrt+poPNJDTdU4tKUCyvaPgM+qJz2qLe5ODOkBbjpkN1DIi3AVQWVwHASTXbjF5y/eYCj4LUcU/NcxkvzlS/nfok9vfU4Z75F2ltmWcanNlM7WTsX7/W1897tq5fWoj9iy2mpXi93T6zZopFXRuhDdmUPQ+spWVMrLyBKtw0icc54F7xZodAo45sibSMMiONXrqJPtbqtRHsGK5BdZA+lclMgAAngyOzRfQDgTbtfoajuLS9i7a8CVztFcwHvcfnBOGRaxUbtWXz0Nk9Q26GDK2lNcuUbcbld4lLZdvy/e5ubCJ4m7gbpF6W2bVepnT1rUlnGGQ3nmZUTuE7A3eq0rfX+TvRwDoefqd+4Q9Vxd73tO5l7VAD8eqglmOmhQhybyukUSjP7dmxr+JEwGfo41qbtQ9PGw+pm+5hh+J3QVIV0I7R3UNCKjCp0pReJtfrvrPi0rVSndKHFxetvQvgGznQodvZBOyEz6ww1prtovgouKnr7MdyNcoIfcB4G945voc3GK8oNgfWnVcfK8hDRMIul8E539Micj2kHZbLuXFbQqMb742VsEVlma8H5UVeL9rJ2P22H+4FqDj6ONL2MAEVlQwIUDy/A9dRXgvq0gIaWIC/IxokY9cWfYkxeODd3YiA5htPYL5z6cHm58muWoNYjbYM9hw84DE8jHJ/KpGzo3/bWACNvBQCB6+10VjiZ+mDh88E2/zgteMAVCXFdc5swQqdHLkQ1GAPG7ZqoDPCNa0KLLdZRzS95FgbegxHNifx/bbRww6yVuoxRX8NXckt4I/E42W8W79hHTwIk2P+jPZv3FnjMgB/coWsupOSlb9JYtBEVDO8ox767RgrYF1d2d1DAmaixUXTz29n3RuWCbZfgVrtOxGL6IwHZhZdG1+3s41+9/1WK71VDfRPGJ8YGkqwUp7E2glXEMGDOkeA5lKWKfeh+eyiF0lqGbVwmyazKqk0i61gRaBkQb3QRhyiVhvcRsq+DouMCDX7dlqFPvivrIM1Z66J+dJoR7pate++erAVj8e3mo8iyepA0pDz0V7OZKhHO89t3fqCgHpCUiXIPXg0g/W/jDi7U2Ak2aEDwyBZtY3eV9ZJt1dSfypj71YypgTwTHONOUHlRN7i+o3v7U/Nx9niQXV8nwOPw/0T6teMC4RW+3OHCin+ttv7F37HYxiBMNUiLqrJJ+CnyaONCkHjmhSnF7p+Uqbafc0lPuMIOvuzetvYTBnxmsazHj/fRI0tyQsLtJhtsYgVQX8l4jcqC+haLH6Mzs4ioedocbv1gvW+t8E5O65vO0kphziGBg7nFAiKBOmtoGwW/uYNUFUkLXstsEYyekNTAumJocjvkm7A7wWleprO0YLYp79K8wpqwFrs+rVFjXthvlwQXK8meSGWPkb959j8x9MXAjScVwll79j9Upo0CS+WqL6VmGMfV66POtbAr5TS7RAlep0GSk5cjEpySRfHCyIJ55bdQBNlLDxLIS1jbR08o9aiymxdG9z/vtCMdsQUkwdW4crZQCeAZfGbdqN6+2QJ3uaOA9++89HEuz1+z2J2yh0miJpLBB1hBor+e+JxemUTsgxg6zhEL+yErNh4ONT+OOSE5AfUZ3AHUroX4aFPSbdH0eEkAruZL0Top7ZO998o80kDQ1mooA0A/YwXT4QCH0eo4stov6bBspx4/tRGWFZb3kmFU1wl1KuLqr7oFklfaDoNCNm3POgKXNfnf9wB8nlpBK1qVzHurMfUNgAMA8PplBkBSS+28GyNpOblp+giiZb7EYCMbccl6cEAZZsm+YWg2c/4PE+xpdEZVSdRuWG8dBwF2FFFUPwokTyL0ANke+zG6nQOKdP2yN0vYMrWin6jf0EakMpGtg8B87bmOVxp2UXLoVrD9H6w8ivcwQX78MRY/tf3/K8JXPktFsnYyvWsaJF3q2heGPO+PjJaH2Np3GrZ9spErorB5RQ6OXVjGU70ydQS7an/G9jzG0a91RvzLLpH5Le0eIZ4nDTRSi02PQK1HNDrwuF/tV0dONTvkmihI+DPNBJbB0M8KMBGR2SboF5pnN1AZNPF86TlgGh3MEID6sMYJc6IOM6ju8ZVKdTYGIeT0sNRnDYAL5ys3IKwrsebYR+tC45JTWLMitXck75An/ff06ee3J62lE3ICqWhgHK2V3SKif2EtrNEh1u8aVGLaNHHVBvlumpfLWqH+Z9XDadMSFOa6xCdvNzJq35GZp8aDbyP+9mFkMQxoeFg7ekF/ThLTp+LZg36j2fg7uLo+1czqWFZfogAIFYgAGzGZgP0uwPHxsPhTKdj5mgA/cjW2O0AptG8jzZ1W5J18Ko+MOs4WuFxd0aKUTmF7QS48tixsJ7b+60Jfy09oTP8z7oINLn0CZiFAlZQKlBguyXb9TW6FwqxsDmI1KBAAAE8B/z6xKF3jsP2+8oS9Xy+vZ4qx3Xmbm3Bdtrh/+Eu4qWiJfcR2K/ie3YZ2R2X1z7Bu1Oxl0KgU9JZIFKtTbHUiiv08QgPkNQuYQKMVs46V8RET1vz5J3TpuPxUj4/bra1X9jmHl8pmXCleHlX/k1utt607cX3wPxPPYftXcsNbMAJ5dJ2jLGKDG04LpOqqJ00VjMK2gDXg/83lGN7VFoL1RtoFviPKTbqZGL1heyPSVzwbSwB2/JiFo7bLW1TRoaAwtDYCXWgun3Z97+h+y9KbZxJrd7ehHu77WkzFi4KcrEqrXztdOIEj2IAvq5rNSa44nIMOwhwXQ85MXTEY8BbsySQCYjMeBWGfxiz2KIUaTFWpP5lK9muedsjwIY3iODFywdpVxm+4Vx4yd8LAWXX/ttDbauYaPNWhIh2cx8qIJRB1k2qsOr8cg7pCO+GT+UK5fcgBGUaOf1xe9Hs33MgMGSet1JToGVGNHqYjRLQCXR2R2amHtv2fetSneBVya8liDhKYW3CuzSghOxI6pZI70bmZMR79IXavDiU8W0pKKisXp7n+e4ufoUsTzk4XwiiL4xM9zwceYN2J2EzMCU0QGRaFKY/j8Bdjk1dDXxPsYEk73y1StSDVMaTJfLOf9CmNR2zdKJaYvkV4gvvn8SAAUyifcq6IQZqW0DEaYrMoHhhsUyGFe/9/j8k4Hjq+0AACEKx7ZPv4hg7gyDmW+yj31hjsIg4z9E75Ey2CvpUZiX1LUbwAVfHc3FbUAcaUHb0T0aXkwIceabfpRRm5mrnNV7kOVNZ5Cp1kxDNiXlnkrW3QNGV/Tm47GEt7ux0H2iFdk0GrghIpcWXc5UrS+DRrEAcK9rWWeb+dxX0AhUpI2wLn7YkWmjpBBlDVquxZWUjpD5YlN/pzAGL3l6watfMrMdYc+q3ueQrz+FD9CQvpVasKOQV9FoK6mknoc4YEcu2cxbT6eS2VL5C9YTftU2lRv6JD59cXs8fEYbWLub85Ax29AiYk0d6dtnqEcqB/NlkFVLn70AjrBPRSQ6Qzk/LLckv4QW8A42OGMUm0lM+xWh/bp9g6JkZn42d4uwzrF5qwWUdC+dx+5HRKaGX3jRne4nwBKyaRrGgET6DZPsuiTAtXgoN986c2VwKk5lB3DvFcK4OVEDthiWQ1L1PArNllu5GnxASXMhTCFV4vfqohBN1ljFn/WB72yDF7kC5lJ8CZwxpLFbrFEk9jtJiSRiAAKDUtGmp0eHugPK9Tyo8ZW/HfjNs/JpqCiZZmjRh1sGFj6gwnHo2JWQobq3VSdkrs5uF9i+Z/6gAA1x+sADDGiukL4IBduopEvYmLpVtFu5old6QjN69oasRDIpLUlnye1AY9qeUSQC/+VO5tjrKKSxZp1q58LIzq7YJre470T/D1RTvgfck+NNA+ZIBiKQrVHnYgwvpnYQEWt7Ckm6i4GNcV92qq7u/fdTuoNGBwXUfLonYF+SlPXRzfpfCYqdk3MVeaEEUH+CTg+URg8a/CqeBVJe6qOxSExpSK3zaJ5gMkL7fIeDP6066G/qstFCx7BqiFwGwoRg/p8bIyx/Mr77KwQMr/JYm04p4aVQbHonVC49Ohe3O+P9LTm8BPCj6W+m+jpmq91LZmT5tt9AtBLwB2xABMQF0/yKEQzSdVvv3Nr/XIIZNwg1Yr9mFC8ozqg17DPoksc+F3nYBFF+vD6wTX+wuWbNSnCbX/hxmJngw0jGUwgCrlHWOeU4IDDwAglBtHal+n+te9byiTep+VPqk2RVWiZCSAyhNcnmL1CctvZUf+pKvRJzxEogEse5GlIxwphLi4VzHhS8c6/Vb6k3a3RJhk6TH/MoB1Q0hDGoJv/QxDvHISIufSzVT3E3OOLuQAAPhHYmkXuR+iae76D266yNmvozqIxLsLHNvS8siYd3yiY0eMzvB+jeWhVYPyS/Uenw+UTGTI7ubWrCX1D6Sso+pUY2UQI8r/urmpvC5tDmrly0y7ybVb+Zi4HPDyxly0sjV1pB/qjiOvcxJiBwUEYAuj6M+yI+bAfm1kcRtB29FJYcz4/qzZK3LYCP21iZXXX4aLoPHD7i3Zk8kiaWlUrIl8Il/ccmNSUogq+No7ZKIUzRc5A+rgfyw0vU69M3/lOeLw9wchAAB/vo4SJr/GW69Wi7i0u9bIAFcUHJmKO32Gpowlw9s1qscXbUdkl5H97j5P47eVjtU2aLgdP4VPe6ycr1dAovdBBi4NE0OMbPLJQJlYsJi+Gjurxi26l10MUsyF5rwBOOzFU1OIK2Mqbn+Db4buzoe/ko5cQkyJlaouAEYduXQjYRzgAA8kx0A+YaxTw+Z9gSMaQLMZjX16Sj8kShKYW8xj98Os7QNA/QaZwOZhynSe0nbcUrY3vBxicBknNhOZdTQgbb9mxRk7wArA5S3rUrMGeiCUXihdtcUCEu8SbAhO7jeYcOgC6QDPtSWwAXXCRGvHJ8sF8wOgHeJYuaK2C8FMhSwgV4EhmEgd3WZXsDN+RdOdJrhx0dn2xniR/BYuoAX4q92y95TDqpePs8Jxwxre5sqmSz0dmqwjGBp2oiQFq2IhunIL0Yn/y4+byqpn1RAAAAApKYaKBNIrDtu58cCRLUSC3yvtZwhJEvboVXwOEdTzKlBXS3fokk3vP/1hWqmVsyrnDqovFZltEzfjny2VeFN1GRHE55SBQTeO8UEMmghK2SNa0I+3JyknJiG5ALDnhllge2AgqHSnll/g8tz2M28n0VSO90ttUR9fU+sK5h0LPyixkdEdn3I5VxHPA7C0oBZK1vFCrPA/GbGehXBZWNPtLh9d2ppuFiaRm51y/SjpCC4PhKR6l6AAAB0jZE2KGOD5OXNfGVgnQICnexDhQY6BO4B9yoFzBc+0vSw4lZYjD20dRq1lYrc8je+FahZeEnbdcQrd6ZQA9GrHzB6pUPVKq3rXqJawrQvBQk0EhFJVQVA0gX+h6LWTetGSoScXPRWNnyCDP0Xtfxm1lBh7I66kuun4ubbM/m/m9Oqmq/MSw0RBFlphPkyuZCMRmRgDy2frYChNxGvPs6n5qsGyKW8LpM1wOadEnStn995TBUP8b09BjSPI1HkzO6FC+h8w90kNNnGoj1TyhOcBQdft2zYAAAAct+eFn1VyCdZgB6Yo6x4Jok1puBLrbLAtZn64DqHPnfrGV/lzmUKe+thnbhZ//l3e077Zw7IfzpRbRHcq5pzMp+xLLM1hCjwjhQ3o7pXKubPrldn2o6VQwc3v0NV26wTYSbBKK8kx4/+FwKhJRJeyBbaJLzbNi6nApKp3urGAEcRMzDYVQlDw88MTfY+ksioc6kXJKhCQGeN6AXJ8XR9UeFpYbpKlklUOAEQQyYkYQkkIKc/CoR88+no3EIBydUPbsiZVVvGaCMUPTbxTUlAAACCmXTYf6+ybEoa7Ws01arIygbPplqfVD8Wvc6ba/YOokwFRPHflTC+AAAAAA;opacity=30;movable=0;resizable=0;rotatable=0;deletable=0;editable=0;locked=1;connectable=0;" vertex="1" parent="f34nnR5g4uo3Y9udLXgA-69">
          <mxGeometry width="1920" height="1188" as="geometry" />
        </mxCell>
        <mxCell id="f34nnR5g4uo3Y9udLXgA-67" value="" style="image;aspect=fixed;html=1;points=[];align=center;fontSize=12;image=img/lib/azure2/identity/Enterprise_Applications.svg;fillColor=#d5e8d4;strokeColor=#82b366;imageBackground=#2EFF58;fillStyle=auto;" vertex="1" parent="f34nnR5g4uo3Y9udLXgA-69">
          <mxGeometry x="140" y="239" width="31" height="31" as="geometry" />
        </mxCell>
        <mxCell id="f34nnR5g4uo3Y9udLXgA-70" value="" style="image;aspect=fixed;html=1;points=[];align=center;fontSize=12;image=img/lib/azure2/identity/Enterprise_Applications.svg;fillColor=#f8cecc;strokeColor=#b85450;" vertex="1" parent="f34nnR5g4uo3Y9udLXgA-69">
          <mxGeometry x="390" y="507" width="31" height="31" as="geometry" />
        </mxCell>
        <mxCell id="f34nnR5g4uo3Y9udLXgA-72" value="" style="image;aspect=fixed;html=1;points=[];align=center;fontSize=12;image=img/lib/azure2/identity/Enterprise_Applications.svg;" vertex="1" parent="f34nnR5g4uo3Y9udLXgA-69">
          <mxGeometry x="520" y="810" width="31" height="31" as="geometry" />
        </mxCell>
        <mxCell id="f34nnR5g4uo3Y9udLXgA-74" value="" style="image;aspect=fixed;html=1;points=[];align=center;fontSize=12;image=img/lib/azure2/identity/Enterprise_Applications.svg;fillColor=#ffe6cc;strokeColor=#d79b00;" vertex="1" parent="f34nnR5g4uo3Y9udLXgA-69">
          <mxGeometry x="890" y="610" width="31" height="31" as="geometry" />
        </mxCell>
        <mxCell id="f34nnR5g4uo3Y9udLXgA-76" value="" style="image;aspect=fixed;html=1;points=[];align=center;fontSize=12;image=img/lib/azure2/identity/Enterprise_Applications.svg;" vertex="1" parent="f34nnR5g4uo3Y9udLXgA-69">
          <mxGeometry x="1150" y="330" width="31" height="31" as="geometry" />
        </mxCell>
        <mxCell id="f34nnR5g4uo3Y9udLXgA-78" value="" style="image;aspect=fixed;html=1;points=[];align=center;fontSize=12;image=img/lib/azure2/identity/Enterprise_Applications.svg;" vertex="1" parent="f34nnR5g4uo3Y9udLXgA-69">
          <mxGeometry x="1040" y="224.5" width="31" height="31" as="geometry" />
        </mxCell>
        <mxCell id="f34nnR5g4uo3Y9udLXgA-80" value="" style="image;aspect=fixed;html=1;points=[];align=center;fontSize=12;image=img/lib/azure2/identity/Enterprise_Applications.svg;" vertex="1" parent="f34nnR5g4uo3Y9udLXgA-69">
          <mxGeometry x="950" y="390" width="31" height="31" as="geometry" />
        </mxCell>
        <mxCell id="f34nnR5g4uo3Y9udLXgA-82" value="" style="image;aspect=fixed;html=1;points=[];align=center;fontSize=12;image=img/lib/azure2/identity/Enterprise_Applications.svg;" vertex="1" parent="f34nnR5g4uo3Y9udLXgA-69">
          <mxGeometry x="1640" y="970" width="31" height="31" as="geometry" />
        </mxCell>
        <mxCell id="f34nnR5g4uo3Y9udLXgA-85" value="" style="html=1;verticalLabelPosition=bottom;align=center;labelBackgroundColor=#ffffff;verticalAlign=top;strokeWidth=2;strokeColor=#82b366;shadow=0;dashed=0;shape=mxgraph.ios7.icons.data;fillColor=#d5e8d4;" vertex="1" parent="f34nnR5g4uo3Y9udLXgA-69">
          <mxGeometry x="140" y="270" width="24" height="29.099999999999998" as="geometry" />
        </mxCell>
        <mxCell id="f34nnR5g4uo3Y9udLXgA-86" value="" style="html=1;verticalLabelPosition=bottom;align=center;labelBackgroundColor=#ffffff;verticalAlign=top;strokeWidth=2;strokeColor=#b85450;shadow=0;dashed=0;shape=mxgraph.ios7.icons.data;fillColor=#f8cecc;" vertex="1" parent="f34nnR5g4uo3Y9udLXgA-69">
          <mxGeometry x="390" y="477.9" width="24" height="29.099999999999998" as="geometry" />
        </mxCell>
        <mxCell id="f34nnR5g4uo3Y9udLXgA-87" value="" style="html=1;verticalLabelPosition=bottom;align=center;labelBackgroundColor=#ffffff;verticalAlign=top;strokeWidth=2;strokeColor=#0080F0;shadow=0;dashed=0;shape=mxgraph.ios7.icons.data;" vertex="1" parent="f34nnR5g4uo3Y9udLXgA-69">
          <mxGeometry x="523.5" y="841" width="24" height="29.099999999999998" as="geometry" />
        </mxCell>
        <mxCell id="f34nnR5g4uo3Y9udLXgA-88" value="" style="html=1;verticalLabelPosition=bottom;align=center;labelBackgroundColor=#ffffff;verticalAlign=top;strokeWidth=2;strokeColor=#d79b00;shadow=0;dashed=0;shape=mxgraph.ios7.icons.data;fillColor=#ffe6cc;" vertex="1" parent="f34nnR5g4uo3Y9udLXgA-69">
          <mxGeometry x="890" y="641" width="24" height="29.099999999999998" as="geometry" />
        </mxCell>
        <mxCell id="f34nnR5g4uo3Y9udLXgA-89" value="" style="html=1;verticalLabelPosition=bottom;align=center;labelBackgroundColor=#ffffff;verticalAlign=top;strokeWidth=2;strokeColor=#0080F0;shadow=0;dashed=0;shape=mxgraph.ios7.icons.data;" vertex="1" parent="f34nnR5g4uo3Y9udLXgA-69">
          <mxGeometry x="950" y="420.45000000000005" width="24" height="29.099999999999998" as="geometry" />
        </mxCell>
        <mxCell id="f34nnR5g4uo3Y9udLXgA-90" value="" style="html=1;verticalLabelPosition=bottom;align=center;labelBackgroundColor=#ffffff;verticalAlign=top;strokeWidth=2;strokeColor=#0080F0;shadow=0;dashed=0;shape=mxgraph.ios7.icons.data;" vertex="1" parent="f34nnR5g4uo3Y9udLXgA-69">
          <mxGeometry x="1150" y="360.9000000000001" width="24" height="29.099999999999998" as="geometry" />
        </mxCell>
        <mxCell id="f34nnR5g4uo3Y9udLXgA-91" value="" style="html=1;verticalLabelPosition=bottom;align=center;labelBackgroundColor=#ffffff;verticalAlign=top;strokeWidth=2;strokeColor=#0080F0;shadow=0;dashed=0;shape=mxgraph.ios7.icons.data;" vertex="1" parent="f34nnR5g4uo3Y9udLXgA-69">
          <mxGeometry x="1043.5" y="255.5000000000001" width="24" height="29.099999999999998" as="geometry" />
        </mxCell>
        <mxCell id="f34nnR5g4uo3Y9udLXgA-92" value="" style="html=1;verticalLabelPosition=bottom;align=center;labelBackgroundColor=#ffffff;verticalAlign=top;strokeWidth=2;strokeColor=#0080F0;shadow=0;dashed=0;shape=mxgraph.ios7.icons.data;" vertex="1" parent="f34nnR5g4uo3Y9udLXgA-69">
          <mxGeometry x="1640" y="930" width="24" height="29.099999999999998" as="geometry" />
        </mxCell>
        <mxCell id="f34nnR5g4uo3Y9udLXgA-98" style="edgeStyle=orthogonalEdgeStyle;curved=1;rounded=0;orthogonalLoop=1;jettySize=auto;html=1;exitX=0;exitY=0.5;exitDx=0;exitDy=0;exitPerimeter=0;entryX=0.968;entryY=0.72;entryDx=0;entryDy=0;entryPerimeter=0;" edge="1" parent="1" source="f34nnR5g4uo3Y9udLXgA-23" target="f34nnR5g4uo3Y9udLXgA-67">
          <mxGeometry relative="1" as="geometry" />
        </mxCell>
        <mxCell id="f34nnR5g4uo3Y9udLXgA-99" style="edgeStyle=orthogonalEdgeStyle;curved=1;rounded=0;orthogonalLoop=1;jettySize=auto;html=1;exitX=0.145;exitY=0.855;exitDx=0;exitDy=0;exitPerimeter=0;entryX=0.833;entryY=0.53;entryDx=0;entryDy=0;entryPerimeter=0;" edge="1" parent="1" source="f34nnR5g4uo3Y9udLXgA-23" target="f34nnR5g4uo3Y9udLXgA-86">
          <mxGeometry relative="1" as="geometry" />
        </mxCell>
        <mxCell id="f34nnR5g4uo3Y9udLXgA-100" style="edgeStyle=orthogonalEdgeStyle;curved=1;rounded=0;orthogonalLoop=1;jettySize=auto;html=1;exitX=0.5;exitY=1;exitDx=0;exitDy=0;exitPerimeter=0;entryX=0.409;entryY=-0.065;entryDx=0;entryDy=0;entryPerimeter=0;" edge="1" parent="1" source="f34nnR5g4uo3Y9udLXgA-23" target="f34nnR5g4uo3Y9udLXgA-72">
          <mxGeometry relative="1" as="geometry" />
        </mxCell>
        <mxCell id="f34nnR5g4uo3Y9udLXgA-101" style="edgeStyle=orthogonalEdgeStyle;curved=1;rounded=0;orthogonalLoop=1;jettySize=auto;html=1;exitX=0.5;exitY=1;exitDx=0;exitDy=0;exitPerimeter=0;entryX=0.344;entryY=0.022;entryDx=0;entryDy=0;entryPerimeter=0;" edge="1" parent="1" source="f34nnR5g4uo3Y9udLXgA-23" target="f34nnR5g4uo3Y9udLXgA-74">
          <mxGeometry relative="1" as="geometry" />
        </mxCell>
        <mxCell id="f34nnR5g4uo3Y9udLXgA-102" style="edgeStyle=orthogonalEdgeStyle;curved=1;rounded=0;orthogonalLoop=1;jettySize=auto;html=1;exitX=0.855;exitY=0.855;exitDx=0;exitDy=0;exitPerimeter=0;entryX=0;entryY=0.323;entryDx=0;entryDy=0;entryPerimeter=0;" edge="1" parent="1" source="f34nnR5g4uo3Y9udLXgA-23" target="f34nnR5g4uo3Y9udLXgA-80">
          <mxGeometry relative="1" as="geometry" />
        </mxCell>
        <mxCell id="f34nnR5g4uo3Y9udLXgA-103" style="edgeStyle=orthogonalEdgeStyle;curved=1;rounded=0;orthogonalLoop=1;jettySize=auto;html=1;exitX=1;exitY=0.5;exitDx=0;exitDy=0;exitPerimeter=0;entryX=-0.086;entryY=0.495;entryDx=0;entryDy=0;entryPerimeter=0;" edge="1" parent="1" source="f34nnR5g4uo3Y9udLXgA-23" target="f34nnR5g4uo3Y9udLXgA-76">
          <mxGeometry relative="1" as="geometry">
            <Array as="points">
              <mxPoint x="-131" y="620" />
              <mxPoint x="237" y="620" />
            </Array>
          </mxGeometry>
        </mxCell>
        <mxCell id="f34nnR5g4uo3Y9udLXgA-104" style="edgeStyle=orthogonalEdgeStyle;curved=1;rounded=0;orthogonalLoop=1;jettySize=auto;html=1;exitX=0.5;exitY=0;exitDx=0;exitDy=0;exitPerimeter=0;entryX=0.022;entryY=0.5;entryDx=0;entryDy=0;entryPerimeter=0;" edge="1" parent="1" source="f34nnR5g4uo3Y9udLXgA-23" target="f34nnR5g4uo3Y9udLXgA-78">
          <mxGeometry relative="1" as="geometry" />
        </mxCell>
        <mxCell id="f34nnR5g4uo3Y9udLXgA-105" style="edgeStyle=orthogonalEdgeStyle;curved=1;rounded=0;orthogonalLoop=1;jettySize=auto;html=1;exitX=0.855;exitY=0.855;exitDx=0;exitDy=0;exitPerimeter=0;entryX=-0.006;entryY=0.501;entryDx=0;entryDy=0;entryPerimeter=0;" edge="1" parent="1" source="f34nnR5g4uo3Y9udLXgA-23" target="f34nnR5g4uo3Y9udLXgA-92">
          <mxGeometry relative="1" as="geometry" />
        </mxCell>
        <mxCell id="f34nnR5g4uo3Y9udLXgA-23" value="" style="outlineConnect=0;dashed=0;verticalLabelPosition=bottom;verticalAlign=top;align=center;html=1;shape=mxgraph.aws3.application_load_balancer;fillColor=#F58534;gradientColor=none;" vertex="1" parent="1">
          <mxGeometry x="-200" y="639" width="69" height="72" as="geometry" />
        </mxCell>
        <mxCell id="f34nnR5g4uo3Y9udLXgA-97" style="edgeStyle=orthogonalEdgeStyle;curved=1;rounded=0;orthogonalLoop=1;jettySize=auto;html=1;exitX=0.78;exitY=0.92;exitDx=0;exitDy=0;exitPerimeter=0;entryX=0.145;entryY=0.145;entryDx=0;entryDy=0;entryPerimeter=0;" edge="1" parent="1" source="f34nnR5g4uo3Y9udLXgA-94" target="f34nnR5g4uo3Y9udLXgA-23">
          <mxGeometry relative="1" as="geometry" />
        </mxCell>
        <mxCell id="f34nnR5g4uo3Y9udLXgA-111" style="edgeStyle=orthogonalEdgeStyle;curved=1;rounded=0;orthogonalLoop=1;jettySize=auto;html=1;exitX=0.01;exitY=0.54;exitDx=0;exitDy=0;exitPerimeter=0;endArrow=none;endFill=0;startArrow=classic;startFill=1;" edge="1" parent="1" source="f34nnR5g4uo3Y9udLXgA-94">
          <mxGeometry relative="1" as="geometry">
            <mxPoint x="-940" y="130" as="targetPoint" />
          </mxGeometry>
        </mxCell>
        <mxCell id="f34nnR5g4uo3Y9udLXgA-94" value="" style="html=1;verticalLabelPosition=bottom;align=center;labelBackgroundColor=#ffffff;verticalAlign=top;strokeWidth=2;strokeColor=#0080F0;shadow=0;dashed=0;shape=mxgraph.ios7.icons.globe;points=[[0.01,0.54,0,0,0],[0.78,0.92,0,0,0]];" vertex="1" parent="1">
          <mxGeometry x="-700" y="130" width="180" height="170" as="geometry" />
        </mxCell>
        <mxCell id="f34nnR5g4uo3Y9udLXgA-106" value="GLOBAL Load Balancer" style="text;html=1;strokeColor=none;fillColor=none;align=center;verticalAlign=middle;whiteSpace=wrap;rounded=0;" vertex="1" parent="1">
          <mxGeometry x="-240" y="711" width="60" height="51" as="geometry" />
        </mxCell>
        <mxCell id="f34nnR5g4uo3Y9udLXgA-110" value="" style="group" vertex="1" connectable="0" parent="1">
          <mxGeometry x="-1060" y="60" width="153.29" height="290" as="geometry" />
        </mxCell>
        <mxCell id="f34nnR5g4uo3Y9udLXgA-107" value="" style="image;aspect=fixed;perimeter=ellipsePerimeter;html=1;align=center;shadow=0;dashed=0;spacingTop=3;image=img/lib/active_directory/user.svg;imageBackground=#FF0FA7;" vertex="1" parent="f34nnR5g4uo3Y9udLXgA-110">
          <mxGeometry x="76.645" y="41.42857142857143" width="76.64285714285715" height="207.14285714285717" as="geometry" />
        </mxCell>
        <mxCell id="f34nnR5g4uo3Y9udLXgA-108" value="" style="image;aspect=fixed;perimeter=ellipsePerimeter;html=1;align=center;shadow=0;dashed=0;spacingTop=3;image=img/lib/active_directory/user.svg;imageBackground=#E8FF54;" vertex="1" parent="f34nnR5g4uo3Y9udLXgA-110">
          <mxGeometry width="76.64285714285715" height="207.14285714285717" as="geometry" />
        </mxCell>
        <mxCell id="f34nnR5g4uo3Y9udLXgA-109" value="" style="image;aspect=fixed;perimeter=ellipsePerimeter;html=1;align=center;shadow=0;dashed=0;spacingTop=3;image=img/lib/active_directory/user.svg;imageBackground=#30FF6E;" vertex="1" parent="f34nnR5g4uo3Y9udLXgA-110">
          <mxGeometry y="82.85714285714286" width="76.64285714285715" height="207.14285714285717" as="geometry" />
        </mxCell>
        <mxCell id="f34nnR5g4uo3Y9udLXgA-112" value="AWS&lt;br&gt;ЦОД 2&lt;br&gt;us-west1" style="ellipse;shape=cloud;whiteSpace=wrap;html=1;opacity=70;" vertex="1" parent="1">
          <mxGeometry x="1060" y="499" width="235" height="140" as="geometry" />
        </mxCell>
        <mxCell id="f34nnR5g4uo3Y9udLXgA-137" style="edgeStyle=orthogonalEdgeStyle;rounded=0;orthogonalLoop=1;jettySize=auto;html=1;exitX=0.579;exitY=0.148;exitDx=0;exitDy=0;exitPerimeter=0;entryX=0.5;entryY=0;entryDx=0;entryDy=0;entryPerimeter=0;" edge="1" parent="1" source="f34nnR5g4uo3Y9udLXgA-115" target="f34nnR5g4uo3Y9udLXgA-131">
          <mxGeometry relative="1" as="geometry">
            <Array as="points">
              <mxPoint x="1230" y="232" />
              <mxPoint x="1230" y="210" />
              <mxPoint x="1325" y="210" />
            </Array>
          </mxGeometry>
        </mxCell>
        <mxCell id="f34nnR5g4uo3Y9udLXgA-140" style="edgeStyle=orthogonalEdgeStyle;rounded=0;orthogonalLoop=1;jettySize=auto;html=1;exitX=0.55;exitY=0.95;exitDx=0;exitDy=0;exitPerimeter=0;entryX=0;entryY=0.5;entryDx=0;entryDy=0;entryPerimeter=0;" edge="1" parent="1" source="f34nnR5g4uo3Y9udLXgA-115" target="f34nnR5g4uo3Y9udLXgA-133">
          <mxGeometry relative="1" as="geometry">
            <Array as="points">
              <mxPoint x="1200" y="353" />
              <mxPoint x="1200" y="380" />
              <mxPoint x="1270" y="380" />
              <mxPoint x="1270" y="335" />
            </Array>
          </mxGeometry>
        </mxCell>
        <mxCell id="f34nnR5g4uo3Y9udLXgA-115" value="AWS&lt;br&gt;ЦОД 1&lt;br&gt;us-east1" style="ellipse;shape=cloud;whiteSpace=wrap;html=1;opacity=70;align=center;" vertex="1" parent="1">
          <mxGeometry x="1050" y="210" width="230" height="150" as="geometry" />
        </mxCell>
        <mxCell id="f34nnR5g4uo3Y9udLXgA-116" value="AWS&lt;br&gt;ЦОД 3&lt;br&gt;ca-central" style="ellipse;shape=cloud;whiteSpace=wrap;html=1;opacity=70;" vertex="1" parent="1">
          <mxGeometry x="1060" y="800" width="250" height="156" as="geometry" />
        </mxCell>
        <mxCell id="f34nnR5g4uo3Y9udLXgA-265" style="edgeStyle=orthogonalEdgeStyle;shape=link;rounded=0;orthogonalLoop=1;jettySize=auto;html=1;exitX=0.75;exitY=1;exitDx=0;exitDy=0;entryX=0.25;entryY=1;entryDx=0;entryDy=0;width=30;" edge="1" parent="1" source="f34nnR5g4uo3Y9udLXgA-118" target="f34nnR5g4uo3Y9udLXgA-122">
          <mxGeometry relative="1" as="geometry">
            <Array as="points">
              <mxPoint x="1995" y="1470" />
              <mxPoint x="2320" y="1470" />
            </Array>
          </mxGeometry>
        </mxCell>
        <mxCell id="f34nnR5g4uo3Y9udLXgA-118" value="" style="rounded=1;whiteSpace=wrap;html=1;" vertex="1" parent="1">
          <mxGeometry x="1620" y="180" width="500" height="1220" as="geometry" />
        </mxCell>
        <mxCell id="f34nnR5g4uo3Y9udLXgA-122" value="" style="rounded=1;whiteSpace=wrap;html=1;" vertex="1" parent="1">
          <mxGeometry x="2190" y="180" width="520" height="1220" as="geometry" />
        </mxCell>
        <mxCell id="f34nnR5g4uo3Y9udLXgA-126" value="Clouds in North America" style="text;strokeColor=none;fillColor=none;html=1;fontSize=24;fontStyle=1;verticalAlign=middle;align=center;" vertex="1" parent="1">
          <mxGeometry x="1210" y="1354" width="175" height="46" as="geometry" />
        </mxCell>
        <mxCell id="f34nnR5g4uo3Y9udLXgA-287" value="" style="ellipse;shape=cloud;whiteSpace=wrap;html=1;" vertex="1" parent="1">
          <mxGeometry x="2440" y="1077.75" width="282.5" height="135.5" as="geometry" />
        </mxCell>
        <mxCell id="f34nnR5g4uo3Y9udLXgA-283" value="" style="ellipse;shape=cloud;whiteSpace=wrap;html=1;" vertex="1" parent="1">
          <mxGeometry x="1840" y="1077.75" width="282.5" height="135.5" as="geometry" />
        </mxCell>
        <mxCell id="f34nnR5g4uo3Y9udLXgA-127" value="Clouds in EUROPE" style="text;strokeColor=none;fillColor=none;html=1;fontSize=24;fontStyle=1;verticalAlign=middle;align=center;" vertex="1" parent="1">
          <mxGeometry x="1766" y="1354" width="175" height="46" as="geometry" />
        </mxCell>
        <mxCell id="f34nnR5g4uo3Y9udLXgA-128" value="Clouds in Russia" style="text;strokeColor=none;fillColor=none;html=1;fontSize=24;fontStyle=1;verticalAlign=middle;align=center;" vertex="1" parent="1">
          <mxGeometry x="2350" y="1354" width="175" height="46" as="geometry" />
        </mxCell>
        <mxCell id="f34nnR5g4uo3Y9udLXgA-138" style="edgeStyle=orthogonalEdgeStyle;curved=1;rounded=0;orthogonalLoop=1;jettySize=auto;html=1;exitX=0.88;exitY=0.5;exitDx=0;exitDy=0;exitPerimeter=0;entryX=0;entryY=0.5;entryDx=0;entryDy=0;entryPerimeter=0;" edge="1" parent="1" source="f34nnR5g4uo3Y9udLXgA-131" target="f34nnR5g4uo3Y9udLXgA-132">
          <mxGeometry relative="1" as="geometry" />
        </mxCell>
        <mxCell id="f34nnR5g4uo3Y9udLXgA-131" value="Frontend&lt;br&gt;" style="fontColor=#0066CC;verticalAlign=top;verticalLabelPosition=bottom;labelPosition=center;align=center;html=1;outlineConnect=0;fillColor=#CCCCCC;strokeColor=#6881B3;gradientColor=none;gradientDirection=north;strokeWidth=2;shape=mxgraph.networks.web_server;" vertex="1" parent="1">
          <mxGeometry x="1300" y="230" width="50" height="50" as="geometry" />
        </mxCell>
        <mxCell id="f34nnR5g4uo3Y9udLXgA-139" style="edgeStyle=orthogonalEdgeStyle;curved=1;rounded=0;orthogonalLoop=1;jettySize=auto;html=1;exitX=1;exitY=0.5;exitDx=0;exitDy=0;exitPerimeter=0;entryX=0;entryY=0.5;entryDx=0;entryDy=0;entryPerimeter=0;" edge="1" parent="1" source="f34nnR5g4uo3Y9udLXgA-132" target="f34nnR5g4uo3Y9udLXgA-135">
          <mxGeometry relative="1" as="geometry" />
        </mxCell>
        <mxCell id="f34nnR5g4uo3Y9udLXgA-132" value="Backend" style="fontColor=#0066CC;verticalAlign=top;verticalLabelPosition=bottom;labelPosition=center;align=center;html=1;outlineConnect=0;fillColor=#CCCCCC;strokeColor=#6881B3;gradientColor=none;gradientDirection=north;strokeWidth=2;shape=mxgraph.networks.server;" vertex="1" parent="1">
          <mxGeometry x="1362.5" y="230" width="47.5" height="50" as="geometry" />
        </mxCell>
        <mxCell id="f34nnR5g4uo3Y9udLXgA-142" style="edgeStyle=none;rounded=0;orthogonalLoop=1;jettySize=auto;html=1;exitX=1;exitY=0.5;exitDx=0;exitDy=0;exitPerimeter=0;entryX=0;entryY=0.5;entryDx=0;entryDy=0;entryPerimeter=0;" edge="1" parent="1" source="f34nnR5g4uo3Y9udLXgA-133" target="f34nnR5g4uo3Y9udLXgA-136">
          <mxGeometry relative="1" as="geometry" />
        </mxCell>
        <mxCell id="f34nnR5g4uo3Y9udLXgA-133" value="Reporter" style="fontColor=#0066CC;verticalAlign=top;verticalLabelPosition=bottom;labelPosition=center;align=center;html=1;outlineConnect=0;fillColor=#CCCCCC;strokeColor=#6881B3;gradientColor=none;gradientDirection=north;strokeWidth=2;shape=mxgraph.networks.server;" vertex="1" parent="1">
          <mxGeometry x="1300" y="310" width="47.5" height="50" as="geometry" />
        </mxCell>
        <mxCell id="f34nnR5g4uo3Y9udLXgA-247" style="edgeStyle=orthogonalEdgeStyle;rounded=0;orthogonalLoop=1;jettySize=auto;html=1;exitX=1;exitY=0.5;exitDx=0;exitDy=0;exitPerimeter=0;entryX=0.988;entryY=0.821;entryDx=0;entryDy=0;entryPerimeter=0;" edge="1" parent="1" source="f34nnR5g4uo3Y9udLXgA-135" target="f34nnR5g4uo3Y9udLXgA-242">
          <mxGeometry relative="1" as="geometry">
            <Array as="points">
              <mxPoint x="1540" y="255" />
              <mxPoint x="1540" y="1158" />
            </Array>
          </mxGeometry>
        </mxCell>
        <mxCell id="f34nnR5g4uo3Y9udLXgA-135" value="Postgres DB" style="sketch=0;points=[[0,0,0],[0.25,0,0],[0.5,0,0],[0.75,0,0],[1,0,0],[0,1,0],[0.25,1,0],[0.5,1,0],[0.75,1,0],[1,1,0],[0,0.25,0],[0,0.5,0],[0,0.75,0],[1,0.25,0],[1,0.5,0],[1,0.75,0]];outlineConnect=0;fontColor=#232F3E;fillColor=#C925D1;strokeColor=#ffffff;dashed=0;verticalLabelPosition=bottom;verticalAlign=top;align=center;html=1;fontSize=12;fontStyle=0;aspect=fixed;shape=mxgraph.aws4.resourceIcon;resIcon=mxgraph.aws4.database;" vertex="1" parent="1">
          <mxGeometry x="1430" y="228" width="54" height="54" as="geometry" />
        </mxCell>
        <mxCell id="f34nnR5g4uo3Y9udLXgA-136" value="MongoDB" style="sketch=0;points=[[0,0,0],[0.25,0,0],[0.5,0,0],[0.75,0,0],[1,0,0],[0,1,0],[0.25,1,0],[0.5,1,0],[0.75,1,0],[1,1,0],[0,0.25,0],[0,0.5,0],[0,0.75,0],[1,0.25,0],[1,0.5,0],[1,0.75,0]];outlineConnect=0;fontColor=#232F3E;fillColor=#C925D1;strokeColor=#ffffff;dashed=0;verticalLabelPosition=bottom;verticalAlign=top;align=center;html=1;fontSize=12;fontStyle=0;aspect=fixed;shape=mxgraph.aws4.resourceIcon;resIcon=mxgraph.aws4.database;" vertex="1" parent="1">
          <mxGeometry x="1362.5" y="310" width="54" height="54" as="geometry" />
        </mxCell>
        <mxCell id="f34nnR5g4uo3Y9udLXgA-143" style="edgeStyle=orthogonalEdgeStyle;rounded=0;orthogonalLoop=1;jettySize=auto;html=1;exitX=0.4;exitY=0.1;exitDx=0;exitDy=0;exitPerimeter=0;entryX=0.5;entryY=0;entryDx=0;entryDy=0;entryPerimeter=0;" edge="1" parent="1" target="f34nnR5g4uo3Y9udLXgA-146" source="f34nnR5g4uo3Y9udLXgA-112">
          <mxGeometry relative="1" as="geometry">
            <mxPoint x="1213" y="512" as="sourcePoint" />
            <Array as="points">
              <mxPoint x="1180" y="513" />
              <mxPoint x="1180" y="512" />
              <mxPoint x="1181" y="512" />
              <mxPoint x="1181" y="490" />
              <mxPoint x="1325" y="490" />
            </Array>
          </mxGeometry>
        </mxCell>
        <mxCell id="f34nnR5g4uo3Y9udLXgA-144" style="edgeStyle=orthogonalEdgeStyle;rounded=0;orthogonalLoop=1;jettySize=auto;html=1;exitX=0.55;exitY=0.95;exitDx=0;exitDy=0;exitPerimeter=0;entryX=0;entryY=0.5;entryDx=0;entryDy=0;entryPerimeter=0;" edge="1" parent="1" target="f34nnR5g4uo3Y9udLXgA-150" source="f34nnR5g4uo3Y9udLXgA-112">
          <mxGeometry relative="1" as="geometry">
            <mxPoint x="1208" y="633" as="sourcePoint" />
            <Array as="points">
              <mxPoint x="1215" y="632" />
              <mxPoint x="1215" y="633" />
              <mxPoint x="1210" y="633" />
              <mxPoint x="1210" y="660" />
              <mxPoint x="1270" y="660" />
              <mxPoint x="1270" y="615" />
            </Array>
          </mxGeometry>
        </mxCell>
        <mxCell id="f34nnR5g4uo3Y9udLXgA-145" style="edgeStyle=orthogonalEdgeStyle;curved=1;rounded=0;orthogonalLoop=1;jettySize=auto;html=1;exitX=0.88;exitY=0.5;exitDx=0;exitDy=0;exitPerimeter=0;entryX=0;entryY=0.5;entryDx=0;entryDy=0;entryPerimeter=0;" edge="1" parent="1" source="f34nnR5g4uo3Y9udLXgA-146" target="f34nnR5g4uo3Y9udLXgA-148">
          <mxGeometry relative="1" as="geometry" />
        </mxCell>
        <mxCell id="f34nnR5g4uo3Y9udLXgA-146" value="Frontend&lt;br&gt;" style="fontColor=#0066CC;verticalAlign=top;verticalLabelPosition=bottom;labelPosition=center;align=center;html=1;outlineConnect=0;fillColor=#CCCCCC;strokeColor=#6881B3;gradientColor=none;gradientDirection=north;strokeWidth=2;shape=mxgraph.networks.web_server;" vertex="1" parent="1">
          <mxGeometry x="1300" y="510" width="50" height="50" as="geometry" />
        </mxCell>
        <mxCell id="f34nnR5g4uo3Y9udLXgA-147" style="edgeStyle=orthogonalEdgeStyle;curved=1;rounded=0;orthogonalLoop=1;jettySize=auto;html=1;exitX=1;exitY=0.5;exitDx=0;exitDy=0;exitPerimeter=0;entryX=0;entryY=0.5;entryDx=0;entryDy=0;entryPerimeter=0;" edge="1" parent="1" source="f34nnR5g4uo3Y9udLXgA-148" target="f34nnR5g4uo3Y9udLXgA-151">
          <mxGeometry relative="1" as="geometry" />
        </mxCell>
        <mxCell id="f34nnR5g4uo3Y9udLXgA-148" value="Backend" style="fontColor=#0066CC;verticalAlign=top;verticalLabelPosition=bottom;labelPosition=center;align=center;html=1;outlineConnect=0;fillColor=#CCCCCC;strokeColor=#6881B3;gradientColor=none;gradientDirection=north;strokeWidth=2;shape=mxgraph.networks.server;" vertex="1" parent="1">
          <mxGeometry x="1362.5" y="510" width="47.5" height="50" as="geometry" />
        </mxCell>
        <mxCell id="f34nnR5g4uo3Y9udLXgA-149" style="edgeStyle=none;rounded=0;orthogonalLoop=1;jettySize=auto;html=1;exitX=1;exitY=0.5;exitDx=0;exitDy=0;exitPerimeter=0;entryX=0;entryY=0.5;entryDx=0;entryDy=0;entryPerimeter=0;" edge="1" parent="1" source="f34nnR5g4uo3Y9udLXgA-150" target="f34nnR5g4uo3Y9udLXgA-152">
          <mxGeometry relative="1" as="geometry" />
        </mxCell>
        <mxCell id="f34nnR5g4uo3Y9udLXgA-150" value="Reporter" style="fontColor=#0066CC;verticalAlign=top;verticalLabelPosition=bottom;labelPosition=center;align=center;html=1;outlineConnect=0;fillColor=#CCCCCC;strokeColor=#6881B3;gradientColor=none;gradientDirection=north;strokeWidth=2;shape=mxgraph.networks.server;" vertex="1" parent="1">
          <mxGeometry x="1300" y="590" width="47.5" height="50" as="geometry" />
        </mxCell>
        <mxCell id="f34nnR5g4uo3Y9udLXgA-246" style="edgeStyle=orthogonalEdgeStyle;rounded=0;orthogonalLoop=1;jettySize=auto;html=1;exitX=1;exitY=0.5;exitDx=0;exitDy=0;exitPerimeter=0;entryX=1.004;entryY=0.462;entryDx=0;entryDy=0;entryPerimeter=0;" edge="1" parent="1" source="f34nnR5g4uo3Y9udLXgA-151" target="f34nnR5g4uo3Y9udLXgA-242">
          <mxGeometry relative="1" as="geometry" />
        </mxCell>
        <mxCell id="f34nnR5g4uo3Y9udLXgA-151" value="Postgres DB" style="sketch=0;points=[[0,0,0],[0.25,0,0],[0.5,0,0],[0.75,0,0],[1,0,0],[0,1,0],[0.25,1,0],[0.5,1,0],[0.75,1,0],[1,1,0],[0,0.25,0],[0,0.5,0],[0,0.75,0],[1,0.25,0],[1,0.5,0],[1,0.75,0]];outlineConnect=0;fontColor=#232F3E;fillColor=#C925D1;strokeColor=#ffffff;dashed=0;verticalLabelPosition=bottom;verticalAlign=top;align=center;html=1;fontSize=12;fontStyle=0;aspect=fixed;shape=mxgraph.aws4.resourceIcon;resIcon=mxgraph.aws4.database;" vertex="1" parent="1">
          <mxGeometry x="1430" y="508" width="54" height="54" as="geometry" />
        </mxCell>
        <mxCell id="f34nnR5g4uo3Y9udLXgA-152" value="MongoDB" style="sketch=0;points=[[0,0,0],[0.25,0,0],[0.5,0,0],[0.75,0,0],[1,0,0],[0,1,0],[0.25,1,0],[0.5,1,0],[0.75,1,0],[1,1,0],[0,0.25,0],[0,0.5,0],[0,0.75,0],[1,0.25,0],[1,0.5,0],[1,0.75,0]];outlineConnect=0;fontColor=#232F3E;fillColor=#C925D1;strokeColor=#ffffff;dashed=0;verticalLabelPosition=bottom;verticalAlign=top;align=center;html=1;fontSize=12;fontStyle=0;aspect=fixed;shape=mxgraph.aws4.resourceIcon;resIcon=mxgraph.aws4.database;" vertex="1" parent="1">
          <mxGeometry x="1362.5" y="590" width="57.5" height="57.5" as="geometry" />
        </mxCell>
        <mxCell id="f34nnR5g4uo3Y9udLXgA-153" style="edgeStyle=orthogonalEdgeStyle;rounded=0;orthogonalLoop=1;jettySize=auto;html=1;exitX=0.625;exitY=0.2;exitDx=0;exitDy=0;exitPerimeter=0;entryX=0.5;entryY=0;entryDx=0;entryDy=0;entryPerimeter=0;" edge="1" parent="1" target="f34nnR5g4uo3Y9udLXgA-156" source="f34nnR5g4uo3Y9udLXgA-116">
          <mxGeometry relative="1" as="geometry">
            <mxPoint x="1222.95" y="822" as="sourcePoint" />
            <Array as="points">
              <mxPoint x="1239" y="822" />
              <mxPoint x="1240" y="822" />
              <mxPoint x="1240" y="800" />
              <mxPoint x="1335" y="800" />
            </Array>
          </mxGeometry>
        </mxCell>
        <mxCell id="f34nnR5g4uo3Y9udLXgA-154" style="edgeStyle=orthogonalEdgeStyle;rounded=0;orthogonalLoop=1;jettySize=auto;html=1;exitX=0.55;exitY=0.95;exitDx=0;exitDy=0;exitPerimeter=0;entryX=0;entryY=0.5;entryDx=0;entryDy=0;entryPerimeter=0;" edge="1" parent="1" target="f34nnR5g4uo3Y9udLXgA-160" source="f34nnR5g4uo3Y9udLXgA-116">
          <mxGeometry relative="1" as="geometry">
            <mxPoint x="1217.95" y="943" as="sourcePoint" />
            <Array as="points">
              <mxPoint x="1224" y="960" />
              <mxPoint x="1224" y="960" />
              <mxPoint x="1224" y="970" />
              <mxPoint x="1280" y="970" />
              <mxPoint x="1280" y="925" />
            </Array>
          </mxGeometry>
        </mxCell>
        <mxCell id="f34nnR5g4uo3Y9udLXgA-155" style="edgeStyle=orthogonalEdgeStyle;curved=1;rounded=0;orthogonalLoop=1;jettySize=auto;html=1;exitX=0.88;exitY=0.5;exitDx=0;exitDy=0;exitPerimeter=0;entryX=0;entryY=0.5;entryDx=0;entryDy=0;entryPerimeter=0;" edge="1" parent="1" source="f34nnR5g4uo3Y9udLXgA-156" target="f34nnR5g4uo3Y9udLXgA-158">
          <mxGeometry relative="1" as="geometry" />
        </mxCell>
        <mxCell id="f34nnR5g4uo3Y9udLXgA-156" value="Frontend&lt;br&gt;" style="fontColor=#0066CC;verticalAlign=top;verticalLabelPosition=bottom;labelPosition=center;align=center;html=1;outlineConnect=0;fillColor=#CCCCCC;strokeColor=#6881B3;gradientColor=none;gradientDirection=north;strokeWidth=2;shape=mxgraph.networks.web_server;" vertex="1" parent="1">
          <mxGeometry x="1309.95" y="820" width="50" height="50" as="geometry" />
        </mxCell>
        <mxCell id="f34nnR5g4uo3Y9udLXgA-157" style="edgeStyle=orthogonalEdgeStyle;curved=1;rounded=0;orthogonalLoop=1;jettySize=auto;html=1;exitX=1;exitY=0.5;exitDx=0;exitDy=0;exitPerimeter=0;entryX=0;entryY=0.5;entryDx=0;entryDy=0;entryPerimeter=0;" edge="1" parent="1" source="f34nnR5g4uo3Y9udLXgA-158" target="f34nnR5g4uo3Y9udLXgA-161">
          <mxGeometry relative="1" as="geometry" />
        </mxCell>
        <mxCell id="f34nnR5g4uo3Y9udLXgA-158" value="Backend" style="fontColor=#0066CC;verticalAlign=top;verticalLabelPosition=bottom;labelPosition=center;align=center;html=1;outlineConnect=0;fillColor=#CCCCCC;strokeColor=#6881B3;gradientColor=none;gradientDirection=north;strokeWidth=2;shape=mxgraph.networks.server;" vertex="1" parent="1">
          <mxGeometry x="1372.45" y="820" width="47.5" height="50" as="geometry" />
        </mxCell>
        <mxCell id="f34nnR5g4uo3Y9udLXgA-159" style="edgeStyle=none;rounded=0;orthogonalLoop=1;jettySize=auto;html=1;exitX=1;exitY=0.5;exitDx=0;exitDy=0;exitPerimeter=0;entryX=0;entryY=0.5;entryDx=0;entryDy=0;entryPerimeter=0;" edge="1" parent="1" source="f34nnR5g4uo3Y9udLXgA-160" target="f34nnR5g4uo3Y9udLXgA-162">
          <mxGeometry relative="1" as="geometry" />
        </mxCell>
        <mxCell id="f34nnR5g4uo3Y9udLXgA-160" value="Reporter" style="fontColor=#0066CC;verticalAlign=top;verticalLabelPosition=bottom;labelPosition=center;align=center;html=1;outlineConnect=0;fillColor=#CCCCCC;strokeColor=#6881B3;gradientColor=none;gradientDirection=north;strokeWidth=2;shape=mxgraph.networks.server;" vertex="1" parent="1">
          <mxGeometry x="1309.95" y="900" width="47.5" height="50" as="geometry" />
        </mxCell>
        <mxCell id="f34nnR5g4uo3Y9udLXgA-245" style="edgeStyle=orthogonalEdgeStyle;rounded=0;orthogonalLoop=1;jettySize=auto;html=1;exitX=1;exitY=0.5;exitDx=0;exitDy=0;exitPerimeter=0;startArrow=classic;startFill=1;" edge="1" parent="1" source="f34nnR5g4uo3Y9udLXgA-161" target="f34nnR5g4uo3Y9udLXgA-242">
          <mxGeometry relative="1" as="geometry" />
        </mxCell>
        <mxCell id="f34nnR5g4uo3Y9udLXgA-161" value="Postgres DB" style="sketch=0;points=[[0,0,0],[0.25,0,0],[0.5,0,0],[0.75,0,0],[1,0,0],[0,1,0],[0.25,1,0],[0.5,1,0],[0.75,1,0],[1,1,0],[0,0.25,0],[0,0.5,0],[0,0.75,0],[1,0.25,0],[1,0.5,0],[1,0.75,0]];outlineConnect=0;fontColor=#232F3E;fillColor=#C925D1;strokeColor=#ffffff;dashed=0;verticalLabelPosition=bottom;verticalAlign=top;align=center;html=1;fontSize=12;fontStyle=0;aspect=fixed;shape=mxgraph.aws4.resourceIcon;resIcon=mxgraph.aws4.database;" vertex="1" parent="1">
          <mxGeometry x="1439.95" y="818" width="54" height="54" as="geometry" />
        </mxCell>
        <mxCell id="f34nnR5g4uo3Y9udLXgA-162" value="MongoDB" style="sketch=0;points=[[0,0,0],[0.25,0,0],[0.5,0,0],[0.75,0,0],[1,0,0],[0,1,0],[0.25,1,0],[0.5,1,0],[0.75,1,0],[1,1,0],[0,0.25,0],[0,0.5,0],[0,0.75,0],[1,0.25,0],[1,0.5,0],[1,0.75,0]];outlineConnect=0;fontColor=#232F3E;fillColor=#C925D1;strokeColor=#ffffff;dashed=0;verticalLabelPosition=bottom;verticalAlign=top;align=center;html=1;fontSize=12;fontStyle=0;aspect=fixed;shape=mxgraph.aws4.resourceIcon;resIcon=mxgraph.aws4.database;" vertex="1" parent="1">
          <mxGeometry x="1372.45" y="900" width="54" height="54" as="geometry" />
        </mxCell>
        <mxCell id="f34nnR5g4uo3Y9udLXgA-167" value="AWS&lt;br&gt;ЦОД 2&lt;br&gt;eu-west-1" style="ellipse;shape=cloud;whiteSpace=wrap;html=1;opacity=70;" vertex="1" parent="1">
          <mxGeometry x="1650" y="509" width="205" height="140" as="geometry" />
        </mxCell>
        <mxCell id="f34nnR5g4uo3Y9udLXgA-168" style="edgeStyle=orthogonalEdgeStyle;rounded=0;orthogonalLoop=1;jettySize=auto;html=1;exitX=0.579;exitY=0.148;exitDx=0;exitDy=0;exitPerimeter=0;entryX=0.5;entryY=0;entryDx=0;entryDy=0;entryPerimeter=0;" edge="1" parent="1" source="f34nnR5g4uo3Y9udLXgA-170" target="f34nnR5g4uo3Y9udLXgA-174">
          <mxGeometry relative="1" as="geometry">
            <Array as="points">
              <mxPoint x="1790" y="242" />
              <mxPoint x="1790" y="220" />
              <mxPoint x="1885" y="220" />
            </Array>
          </mxGeometry>
        </mxCell>
        <mxCell id="f34nnR5g4uo3Y9udLXgA-169" style="edgeStyle=orthogonalEdgeStyle;rounded=0;orthogonalLoop=1;jettySize=auto;html=1;exitX=0.55;exitY=0.95;exitDx=0;exitDy=0;exitPerimeter=0;entryX=0;entryY=0.5;entryDx=0;entryDy=0;entryPerimeter=0;" edge="1" parent="1" source="f34nnR5g4uo3Y9udLXgA-170" target="f34nnR5g4uo3Y9udLXgA-178">
          <mxGeometry relative="1" as="geometry">
            <Array as="points">
              <mxPoint x="1760" y="363" />
              <mxPoint x="1760" y="390" />
              <mxPoint x="1830" y="390" />
              <mxPoint x="1830" y="345" />
            </Array>
          </mxGeometry>
        </mxCell>
        <mxCell id="f34nnR5g4uo3Y9udLXgA-170" value="AWS&lt;br&gt;ЦОД 1&lt;br&gt;eu-central-1" style="ellipse;shape=cloud;whiteSpace=wrap;html=1;opacity=70;align=center;" vertex="1" parent="1">
          <mxGeometry x="1640" y="220" width="200" height="150" as="geometry" />
        </mxCell>
        <mxCell id="f34nnR5g4uo3Y9udLXgA-171" value="AWS&lt;br&gt;ЦОД 3&lt;br&gt;eu-west-3" style="ellipse;shape=cloud;whiteSpace=wrap;html=1;opacity=70;" vertex="1" parent="1">
          <mxGeometry x="1650" y="810" width="220" height="156" as="geometry" />
        </mxCell>
        <mxCell id="f34nnR5g4uo3Y9udLXgA-172" style="edgeStyle=orthogonalEdgeStyle;curved=1;rounded=0;orthogonalLoop=1;jettySize=auto;html=1;exitX=0.88;exitY=0.5;exitDx=0;exitDy=0;exitPerimeter=0;entryX=0;entryY=0.5;entryDx=0;entryDy=0;entryPerimeter=0;" edge="1" parent="1" source="f34nnR5g4uo3Y9udLXgA-174" target="f34nnR5g4uo3Y9udLXgA-176">
          <mxGeometry relative="1" as="geometry" />
        </mxCell>
        <mxCell id="f34nnR5g4uo3Y9udLXgA-174" value="Frontend&lt;br&gt;" style="fontColor=#0066CC;verticalAlign=top;verticalLabelPosition=bottom;labelPosition=center;align=center;html=1;outlineConnect=0;fillColor=#CCCCCC;strokeColor=#6881B3;gradientColor=none;gradientDirection=north;strokeWidth=2;shape=mxgraph.networks.web_server;" vertex="1" parent="1">
          <mxGeometry x="1860" y="240" width="50" height="50" as="geometry" />
        </mxCell>
        <mxCell id="f34nnR5g4uo3Y9udLXgA-175" style="edgeStyle=orthogonalEdgeStyle;curved=1;rounded=0;orthogonalLoop=1;jettySize=auto;html=1;exitX=1;exitY=0.5;exitDx=0;exitDy=0;exitPerimeter=0;entryX=0;entryY=0.5;entryDx=0;entryDy=0;entryPerimeter=0;" edge="1" parent="1" source="f34nnR5g4uo3Y9udLXgA-176" target="f34nnR5g4uo3Y9udLXgA-180">
          <mxGeometry relative="1" as="geometry" />
        </mxCell>
        <mxCell id="f34nnR5g4uo3Y9udLXgA-176" value="Backend" style="fontColor=#0066CC;verticalAlign=top;verticalLabelPosition=bottom;labelPosition=center;align=center;html=1;outlineConnect=0;fillColor=#CCCCCC;strokeColor=#6881B3;gradientColor=none;gradientDirection=north;strokeWidth=2;shape=mxgraph.networks.server;" vertex="1" parent="1">
          <mxGeometry x="1922.5" y="240" width="47.5" height="50" as="geometry" />
        </mxCell>
        <mxCell id="f34nnR5g4uo3Y9udLXgA-177" style="edgeStyle=none;rounded=0;orthogonalLoop=1;jettySize=auto;html=1;exitX=1;exitY=0.5;exitDx=0;exitDy=0;exitPerimeter=0;entryX=0;entryY=0.5;entryDx=0;entryDy=0;entryPerimeter=0;" edge="1" parent="1" source="f34nnR5g4uo3Y9udLXgA-178" target="f34nnR5g4uo3Y9udLXgA-181">
          <mxGeometry relative="1" as="geometry" />
        </mxCell>
        <mxCell id="f34nnR5g4uo3Y9udLXgA-178" value="Reporter" style="fontColor=#0066CC;verticalAlign=top;verticalLabelPosition=bottom;labelPosition=center;align=center;html=1;outlineConnect=0;fillColor=#CCCCCC;strokeColor=#6881B3;gradientColor=none;gradientDirection=north;strokeWidth=2;shape=mxgraph.networks.server;" vertex="1" parent="1">
          <mxGeometry x="1860" y="320" width="47.5" height="50" as="geometry" />
        </mxCell>
        <mxCell id="f34nnR5g4uo3Y9udLXgA-259" style="edgeStyle=orthogonalEdgeStyle;rounded=0;orthogonalLoop=1;jettySize=auto;html=1;exitX=1;exitY=0.5;exitDx=0;exitDy=0;exitPerimeter=0;entryX=0.988;entryY=0.697;entryDx=0;entryDy=0;entryPerimeter=0;" edge="1" parent="1" source="f34nnR5g4uo3Y9udLXgA-180" target="f34nnR5g4uo3Y9udLXgA-243">
          <mxGeometry relative="1" as="geometry">
            <Array as="points">
              <mxPoint x="2100" y="265" />
              <mxPoint x="2100" y="1159" />
            </Array>
          </mxGeometry>
        </mxCell>
        <mxCell id="f34nnR5g4uo3Y9udLXgA-180" value="Postgres DB" style="sketch=0;points=[[0,0,0],[0.25,0,0],[0.5,0,0],[0.75,0,0],[1,0,0],[0,1,0],[0.25,1,0],[0.5,1,0],[0.75,1,0],[1,1,0],[0,0.25,0],[0,0.5,0],[0,0.75,0],[1,0.25,0],[1,0.5,0],[1,0.75,0]];outlineConnect=0;fontColor=#232F3E;fillColor=#C925D1;strokeColor=#ffffff;dashed=0;verticalLabelPosition=bottom;verticalAlign=top;align=center;html=1;fontSize=12;fontStyle=0;aspect=fixed;shape=mxgraph.aws4.resourceIcon;resIcon=mxgraph.aws4.database;" vertex="1" parent="1">
          <mxGeometry x="1990" y="238" width="54" height="54" as="geometry" />
        </mxCell>
        <mxCell id="f34nnR5g4uo3Y9udLXgA-181" value="MongoDB" style="sketch=0;points=[[0,0,0],[0.25,0,0],[0.5,0,0],[0.75,0,0],[1,0,0],[0,1,0],[0.25,1,0],[0.5,1,0],[0.75,1,0],[1,1,0],[0,0.25,0],[0,0.5,0],[0,0.75,0],[1,0.25,0],[1,0.5,0],[1,0.75,0]];outlineConnect=0;fontColor=#232F3E;fillColor=#C925D1;strokeColor=#ffffff;dashed=0;verticalLabelPosition=bottom;verticalAlign=top;align=center;html=1;fontSize=12;fontStyle=0;aspect=fixed;shape=mxgraph.aws4.resourceIcon;resIcon=mxgraph.aws4.database;" vertex="1" parent="1">
          <mxGeometry x="1922.5" y="320" width="54" height="54" as="geometry" />
        </mxCell>
        <mxCell id="f34nnR5g4uo3Y9udLXgA-182" style="edgeStyle=orthogonalEdgeStyle;rounded=0;orthogonalLoop=1;jettySize=auto;html=1;exitX=0.4;exitY=0.1;exitDx=0;exitDy=0;exitPerimeter=0;entryX=0.5;entryY=0;entryDx=0;entryDy=0;entryPerimeter=0;" edge="1" parent="1" source="f34nnR5g4uo3Y9udLXgA-167" target="f34nnR5g4uo3Y9udLXgA-186">
          <mxGeometry relative="1" as="geometry">
            <mxPoint x="1773" y="522" as="sourcePoint" />
            <Array as="points">
              <mxPoint x="1740" y="523" />
              <mxPoint x="1740" y="522" />
              <mxPoint x="1741" y="522" />
              <mxPoint x="1741" y="500" />
              <mxPoint x="1885" y="500" />
            </Array>
          </mxGeometry>
        </mxCell>
        <mxCell id="f34nnR5g4uo3Y9udLXgA-183" style="edgeStyle=orthogonalEdgeStyle;rounded=0;orthogonalLoop=1;jettySize=auto;html=1;exitX=0.55;exitY=0.95;exitDx=0;exitDy=0;exitPerimeter=0;entryX=0;entryY=0.5;entryDx=0;entryDy=0;entryPerimeter=0;" edge="1" parent="1" source="f34nnR5g4uo3Y9udLXgA-167" target="f34nnR5g4uo3Y9udLXgA-190">
          <mxGeometry relative="1" as="geometry">
            <mxPoint x="1768" y="643" as="sourcePoint" />
            <Array as="points">
              <mxPoint x="1775" y="642" />
              <mxPoint x="1775" y="643" />
              <mxPoint x="1770" y="643" />
              <mxPoint x="1770" y="670" />
              <mxPoint x="1830" y="670" />
              <mxPoint x="1830" y="625" />
            </Array>
          </mxGeometry>
        </mxCell>
        <mxCell id="f34nnR5g4uo3Y9udLXgA-184" style="edgeStyle=orthogonalEdgeStyle;curved=1;rounded=0;orthogonalLoop=1;jettySize=auto;html=1;exitX=0.88;exitY=0.5;exitDx=0;exitDy=0;exitPerimeter=0;entryX=0;entryY=0.5;entryDx=0;entryDy=0;entryPerimeter=0;" edge="1" parent="1" source="f34nnR5g4uo3Y9udLXgA-186" target="f34nnR5g4uo3Y9udLXgA-188">
          <mxGeometry relative="1" as="geometry" />
        </mxCell>
        <mxCell id="f34nnR5g4uo3Y9udLXgA-186" value="Frontend&lt;br&gt;" style="fontColor=#0066CC;verticalAlign=top;verticalLabelPosition=bottom;labelPosition=center;align=center;html=1;outlineConnect=0;fillColor=#CCCCCC;strokeColor=#6881B3;gradientColor=none;gradientDirection=north;strokeWidth=2;shape=mxgraph.networks.web_server;" vertex="1" parent="1">
          <mxGeometry x="1860" y="520" width="50" height="50" as="geometry" />
        </mxCell>
        <mxCell id="f34nnR5g4uo3Y9udLXgA-187" style="edgeStyle=orthogonalEdgeStyle;curved=1;rounded=0;orthogonalLoop=1;jettySize=auto;html=1;exitX=1;exitY=0.5;exitDx=0;exitDy=0;exitPerimeter=0;entryX=0;entryY=0.5;entryDx=0;entryDy=0;entryPerimeter=0;" edge="1" parent="1" source="f34nnR5g4uo3Y9udLXgA-188" target="f34nnR5g4uo3Y9udLXgA-191">
          <mxGeometry relative="1" as="geometry" />
        </mxCell>
        <mxCell id="f34nnR5g4uo3Y9udLXgA-188" value="Backend" style="fontColor=#0066CC;verticalAlign=top;verticalLabelPosition=bottom;labelPosition=center;align=center;html=1;outlineConnect=0;fillColor=#CCCCCC;strokeColor=#6881B3;gradientColor=none;gradientDirection=north;strokeWidth=2;shape=mxgraph.networks.server;" vertex="1" parent="1">
          <mxGeometry x="1922.5" y="520" width="47.5" height="50" as="geometry" />
        </mxCell>
        <mxCell id="f34nnR5g4uo3Y9udLXgA-189" style="edgeStyle=none;rounded=0;orthogonalLoop=1;jettySize=auto;html=1;exitX=1;exitY=0.5;exitDx=0;exitDy=0;exitPerimeter=0;entryX=0;entryY=0.5;entryDx=0;entryDy=0;entryPerimeter=0;" edge="1" parent="1" source="f34nnR5g4uo3Y9udLXgA-190" target="f34nnR5g4uo3Y9udLXgA-192">
          <mxGeometry relative="1" as="geometry" />
        </mxCell>
        <mxCell id="f34nnR5g4uo3Y9udLXgA-190" value="Reporter" style="fontColor=#0066CC;verticalAlign=top;verticalLabelPosition=bottom;labelPosition=center;align=center;html=1;outlineConnect=0;fillColor=#CCCCCC;strokeColor=#6881B3;gradientColor=none;gradientDirection=north;strokeWidth=2;shape=mxgraph.networks.server;" vertex="1" parent="1">
          <mxGeometry x="1860" y="600" width="47.5" height="50" as="geometry" />
        </mxCell>
        <mxCell id="f34nnR5g4uo3Y9udLXgA-258" style="edgeStyle=orthogonalEdgeStyle;rounded=0;orthogonalLoop=1;jettySize=auto;html=1;exitX=1;exitY=0.5;exitDx=0;exitDy=0;exitPerimeter=0;entryX=0.988;entryY=0.38;entryDx=0;entryDy=0;entryPerimeter=0;" edge="1" parent="1" source="f34nnR5g4uo3Y9udLXgA-191" target="f34nnR5g4uo3Y9udLXgA-243">
          <mxGeometry relative="1" as="geometry" />
        </mxCell>
        <mxCell id="f34nnR5g4uo3Y9udLXgA-191" value="Postgres DB" style="sketch=0;points=[[0,0,0],[0.25,0,0],[0.5,0,0],[0.75,0,0],[1,0,0],[0,1,0],[0.25,1,0],[0.5,1,0],[0.75,1,0],[1,1,0],[0,0.25,0],[0,0.5,0],[0,0.75,0],[1,0.25,0],[1,0.5,0],[1,0.75,0]];outlineConnect=0;fontColor=#232F3E;fillColor=#C925D1;strokeColor=#ffffff;dashed=0;verticalLabelPosition=bottom;verticalAlign=top;align=center;html=1;fontSize=12;fontStyle=0;aspect=fixed;shape=mxgraph.aws4.resourceIcon;resIcon=mxgraph.aws4.database;" vertex="1" parent="1">
          <mxGeometry x="1990" y="518" width="54" height="54" as="geometry" />
        </mxCell>
        <mxCell id="f34nnR5g4uo3Y9udLXgA-192" value="MongoDB" style="sketch=0;points=[[0,0,0],[0.25,0,0],[0.5,0,0],[0.75,0,0],[1,0,0],[0,1,0],[0.25,1,0],[0.5,1,0],[0.75,1,0],[1,1,0],[0,0.25,0],[0,0.5,0],[0,0.75,0],[1,0.25,0],[1,0.5,0],[1,0.75,0]];outlineConnect=0;fontColor=#232F3E;fillColor=#C925D1;strokeColor=#ffffff;dashed=0;verticalLabelPosition=bottom;verticalAlign=top;align=center;html=1;fontSize=12;fontStyle=0;aspect=fixed;shape=mxgraph.aws4.resourceIcon;resIcon=mxgraph.aws4.database;" vertex="1" parent="1">
          <mxGeometry x="1922.5" y="600" width="54" height="54" as="geometry" />
        </mxCell>
        <mxCell id="f34nnR5g4uo3Y9udLXgA-193" style="edgeStyle=orthogonalEdgeStyle;rounded=0;orthogonalLoop=1;jettySize=auto;html=1;exitX=0.625;exitY=0.2;exitDx=0;exitDy=0;exitPerimeter=0;entryX=0.5;entryY=0;entryDx=0;entryDy=0;entryPerimeter=0;" edge="1" parent="1" source="f34nnR5g4uo3Y9udLXgA-171" target="f34nnR5g4uo3Y9udLXgA-197">
          <mxGeometry relative="1" as="geometry">
            <mxPoint x="1782.95" y="832" as="sourcePoint" />
            <Array as="points">
              <mxPoint x="1799" y="832" />
              <mxPoint x="1800" y="832" />
              <mxPoint x="1800" y="810" />
              <mxPoint x="1895" y="810" />
            </Array>
          </mxGeometry>
        </mxCell>
        <mxCell id="f34nnR5g4uo3Y9udLXgA-194" style="edgeStyle=orthogonalEdgeStyle;rounded=0;orthogonalLoop=1;jettySize=auto;html=1;exitX=0.55;exitY=0.95;exitDx=0;exitDy=0;exitPerimeter=0;entryX=0;entryY=0.5;entryDx=0;entryDy=0;entryPerimeter=0;" edge="1" parent="1" source="f34nnR5g4uo3Y9udLXgA-171" target="f34nnR5g4uo3Y9udLXgA-201">
          <mxGeometry relative="1" as="geometry">
            <mxPoint x="1777.95" y="953" as="sourcePoint" />
            <Array as="points">
              <mxPoint x="1784" y="970" />
              <mxPoint x="1784" y="970" />
              <mxPoint x="1784" y="980" />
              <mxPoint x="1840" y="980" />
              <mxPoint x="1840" y="935" />
            </Array>
          </mxGeometry>
        </mxCell>
        <mxCell id="f34nnR5g4uo3Y9udLXgA-195" style="edgeStyle=orthogonalEdgeStyle;curved=1;rounded=0;orthogonalLoop=1;jettySize=auto;html=1;exitX=0.88;exitY=0.5;exitDx=0;exitDy=0;exitPerimeter=0;entryX=0;entryY=0.5;entryDx=0;entryDy=0;entryPerimeter=0;" edge="1" parent="1" source="f34nnR5g4uo3Y9udLXgA-197" target="f34nnR5g4uo3Y9udLXgA-199">
          <mxGeometry relative="1" as="geometry" />
        </mxCell>
        <mxCell id="f34nnR5g4uo3Y9udLXgA-197" value="Frontend&lt;br&gt;" style="fontColor=#0066CC;verticalAlign=top;verticalLabelPosition=bottom;labelPosition=center;align=center;html=1;outlineConnect=0;fillColor=#CCCCCC;strokeColor=#6881B3;gradientColor=none;gradientDirection=north;strokeWidth=2;shape=mxgraph.networks.web_server;" vertex="1" parent="1">
          <mxGeometry x="1869.95" y="830" width="50" height="50" as="geometry" />
        </mxCell>
        <mxCell id="f34nnR5g4uo3Y9udLXgA-198" style="edgeStyle=orthogonalEdgeStyle;curved=1;rounded=0;orthogonalLoop=1;jettySize=auto;html=1;exitX=1;exitY=0.5;exitDx=0;exitDy=0;exitPerimeter=0;entryX=0;entryY=0.5;entryDx=0;entryDy=0;entryPerimeter=0;" edge="1" parent="1" source="f34nnR5g4uo3Y9udLXgA-199" target="f34nnR5g4uo3Y9udLXgA-202">
          <mxGeometry relative="1" as="geometry" />
        </mxCell>
        <mxCell id="f34nnR5g4uo3Y9udLXgA-199" value="Backend" style="fontColor=#0066CC;verticalAlign=top;verticalLabelPosition=bottom;labelPosition=center;align=center;html=1;outlineConnect=0;fillColor=#CCCCCC;strokeColor=#6881B3;gradientColor=none;gradientDirection=north;strokeWidth=2;shape=mxgraph.networks.server;" vertex="1" parent="1">
          <mxGeometry x="1932.45" y="830" width="47.5" height="50" as="geometry" />
        </mxCell>
        <mxCell id="f34nnR5g4uo3Y9udLXgA-200" style="edgeStyle=none;rounded=0;orthogonalLoop=1;jettySize=auto;html=1;exitX=1;exitY=0.5;exitDx=0;exitDy=0;exitPerimeter=0;entryX=0;entryY=0.5;entryDx=0;entryDy=0;entryPerimeter=0;" edge="1" parent="1" source="f34nnR5g4uo3Y9udLXgA-201" target="f34nnR5g4uo3Y9udLXgA-203">
          <mxGeometry relative="1" as="geometry" />
        </mxCell>
        <mxCell id="f34nnR5g4uo3Y9udLXgA-201" value="Reporter" style="fontColor=#0066CC;verticalAlign=top;verticalLabelPosition=bottom;labelPosition=center;align=center;html=1;outlineConnect=0;fillColor=#CCCCCC;strokeColor=#6881B3;gradientColor=none;gradientDirection=north;strokeWidth=2;shape=mxgraph.networks.server;" vertex="1" parent="1">
          <mxGeometry x="1869.95" y="910" width="47.5" height="50" as="geometry" />
        </mxCell>
        <mxCell id="f34nnR5g4uo3Y9udLXgA-257" style="edgeStyle=orthogonalEdgeStyle;rounded=0;orthogonalLoop=1;jettySize=auto;html=1;exitX=1;exitY=0.5;exitDx=0;exitDy=0;exitPerimeter=0;entryX=0.496;entryY=-0.034;entryDx=0;entryDy=0;entryPerimeter=0;" edge="1" parent="1" source="f34nnR5g4uo3Y9udLXgA-202" target="f34nnR5g4uo3Y9udLXgA-243">
          <mxGeometry relative="1" as="geometry" />
        </mxCell>
        <mxCell id="f34nnR5g4uo3Y9udLXgA-202" value="Postgres DB" style="sketch=0;points=[[0,0,0],[0.25,0,0],[0.5,0,0],[0.75,0,0],[1,0,0],[0,1,0],[0.25,1,0],[0.5,1,0],[0.75,1,0],[1,1,0],[0,0.25,0],[0,0.5,0],[0,0.75,0],[1,0.25,0],[1,0.5,0],[1,0.75,0]];outlineConnect=0;fontColor=#232F3E;fillColor=#C925D1;strokeColor=#ffffff;dashed=0;verticalLabelPosition=bottom;verticalAlign=top;align=center;html=1;fontSize=12;fontStyle=0;aspect=fixed;shape=mxgraph.aws4.resourceIcon;resIcon=mxgraph.aws4.database;" vertex="1" parent="1">
          <mxGeometry x="1999.95" y="828" width="54" height="54" as="geometry" />
        </mxCell>
        <mxCell id="f34nnR5g4uo3Y9udLXgA-203" value="MongoDB" style="sketch=0;points=[[0,0,0],[0.25,0,0],[0.5,0,0],[0.75,0,0],[1,0,0],[0,1,0],[0.25,1,0],[0.5,1,0],[0.75,1,0],[1,1,0],[0,0.25,0],[0,0.5,0],[0,0.75,0],[1,0.25,0],[1,0.5,0],[1,0.75,0]];outlineConnect=0;fontColor=#232F3E;fillColor=#C925D1;strokeColor=#ffffff;dashed=0;verticalLabelPosition=bottom;verticalAlign=top;align=center;html=1;fontSize=12;fontStyle=0;aspect=fixed;shape=mxgraph.aws4.resourceIcon;resIcon=mxgraph.aws4.database;" vertex="1" parent="1">
          <mxGeometry x="1932.45" y="910" width="54" height="54" as="geometry" />
        </mxCell>
        <mxCell id="f34nnR5g4uo3Y9udLXgA-204" value="Yandex&lt;br&gt;ЦОД 2&lt;br&gt;Piter" style="ellipse;shape=cloud;whiteSpace=wrap;html=1;opacity=70;" vertex="1" parent="1">
          <mxGeometry x="2200" y="519" width="225" height="140" as="geometry" />
        </mxCell>
        <mxCell id="f34nnR5g4uo3Y9udLXgA-205" style="edgeStyle=orthogonalEdgeStyle;rounded=0;orthogonalLoop=1;jettySize=auto;html=1;exitX=0.579;exitY=0.148;exitDx=0;exitDy=0;exitPerimeter=0;entryX=0.5;entryY=0;entryDx=0;entryDy=0;entryPerimeter=0;" edge="1" parent="1" source="f34nnR5g4uo3Y9udLXgA-207" target="f34nnR5g4uo3Y9udLXgA-211">
          <mxGeometry relative="1" as="geometry">
            <Array as="points">
              <mxPoint x="2360" y="252" />
              <mxPoint x="2360" y="230" />
              <mxPoint x="2455" y="230" />
            </Array>
          </mxGeometry>
        </mxCell>
        <mxCell id="f34nnR5g4uo3Y9udLXgA-206" style="edgeStyle=orthogonalEdgeStyle;rounded=0;orthogonalLoop=1;jettySize=auto;html=1;exitX=0.55;exitY=0.95;exitDx=0;exitDy=0;exitPerimeter=0;entryX=0;entryY=0.5;entryDx=0;entryDy=0;entryPerimeter=0;" edge="1" parent="1" source="f34nnR5g4uo3Y9udLXgA-207" target="f34nnR5g4uo3Y9udLXgA-215">
          <mxGeometry relative="1" as="geometry">
            <Array as="points">
              <mxPoint x="2330" y="373" />
              <mxPoint x="2330" y="400" />
              <mxPoint x="2400" y="400" />
              <mxPoint x="2400" y="355" />
            </Array>
          </mxGeometry>
        </mxCell>
        <mxCell id="f34nnR5g4uo3Y9udLXgA-207" value="Yandex&lt;br&gt;ЦОД 1&lt;br&gt;Moscow" style="ellipse;shape=cloud;whiteSpace=wrap;html=1;opacity=70;align=center;" vertex="1" parent="1">
          <mxGeometry x="2200" y="230" width="210" height="150" as="geometry" />
        </mxCell>
        <mxCell id="f34nnR5g4uo3Y9udLXgA-209" style="edgeStyle=orthogonalEdgeStyle;curved=1;rounded=0;orthogonalLoop=1;jettySize=auto;html=1;exitX=0.88;exitY=0.5;exitDx=0;exitDy=0;exitPerimeter=0;entryX=0;entryY=0.5;entryDx=0;entryDy=0;entryPerimeter=0;" edge="1" parent="1" source="f34nnR5g4uo3Y9udLXgA-211" target="f34nnR5g4uo3Y9udLXgA-213">
          <mxGeometry relative="1" as="geometry" />
        </mxCell>
        <mxCell id="f34nnR5g4uo3Y9udLXgA-211" value="Frontend&lt;br&gt;" style="fontColor=#0066CC;verticalAlign=top;verticalLabelPosition=bottom;labelPosition=center;align=center;html=1;outlineConnect=0;fillColor=#CCCCCC;strokeColor=#6881B3;gradientColor=none;gradientDirection=north;strokeWidth=2;shape=mxgraph.networks.web_server;" vertex="1" parent="1">
          <mxGeometry x="2430" y="250" width="50" height="50" as="geometry" />
        </mxCell>
        <mxCell id="f34nnR5g4uo3Y9udLXgA-212" style="edgeStyle=orthogonalEdgeStyle;curved=1;rounded=0;orthogonalLoop=1;jettySize=auto;html=1;exitX=1;exitY=0.5;exitDx=0;exitDy=0;exitPerimeter=0;entryX=0;entryY=0.5;entryDx=0;entryDy=0;entryPerimeter=0;" edge="1" parent="1" source="f34nnR5g4uo3Y9udLXgA-213" target="f34nnR5g4uo3Y9udLXgA-217">
          <mxGeometry relative="1" as="geometry" />
        </mxCell>
        <mxCell id="f34nnR5g4uo3Y9udLXgA-213" value="Backend" style="fontColor=#0066CC;verticalAlign=top;verticalLabelPosition=bottom;labelPosition=center;align=center;html=1;outlineConnect=0;fillColor=#CCCCCC;strokeColor=#6881B3;gradientColor=none;gradientDirection=north;strokeWidth=2;shape=mxgraph.networks.server;" vertex="1" parent="1">
          <mxGeometry x="2492.5" y="250" width="47.5" height="50" as="geometry" />
        </mxCell>
        <mxCell id="f34nnR5g4uo3Y9udLXgA-214" style="edgeStyle=none;rounded=0;orthogonalLoop=1;jettySize=auto;html=1;exitX=1;exitY=0.5;exitDx=0;exitDy=0;exitPerimeter=0;entryX=0;entryY=0.5;entryDx=0;entryDy=0;entryPerimeter=0;" edge="1" parent="1" source="f34nnR5g4uo3Y9udLXgA-215" target="f34nnR5g4uo3Y9udLXgA-218">
          <mxGeometry relative="1" as="geometry" />
        </mxCell>
        <mxCell id="f34nnR5g4uo3Y9udLXgA-215" value="Reporter" style="fontColor=#0066CC;verticalAlign=top;verticalLabelPosition=bottom;labelPosition=center;align=center;html=1;outlineConnect=0;fillColor=#CCCCCC;strokeColor=#6881B3;gradientColor=none;gradientDirection=north;strokeWidth=2;shape=mxgraph.networks.server;" vertex="1" parent="1">
          <mxGeometry x="2430" y="330" width="47.5" height="50" as="geometry" />
        </mxCell>
        <mxCell id="f34nnR5g4uo3Y9udLXgA-263" style="edgeStyle=orthogonalEdgeStyle;rounded=0;orthogonalLoop=1;jettySize=auto;html=1;exitX=1;exitY=0.5;exitDx=0;exitDy=0;exitPerimeter=0;entryX=0.994;entryY=0.749;entryDx=0;entryDy=0;entryPerimeter=0;" edge="1" parent="1" source="f34nnR5g4uo3Y9udLXgA-217" target="f34nnR5g4uo3Y9udLXgA-244">
          <mxGeometry relative="1" as="geometry">
            <Array as="points">
              <mxPoint x="2670" y="275" />
              <mxPoint x="2670" y="1163" />
            </Array>
          </mxGeometry>
        </mxCell>
        <mxCell id="f34nnR5g4uo3Y9udLXgA-217" value="Postgres DB" style="sketch=0;points=[[0,0,0],[0.25,0,0],[0.5,0,0],[0.75,0,0],[1,0,0],[0,1,0],[0.25,1,0],[0.5,1,0],[0.75,1,0],[1,1,0],[0,0.25,0],[0,0.5,0],[0,0.75,0],[1,0.25,0],[1,0.5,0],[1,0.75,0]];outlineConnect=0;fontColor=#232F3E;fillColor=#C925D1;strokeColor=#ffffff;dashed=0;verticalLabelPosition=bottom;verticalAlign=top;align=center;html=1;fontSize=12;fontStyle=0;aspect=fixed;shape=mxgraph.aws4.resourceIcon;resIcon=mxgraph.aws4.database;" vertex="1" parent="1">
          <mxGeometry x="2560" y="248" width="54" height="54" as="geometry" />
        </mxCell>
        <mxCell id="f34nnR5g4uo3Y9udLXgA-218" value="MongoDB" style="sketch=0;points=[[0,0,0],[0.25,0,0],[0.5,0,0],[0.75,0,0],[1,0,0],[0,1,0],[0.25,1,0],[0.5,1,0],[0.75,1,0],[1,1,0],[0,0.25,0],[0,0.5,0],[0,0.75,0],[1,0.25,0],[1,0.5,0],[1,0.75,0]];outlineConnect=0;fontColor=#232F3E;fillColor=#C925D1;strokeColor=#ffffff;dashed=0;verticalLabelPosition=bottom;verticalAlign=top;align=center;html=1;fontSize=12;fontStyle=0;aspect=fixed;shape=mxgraph.aws4.resourceIcon;resIcon=mxgraph.aws4.database;" vertex="1" parent="1">
          <mxGeometry x="2492.5" y="330" width="54" height="54" as="geometry" />
        </mxCell>
        <mxCell id="f34nnR5g4uo3Y9udLXgA-219" style="edgeStyle=orthogonalEdgeStyle;rounded=0;orthogonalLoop=1;jettySize=auto;html=1;exitX=0.4;exitY=0.1;exitDx=0;exitDy=0;exitPerimeter=0;entryX=0.5;entryY=0;entryDx=0;entryDy=0;entryPerimeter=0;" edge="1" parent="1" source="f34nnR5g4uo3Y9udLXgA-204" target="f34nnR5g4uo3Y9udLXgA-223">
          <mxGeometry relative="1" as="geometry">
            <mxPoint x="2343" y="532" as="sourcePoint" />
            <Array as="points">
              <mxPoint x="2310" y="533" />
              <mxPoint x="2310" y="532" />
              <mxPoint x="2311" y="532" />
              <mxPoint x="2311" y="510" />
              <mxPoint x="2455" y="510" />
            </Array>
          </mxGeometry>
        </mxCell>
        <mxCell id="f34nnR5g4uo3Y9udLXgA-220" style="edgeStyle=orthogonalEdgeStyle;rounded=0;orthogonalLoop=1;jettySize=auto;html=1;exitX=0.55;exitY=0.95;exitDx=0;exitDy=0;exitPerimeter=0;entryX=0;entryY=0.5;entryDx=0;entryDy=0;entryPerimeter=0;" edge="1" parent="1" source="f34nnR5g4uo3Y9udLXgA-204" target="f34nnR5g4uo3Y9udLXgA-227">
          <mxGeometry relative="1" as="geometry">
            <mxPoint x="2338" y="653" as="sourcePoint" />
            <Array as="points">
              <mxPoint x="2345" y="652" />
              <mxPoint x="2345" y="653" />
              <mxPoint x="2340" y="653" />
              <mxPoint x="2340" y="680" />
              <mxPoint x="2400" y="680" />
              <mxPoint x="2400" y="635" />
            </Array>
          </mxGeometry>
        </mxCell>
        <mxCell id="f34nnR5g4uo3Y9udLXgA-221" style="edgeStyle=orthogonalEdgeStyle;curved=1;rounded=0;orthogonalLoop=1;jettySize=auto;html=1;exitX=0.88;exitY=0.5;exitDx=0;exitDy=0;exitPerimeter=0;entryX=0;entryY=0.5;entryDx=0;entryDy=0;entryPerimeter=0;" edge="1" parent="1" source="f34nnR5g4uo3Y9udLXgA-223" target="f34nnR5g4uo3Y9udLXgA-225">
          <mxGeometry relative="1" as="geometry" />
        </mxCell>
        <mxCell id="f34nnR5g4uo3Y9udLXgA-223" value="Frontend&lt;br&gt;" style="fontColor=#0066CC;verticalAlign=top;verticalLabelPosition=bottom;labelPosition=center;align=center;html=1;outlineConnect=0;fillColor=#CCCCCC;strokeColor=#6881B3;gradientColor=none;gradientDirection=north;strokeWidth=2;shape=mxgraph.networks.web_server;" vertex="1" parent="1">
          <mxGeometry x="2430" y="530" width="50" height="50" as="geometry" />
        </mxCell>
        <mxCell id="f34nnR5g4uo3Y9udLXgA-224" style="edgeStyle=orthogonalEdgeStyle;curved=1;rounded=0;orthogonalLoop=1;jettySize=auto;html=1;exitX=1;exitY=0.5;exitDx=0;exitDy=0;exitPerimeter=0;entryX=0;entryY=0.5;entryDx=0;entryDy=0;entryPerimeter=0;" edge="1" parent="1" source="f34nnR5g4uo3Y9udLXgA-225" target="f34nnR5g4uo3Y9udLXgA-228">
          <mxGeometry relative="1" as="geometry" />
        </mxCell>
        <mxCell id="f34nnR5g4uo3Y9udLXgA-225" value="Backend" style="fontColor=#0066CC;verticalAlign=top;verticalLabelPosition=bottom;labelPosition=center;align=center;html=1;outlineConnect=0;fillColor=#CCCCCC;strokeColor=#6881B3;gradientColor=none;gradientDirection=north;strokeWidth=2;shape=mxgraph.networks.server;" vertex="1" parent="1">
          <mxGeometry x="2492.5" y="530" width="47.5" height="50" as="geometry" />
        </mxCell>
        <mxCell id="f34nnR5g4uo3Y9udLXgA-226" style="edgeStyle=none;rounded=0;orthogonalLoop=1;jettySize=auto;html=1;exitX=1;exitY=0.5;exitDx=0;exitDy=0;exitPerimeter=0;entryX=0;entryY=0.5;entryDx=0;entryDy=0;entryPerimeter=0;" edge="1" parent="1" source="f34nnR5g4uo3Y9udLXgA-227" target="f34nnR5g4uo3Y9udLXgA-229">
          <mxGeometry relative="1" as="geometry" />
        </mxCell>
        <mxCell id="f34nnR5g4uo3Y9udLXgA-227" value="Reporter" style="fontColor=#0066CC;verticalAlign=top;verticalLabelPosition=bottom;labelPosition=center;align=center;html=1;outlineConnect=0;fillColor=#CCCCCC;strokeColor=#6881B3;gradientColor=none;gradientDirection=north;strokeWidth=2;shape=mxgraph.networks.server;" vertex="1" parent="1">
          <mxGeometry x="2430" y="610" width="47.5" height="50" as="geometry" />
        </mxCell>
        <mxCell id="f34nnR5g4uo3Y9udLXgA-262" style="edgeStyle=orthogonalEdgeStyle;rounded=0;orthogonalLoop=1;jettySize=auto;html=1;exitX=1;exitY=0.5;exitDx=0;exitDy=0;exitPerimeter=0;entryX=1.001;entryY=0.275;entryDx=0;entryDy=0;entryPerimeter=0;" edge="1" parent="1" source="f34nnR5g4uo3Y9udLXgA-228" target="f34nnR5g4uo3Y9udLXgA-244">
          <mxGeometry relative="1" as="geometry" />
        </mxCell>
        <mxCell id="f34nnR5g4uo3Y9udLXgA-228" value="Postgres DB" style="sketch=0;points=[[0,0,0],[0.25,0,0],[0.5,0,0],[0.75,0,0],[1,0,0],[0,1,0],[0.25,1,0],[0.5,1,0],[0.75,1,0],[1,1,0],[0,0.25,0],[0,0.5,0],[0,0.75,0],[1,0.25,0],[1,0.5,0],[1,0.75,0]];outlineConnect=0;fontColor=#232F3E;fillColor=#C925D1;strokeColor=#ffffff;dashed=0;verticalLabelPosition=bottom;verticalAlign=top;align=center;html=1;fontSize=12;fontStyle=0;aspect=fixed;shape=mxgraph.aws4.resourceIcon;resIcon=mxgraph.aws4.database;" vertex="1" parent="1">
          <mxGeometry x="2560" y="528" width="54" height="54" as="geometry" />
        </mxCell>
        <mxCell id="f34nnR5g4uo3Y9udLXgA-229" value="MongoDB" style="sketch=0;points=[[0,0,0],[0.25,0,0],[0.5,0,0],[0.75,0,0],[1,0,0],[0,1,0],[0.25,1,0],[0.5,1,0],[0.75,1,0],[1,1,0],[0,0.25,0],[0,0.5,0],[0,0.75,0],[1,0.25,0],[1,0.5,0],[1,0.75,0]];outlineConnect=0;fontColor=#232F3E;fillColor=#C925D1;strokeColor=#ffffff;dashed=0;verticalLabelPosition=bottom;verticalAlign=top;align=center;html=1;fontSize=12;fontStyle=0;aspect=fixed;shape=mxgraph.aws4.resourceIcon;resIcon=mxgraph.aws4.database;" vertex="1" parent="1">
          <mxGeometry x="2492.5" y="610" width="54" height="54" as="geometry" />
        </mxCell>
        <mxCell id="f34nnR5g4uo3Y9udLXgA-242" value="Backup" style="image;aspect=fixed;html=1;points=[];align=center;fontSize=12;image=img/lib/azure2/azure_stack/Infrastructure_Backup.svg;" vertex="1" parent="1">
          <mxGeometry x="1439.95" y="1101" width="60" height="69" as="geometry" />
        </mxCell>
        <mxCell id="f34nnR5g4uo3Y9udLXgA-243" value="Backup" style="image;aspect=fixed;html=1;points=[];align=center;fontSize=12;image=img/lib/azure2/azure_stack/Infrastructure_Backup.svg;" vertex="1" parent="1">
          <mxGeometry x="1999.95" y="1110.5" width="60" height="69" as="geometry" />
        </mxCell>
        <mxCell id="f34nnR5g4uo3Y9udLXgA-244" value="Backup" style="image;aspect=fixed;html=1;points=[];align=center;fontSize=12;image=img/lib/azure2/azure_stack/Infrastructure_Backup.svg;" vertex="1" parent="1">
          <mxGeometry x="2569.95" y="1111" width="60" height="69" as="geometry" />
        </mxCell>
        <mxCell id="f34nnR5g4uo3Y9udLXgA-268" value="Provider 1" style="text;strokeColor=none;fillColor=none;html=1;fontSize=24;fontStyle=1;verticalAlign=middle;align=center;" vertex="1" parent="1">
          <mxGeometry x="1550" y="1440" width="100" height="40" as="geometry" />
        </mxCell>
        <mxCell id="f34nnR5g4uo3Y9udLXgA-269" value="Provider 2" style="text;strokeColor=none;fillColor=none;html=1;fontSize=24;fontStyle=1;verticalAlign=middle;align=center;" vertex="1" parent="1">
          <mxGeometry x="1549" y="1467" width="100" height="40" as="geometry" />
        </mxCell>
        <mxCell id="f34nnR5g4uo3Y9udLXgA-270" value="Provider 1" style="text;strokeColor=none;fillColor=none;html=1;fontSize=24;fontStyle=1;verticalAlign=middle;align=center;" vertex="1" parent="1">
          <mxGeometry x="2111" y="1426.5" width="100" height="40" as="geometry" />
        </mxCell>
        <mxCell id="f34nnR5g4uo3Y9udLXgA-271" value="Provider 2" style="text;strokeColor=none;fillColor=none;html=1;fontSize=24;fontStyle=1;verticalAlign=middle;align=center;" vertex="1" parent="1">
          <mxGeometry x="2110" y="1453.5" width="100" height="40" as="geometry" />
        </mxCell>
        <mxCell id="f34nnR5g4uo3Y9udLXgA-272" value="Provider 1" style="text;strokeColor=none;fillColor=none;html=1;fontSize=24;fontStyle=1;verticalAlign=middle;align=center;" vertex="1" parent="1">
          <mxGeometry x="1804" y="1507" width="100" height="40" as="geometry" />
        </mxCell>
        <mxCell id="f34nnR5g4uo3Y9udLXgA-273" value="Provider 2" style="text;strokeColor=none;fillColor=none;html=1;fontSize=24;fontStyle=1;verticalAlign=middle;align=center;" vertex="1" parent="1">
          <mxGeometry x="1803" y="1534" width="100" height="40" as="geometry" />
        </mxCell>
        <mxCell id="f34nnR5g4uo3Y9udLXgA-274" value="S3" style="sketch=0;outlineConnect=0;fontColor=#232F3E;gradientColor=none;fillColor=#7AA116;strokeColor=none;dashed=0;verticalLabelPosition=bottom;verticalAlign=top;align=center;html=1;fontSize=12;fontStyle=0;aspect=fixed;pointerEvents=1;shape=mxgraph.aws4.bucket;" vertex="1" parent="1">
          <mxGeometry x="1090" y="256" width="32.69" height="34" as="geometry" />
        </mxCell>
        <mxCell id="f34nnR5g4uo3Y9udLXgA-275" value="S3" style="sketch=0;outlineConnect=0;fontColor=#232F3E;gradientColor=none;fillColor=#7AA116;strokeColor=none;dashed=0;verticalLabelPosition=bottom;verticalAlign=top;align=center;html=1;fontSize=12;fontStyle=0;aspect=fixed;pointerEvents=1;shape=mxgraph.aws4.bucket;" vertex="1" parent="1">
          <mxGeometry x="1100" y="546" width="32.69" height="34" as="geometry" />
        </mxCell>
        <mxCell id="f34nnR5g4uo3Y9udLXgA-276" value="S3" style="sketch=0;outlineConnect=0;fontColor=#232F3E;gradientColor=none;fillColor=#7AA116;strokeColor=none;dashed=0;verticalLabelPosition=bottom;verticalAlign=top;align=center;html=1;fontSize=12;fontStyle=0;aspect=fixed;pointerEvents=1;shape=mxgraph.aws4.bucket;" vertex="1" parent="1">
          <mxGeometry x="1100" y="848" width="32.69" height="34" as="geometry" />
        </mxCell>
        <mxCell id="f34nnR5g4uo3Y9udLXgA-277" value="S3" style="sketch=0;outlineConnect=0;fontColor=#232F3E;gradientColor=none;fillColor=#7AA116;strokeColor=none;dashed=0;verticalLabelPosition=bottom;verticalAlign=top;align=center;html=1;fontSize=12;fontStyle=0;aspect=fixed;pointerEvents=1;shape=mxgraph.aws4.bucket;" vertex="1" parent="1">
          <mxGeometry x="1680" y="260" width="32.69" height="34" as="geometry" />
        </mxCell>
        <mxCell id="f34nnR5g4uo3Y9udLXgA-278" value="S3" style="sketch=0;outlineConnect=0;fontColor=#232F3E;gradientColor=none;fillColor=#7AA116;strokeColor=none;dashed=0;verticalLabelPosition=bottom;verticalAlign=top;align=center;html=1;fontSize=12;fontStyle=0;aspect=fixed;pointerEvents=1;shape=mxgraph.aws4.bucket;" vertex="1" parent="1">
          <mxGeometry x="1690" y="550" width="32.69" height="34" as="geometry" />
        </mxCell>
        <mxCell id="f34nnR5g4uo3Y9udLXgA-279" value="S3" style="sketch=0;outlineConnect=0;fontColor=#232F3E;gradientColor=none;fillColor=#7AA116;strokeColor=none;dashed=0;verticalLabelPosition=bottom;verticalAlign=top;align=center;html=1;fontSize=12;fontStyle=0;aspect=fixed;pointerEvents=1;shape=mxgraph.aws4.bucket;" vertex="1" parent="1">
          <mxGeometry x="1690" y="852" width="32.69" height="34" as="geometry" />
        </mxCell>
        <mxCell id="f34nnR5g4uo3Y9udLXgA-282" value="Google&lt;br style=&quot;font-size: 13px;&quot;&gt;ЦОД 4" style="text;strokeColor=none;fillColor=none;html=1;fontSize=13;fontStyle=1;verticalAlign=middle;align=center;" vertex="1" parent="1">
          <mxGeometry x="1309.95" y="1110.5" width="100" height="40" as="geometry" />
        </mxCell>
        <mxCell id="f34nnR5g4uo3Y9udLXgA-284" value="Digital Ocean&lt;br style=&quot;font-size: 13px;&quot;&gt;ЦОД 4" style="text;strokeColor=none;fillColor=none;html=1;fontSize=13;fontStyle=1;verticalAlign=middle;align=center;" vertex="1" parent="1">
          <mxGeometry x="1859.95" y="1118.25" width="100" height="40" as="geometry" />
        </mxCell>
        <mxCell id="f34nnR5g4uo3Y9udLXgA-285" value="S3" style="sketch=0;outlineConnect=0;fontColor=#232F3E;gradientColor=none;fillColor=#7AA116;strokeColor=none;dashed=0;verticalLabelPosition=bottom;verticalAlign=top;align=center;html=1;fontSize=12;fontStyle=0;aspect=fixed;pointerEvents=1;shape=mxgraph.aws4.bucket;" vertex="1" parent="1">
          <mxGeometry x="2230" y="276" width="32.69" height="34" as="geometry" />
        </mxCell>
        <mxCell id="f34nnR5g4uo3Y9udLXgA-286" value="S3" style="sketch=0;outlineConnect=0;fontColor=#232F3E;gradientColor=none;fillColor=#7AA116;strokeColor=none;dashed=0;verticalLabelPosition=bottom;verticalAlign=top;align=center;html=1;fontSize=12;fontStyle=0;aspect=fixed;pointerEvents=1;shape=mxgraph.aws4.bucket;" vertex="1" parent="1">
          <mxGeometry x="2240" y="566" width="32.69" height="34" as="geometry" />
        </mxCell>
        <mxCell id="f34nnR5g4uo3Y9udLXgA-288" value="Selectel&lt;br&gt;ЦОД 3" style="text;strokeColor=none;fillColor=none;html=1;fontSize=13;fontStyle=1;verticalAlign=middle;align=center;" vertex="1" parent="1">
          <mxGeometry x="2459.95" y="1118.25" width="100" height="40" as="geometry" />
        </mxCell>
        <mxCell id="f34nnR5g4uo3Y9udLXgA-289" value="" style="image;sketch=0;aspect=fixed;html=1;points=[];align=center;fontSize=12;image=img/lib/mscae/Kubernetes.svg;" vertex="1" parent="1">
          <mxGeometry x="1210" y="247" width="30.21" height="29" as="geometry" />
        </mxCell>
        <mxCell id="f34nnR5g4uo3Y9udLXgA-290" value="" style="image;sketch=0;aspect=fixed;html=1;points=[];align=center;fontSize=12;image=img/lib/mscae/Kubernetes.svg;" vertex="1" parent="1">
          <mxGeometry x="1220" y="530.5" width="30.21" height="29" as="geometry" />
        </mxCell>
        <mxCell id="f34nnR5g4uo3Y9udLXgA-291" value="" style="image;sketch=0;aspect=fixed;html=1;points=[];align=center;fontSize=12;image=img/lib/mscae/Kubernetes.svg;" vertex="1" parent="1">
          <mxGeometry x="1230" y="843" width="30.21" height="29" as="geometry" />
        </mxCell>
        <mxCell id="f34nnR5g4uo3Y9udLXgA-292" value="" style="image;sketch=0;aspect=fixed;html=1;points=[];align=center;fontSize=12;image=img/lib/mscae/Kubernetes.svg;" vertex="1" parent="1">
          <mxGeometry x="1780" y="260" width="30.21" height="29" as="geometry" />
        </mxCell>
        <mxCell id="f34nnR5g4uo3Y9udLXgA-293" value="" style="image;sketch=0;aspect=fixed;html=1;points=[];align=center;fontSize=12;image=img/lib/mscae/Kubernetes.svg;" vertex="1" parent="1">
          <mxGeometry x="1790" y="543.5" width="30.21" height="29" as="geometry" />
        </mxCell>
        <mxCell id="f34nnR5g4uo3Y9udLXgA-294" value="" style="image;sketch=0;aspect=fixed;html=1;points=[];align=center;fontSize=12;image=img/lib/mscae/Kubernetes.svg;" vertex="1" parent="1">
          <mxGeometry x="1800" y="856" width="30.21" height="29" as="geometry" />
        </mxCell>
        <mxCell id="f34nnR5g4uo3Y9udLXgA-295" value="" style="image;sketch=0;aspect=fixed;html=1;points=[];align=center;fontSize=12;image=img/lib/mscae/Kubernetes.svg;" vertex="1" parent="1">
          <mxGeometry x="2340" y="267.5" width="30.21" height="29" as="geometry" />
        </mxCell>
        <mxCell id="f34nnR5g4uo3Y9udLXgA-296" value="" style="image;sketch=0;aspect=fixed;html=1;points=[];align=center;fontSize=12;image=img/lib/mscae/Kubernetes.svg;" vertex="1" parent="1">
          <mxGeometry x="2350" y="551" width="30.21" height="29" as="geometry" />
        </mxCell>
      </root>
    </mxGraphModel>
  </diagram>
</mxfile>
